  0
SECTION
  2
BLOCKS
  0
ENDSEC
  0
SECTION
  2
ENTITIES
  0
LINE
  8
0
 10
53.1364
 20
53
 11
46.1364
 21
53
  0
LINE
  8
0
 10
46.1364
 20
53
 11
46.1364
 21
60
  0
LINE
  8
0
 10
46.1364
 20
60
 11
0
 21
60
  0
LINE
  8
0
 10
0
 20
60
 11
0
 21
0
  0
LINE
  8
0
 10
0
 20
0
 11
9
 21
0
  0
LINE
  8
0
 10
9
 20
0
 11
9
 21
30
  0
LINE
  8
0
 10
9
 20
30
 11
27
 21
30
  0
LINE
  8
0
 10
27
 20
30
 11
27
 21
0
  0
LINE
  8
0
 10
27
 20
0
 11
241
 21
0
  0
LINE
  8
0
 10
241
 20
0
 11
241
 21
30
  0
LINE
  8
0
 10
241
 20
30
 11
259
 21
30
  0
LINE
  8
0
 10
259
 20
30
 11
259
 21
0
  0
LINE
  8
0
 10
259
 20
0
 11
473
 21
0
  0
LINE
  8
0
 10
473
 20
0
 11
473
 21
30
  0
LINE
  8
0
 10
473
 20
30
 11
491
 21
30
  0
LINE
  8
0
 10
491
 20
30
 11
491
 21
0
  0
LINE
  8
0
 10
491
 20
0
 11
500
 21
0
  0
LINE
  8
0
 10
500
 20
0
 11
500
 21
60
  0
LINE
  8
0
 10
500
 20
60
 11
453.864
 21
60
  0
LINE
  8
0
 10
453.864
 20
60
 11
453.864
 21
53
  0
LINE
  8
0
 10
453.864
 20
53
 11
446.864
 21
53
  0
LINE
  8
0
 10
446.864
 20
53
 11
446.864
 21
60
  0
LINE
  8
0
 10
446.864
 20
60
 11
432.773
 21
60
  0
LINE
  8
0
 10
432.773
 20
60
 11
432.773
 21
53
  0
LINE
  8
0
 10
432.773
 20
53
 11
425.773
 21
53
  0
LINE
  8
0
 10
425.773
 20
53
 11
425.773
 21
60
  0
LINE
  8
0
 10
425.773
 20
60
 11
411.682
 21
60
  0
LINE
  8
0
 10
411.682
 20
60
 11
411.682
 21
53
  0
LINE
  8
0
 10
411.682
 20
53
 11
404.682
 21
53
  0
LINE
  8
0
 10
404.682
 20
53
 11
404.682
 21
60
  0
LINE
  8
0
 10
404.682
 20
60
 11
390.591
 21
60
  0
LINE
  8
0
 10
390.591
 20
60
 11
390.591
 21
53
  0
LINE
  8
0
 10
390.591
 20
53
 11
383.591
 21
53
  0
LINE
  8
0
 10
383.591
 20
53
 11
383.591
 21
60
  0
LINE
  8
0
 10
383.591
 20
60
 11
369.5
 21
60
  0
LINE
  8
0
 10
369.5
 20
60
 11
369.5
 21
53
  0
LINE
  8
0
 10
369.5
 20
53
 11
362.5
 21
53
  0
LINE
  8
0
 10
362.5
 20
53
 11
362.5
 21
60
  0
LINE
  8
0
 10
362.5
 20
60
 11
348.409
 21
60
  0
LINE
  8
0
 10
348.409
 20
60
 11
348.409
 21
53
  0
LINE
  8
0
 10
348.409
 20
53
 11
341.409
 21
53
  0
LINE
  8
0
 10
341.409
 20
53
 11
341.409
 21
60
  0
LINE
  8
0
 10
341.409
 20
60
 11
327.318
 21
60
  0
LINE
  8
0
 10
327.318
 20
60
 11
327.318
 21
53
  0
LINE
  8
0
 10
327.318
 20
53
 11
320.318
 21
53
  0
LINE
  8
0
 10
320.318
 20
53
 11
320.318
 21
60
  0
LINE
  8
0
 10
320.318
 20
60
 11
306.227
 21
60
  0
LINE
  8
0
 10
306.227
 20
60
 11
306.227
 21
53
  0
LINE
  8
0
 10
306.227
 20
53
 11
299.227
 21
53
  0
LINE
  8
0
 10
299.227
 20
53
 11
299.227
 21
60
  0
LINE
  8
0
 10
299.227
 20
60
 11
285.136
 21
60
  0
LINE
  8
0
 10
285.136
 20
60
 11
285.136
 21
53
  0
LINE
  8
0
 10
285.136
 20
53
 11
278.136
 21
53
  0
LINE
  8
0
 10
278.136
 20
53
 11
278.136
 21
60
  0
LINE
  8
0
 10
278.136
 20
60
 11
221.864
 21
60
  0
LINE
  8
0
 10
221.864
 20
60
 11
221.864
 21
53
  0
LINE
  8
0
 10
221.864
 20
53
 11
214.864
 21
53
  0
LINE
  8
0
 10
214.864
 20
53
 11
214.864
 21
60
  0
LINE
  8
0
 10
214.864
 20
60
 11
200.773
 21
60
  0
LINE
  8
0
 10
200.773
 20
60
 11
200.773
 21
53
  0
LINE
  8
0
 10
200.773
 20
53
 11
193.773
 21
53
  0
LINE
  8
0
 10
193.773
 20
53
 11
193.773
 21
60
  0
LINE
  8
0
 10
193.773
 20
60
 11
179.682
 21
60
  0
LINE
  8
0
 10
179.682
 20
60
 11
179.682
 21
53
  0
LINE
  8
0
 10
179.682
 20
53
 11
172.682
 21
53
  0
LINE
  8
0
 10
172.682
 20
53
 11
172.682
 21
60
  0
LINE
  8
0
 10
172.682
 20
60
 11
158.591
 21
60
  0
LINE
  8
0
 10
158.591
 20
60
 11
158.591
 21
53
  0
LINE
  8
0
 10
158.591
 20
53
 11
151.591
 21
53
  0
LINE
  8
0
 10
151.591
 20
53
 11
151.591
 21
60
  0
LINE
  8
0
 10
151.591
 20
60
 11
137.5
 21
60
  0
LINE
  8
0
 10
137.5
 20
60
 11
137.5
 21
53
  0
LINE
  8
0
 10
137.5
 20
53
 11
130.5
 21
53
  0
LINE
  8
0
 10
130.5
 20
53
 11
130.5
 21
60
  0
LINE
  8
0
 10
130.5
 20
60
 11
116.409
 21
60
  0
LINE
  8
0
 10
116.409
 20
60
 11
116.409
 21
53
  0
LINE
  8
0
 10
116.409
 20
53
 11
109.409
 21
53
  0
LINE
  8
0
 10
109.409
 20
53
 11
109.409
 21
60
  0
LINE
  8
0
 10
109.409
 20
60
 11
95.3182
 21
60
  0
LINE
  8
0
 10
95.3182
 20
60
 11
95.3182
 21
53
  0
LINE
  8
0
 10
95.3182
 20
53
 11
88.3182
 21
53
  0
LINE
  8
0
 10
88.3182
 20
53
 11
88.3182
 21
60
  0
LINE
  8
0
 10
88.3182
 20
60
 11
74.2273
 21
60
  0
LINE
  8
0
 10
74.2273
 20
60
 11
74.2273
 21
53
  0
LINE
  8
0
 10
74.2273
 20
53
 11
67.2273
 21
53
  0
LINE
  8
0
 10
67.2273
 20
53
 11
67.2273
 21
60
  0
LINE
  8
0
 10
67.2273
 20
60
 11
53.1364
 21
60
  0
LINE
  8
0
 10
53.1364
 20
60
 11
53.1364
 21
53
  0
LINE
  8
0
 10
270.908
 20
43.0096
 11
270.727
 21
43.0382
  0
LINE
  8
0
 10
270.727
 20
43.0382
 11
270.55
 21
43.0856
  0
LINE
  8
0
 10
270.55
 20
43.0856
 11
270.379
 21
43.1513
  0
LINE
  8
0
 10
270.379
 20
43.1513
 11
270.216
 21
43.2345
  0
LINE
  8
0
 10
270.216
 20
43.2345
 11
270.062
 21
43.3342
  0
LINE
  8
0
 10
270.062
 20
43.3342
 11
269.92
 21
43.4495
  0
LINE
  8
0
 10
269.92
 20
43.4495
 11
269.79
 21
43.579
  0
LINE
  8
0
 10
269.79
 20
43.579
 11
269.675
 21
43.7214
  0
LINE
  8
0
 10
269.675
 20
43.7214
 11
269.575
 21
43.875
  0
LINE
  8
0
 10
269.575
 20
43.875
 11
269.492
 21
44.0382
  0
LINE
  8
0
 10
269.492
 20
44.0382
 11
269.427
 21
44.2092
  0
LINE
  8
0
 10
269.427
 20
44.2092
 11
269.379
 21
44.3862
  0
LINE
  8
0
 10
269.379
 20
44.3862
 11
269.35
 21
44.5671
  0
LINE
  8
0
 10
269.35
 20
44.5671
 11
269.341
 21
44.75
  0
LINE
  8
0
 10
269.341
 20
44.75
 11
269.35
 21
44.9329
  0
LINE
  8
0
 10
269.35
 20
44.9329
 11
269.379
 21
45.1138
  0
LINE
  8
0
 10
269.379
 20
45.1138
 11
269.427
 21
45.2908
  0
LINE
  8
0
 10
269.427
 20
45.2908
 11
269.492
 21
45.4618
  0
LINE
  8
0
 10
269.492
 20
45.4618
 11
269.575
 21
45.625
  0
LINE
  8
0
 10
269.575
 20
45.625
 11
269.675
 21
45.7786
  0
LINE
  8
0
 10
269.675
 20
45.7786
 11
269.79
 21
45.921
  0
LINE
  8
0
 10
269.79
 20
45.921
 11
269.92
 21
46.0505
  0
LINE
  8
0
 10
269.92
 20
46.0505
 11
270.062
 21
46.1658
  0
LINE
  8
0
 10
270.062
 20
46.1658
 11
270.216
 21
46.2655
  0
LINE
  8
0
 10
270.216
 20
46.2655
 11
270.379
 21
46.3487
  0
LINE
  8
0
 10
270.379
 20
46.3487
 11
270.55
 21
46.4143
  0
LINE
  8
0
 10
270.55
 20
46.4143
 11
270.727
 21
46.4617
  0
LINE
  8
0
 10
270.727
 20
46.4617
 11
270.908
 21
46.4904
  0
LINE
  8
0
 10
270.908
 20
46.4904
 11
271.091
 21
46.5
  0
LINE
  8
0
 10
271.091
 20
46.5
 11
271.274
 21
46.4904
  0
LINE
  8
0
 10
271.274
 20
46.4904
 11
271.455
 21
46.4617
  0
LINE
  8
0
 10
271.455
 20
46.4617
 11
271.632
 21
46.4143
  0
LINE
  8
0
 10
271.632
 20
46.4143
 11
271.803
 21
46.3487
  0
LINE
  8
0
 10
271.803
 20
46.3487
 11
271.966
 21
46.2655
  0
LINE
  8
0
 10
271.966
 20
46.2655
 11
272.12
 21
46.1658
  0
LINE
  8
0
 10
272.12
 20
46.1658
 11
272.262
 21
46.0505
  0
LINE
  8
0
 10
272.262
 20
46.0505
 11
272.391
 21
45.921
  0
LINE
  8
0
 10
272.391
 20
45.921
 11
272.507
 21
45.7786
  0
LINE
  8
0
 10
272.507
 20
45.7786
 11
272.606
 21
45.625
  0
LINE
  8
0
 10
272.606
 20
45.625
 11
272.69
 21
45.4618
  0
LINE
  8
0
 10
272.69
 20
45.4618
 11
272.755
 21
45.2908
  0
LINE
  8
0
 10
272.755
 20
45.2908
 11
272.803
 21
45.1138
  0
LINE
  8
0
 10
272.803
 20
45.1138
 11
272.831
 21
44.9329
  0
LINE
  8
0
 10
272.831
 20
44.9329
 11
272.841
 21
44.75
  0
LINE
  8
0
 10
272.841
 20
44.75
 11
272.831
 21
44.5671
  0
LINE
  8
0
 10
272.831
 20
44.5671
 11
272.803
 21
44.3862
  0
LINE
  8
0
 10
272.803
 20
44.3862
 11
272.755
 21
44.2092
  0
LINE
  8
0
 10
272.755
 20
44.2092
 11
272.69
 21
44.0382
  0
LINE
  8
0
 10
272.69
 20
44.0382
 11
272.606
 21
43.875
  0
LINE
  8
0
 10
272.606
 20
43.875
 11
272.507
 21
43.7214
  0
LINE
  8
0
 10
272.507
 20
43.7214
 11
272.391
 21
43.579
  0
LINE
  8
0
 10
272.391
 20
43.579
 11
272.262
 21
43.4495
  0
LINE
  8
0
 10
272.262
 20
43.4495
 11
272.12
 21
43.3342
  0
LINE
  8
0
 10
272.12
 20
43.3342
 11
271.966
 21
43.2345
  0
LINE
  8
0
 10
271.966
 20
43.2345
 11
271.803
 21
43.1513
  0
LINE
  8
0
 10
271.803
 20
43.1513
 11
271.632
 21
43.0856
  0
LINE
  8
0
 10
271.632
 20
43.0856
 11
271.455
 21
43.0382
  0
LINE
  8
0
 10
271.455
 20
43.0382
 11
271.274
 21
43.0096
  0
LINE
  8
0
 10
271.274
 20
43.0096
 11
271.091
 21
43
  0
LINE
  8
0
 10
271.091
 20
43
 11
270.908
 21
43.0096
  0
LINE
  8
0
 10
38.908
 20
43.0096
 11
38.7271
 21
43.0382
  0
LINE
  8
0
 10
38.7271
 20
43.0382
 11
38.5501
 21
43.0856
  0
LINE
  8
0
 10
38.5501
 20
43.0856
 11
38.3791
 21
43.1513
  0
LINE
  8
0
 10
38.3791
 20
43.1513
 11
38.2159
 21
43.2345
  0
LINE
  8
0
 10
38.2159
 20
43.2345
 11
38.0623
 21
43.3342
  0
LINE
  8
0
 10
38.0623
 20
43.3342
 11
37.9199
 21
43.4495
  0
LINE
  8
0
 10
37.9199
 20
43.4495
 11
37.7904
 21
43.579
  0
LINE
  8
0
 10
37.7904
 20
43.579
 11
37.6751
 21
43.7214
  0
LINE
  8
0
 10
37.6751
 20
43.7214
 11
37.5754
 21
43.875
  0
LINE
  8
0
 10
37.5754
 20
43.875
 11
37.4922
 21
44.0382
  0
LINE
  8
0
 10
37.4922
 20
44.0382
 11
37.4266
 21
44.2092
  0
LINE
  8
0
 10
37.4266
 20
44.2092
 11
37.3792
 21
44.3862
  0
LINE
  8
0
 10
37.3792
 20
44.3862
 11
37.3505
 21
44.5671
  0
LINE
  8
0
 10
37.3505
 20
44.5671
 11
37.3409
 21
44.75
  0
LINE
  8
0
 10
37.3409
 20
44.75
 11
37.3505
 21
44.9329
  0
LINE
  8
0
 10
37.3505
 20
44.9329
 11
37.3792
 21
45.1138
  0
LINE
  8
0
 10
37.3792
 20
45.1138
 11
37.4266
 21
45.2908
  0
LINE
  8
0
 10
37.4266
 20
45.2908
 11
37.4922
 21
45.4618
  0
LINE
  8
0
 10
37.4922
 20
45.4618
 11
37.5754
 21
45.625
  0
LINE
  8
0
 10
37.5754
 20
45.625
 11
37.6751
 21
45.7786
  0
LINE
  8
0
 10
37.6751
 20
45.7786
 11
37.7904
 21
45.921
  0
LINE
  8
0
 10
37.7904
 20
45.921
 11
37.9199
 21
46.0505
  0
LINE
  8
0
 10
37.9199
 20
46.0505
 11
38.0623
 21
46.1658
  0
LINE
  8
0
 10
38.0623
 20
46.1658
 11
38.2159
 21
46.2655
  0
LINE
  8
0
 10
38.2159
 20
46.2655
 11
38.3791
 21
46.3487
  0
LINE
  8
0
 10
38.3791
 20
46.3487
 11
38.5501
 21
46.4143
  0
LINE
  8
0
 10
38.5501
 20
46.4143
 11
38.7271
 21
46.4617
  0
LINE
  8
0
 10
38.7271
 20
46.4617
 11
38.908
 21
46.4904
  0
LINE
  8
0
 10
38.908
 20
46.4904
 11
39.0909
 21
46.5
  0
LINE
  8
0
 10
39.0909
 20
46.5
 11
39.2738
 21
46.4904
  0
LINE
  8
0
 10
39.2738
 20
46.4904
 11
39.4547
 21
46.4617
  0
LINE
  8
0
 10
39.4547
 20
46.4617
 11
39.6317
 21
46.4143
  0
LINE
  8
0
 10
39.6317
 20
46.4143
 11
39.8027
 21
46.3487
  0
LINE
  8
0
 10
39.8027
 20
46.3487
 11
39.9659
 21
46.2655
  0
LINE
  8
0
 10
39.9659
 20
46.2655
 11
40.1195
 21
46.1658
  0
LINE
  8
0
 10
40.1195
 20
46.1658
 11
40.2619
 21
46.0505
  0
LINE
  8
0
 10
40.2619
 20
46.0505
 11
40.3914
 21
45.921
  0
LINE
  8
0
 10
40.3914
 20
45.921
 11
40.5067
 21
45.7786
  0
LINE
  8
0
 10
40.5067
 20
45.7786
 11
40.6064
 21
45.625
  0
LINE
  8
0
 10
40.6064
 20
45.625
 11
40.6896
 21
45.4618
  0
LINE
  8
0
 10
40.6896
 20
45.4618
 11
40.7552
 21
45.2908
  0
LINE
  8
0
 10
40.7552
 20
45.2908
 11
40.8026
 21
45.1138
  0
LINE
  8
0
 10
40.8026
 20
45.1138
 11
40.8313
 21
44.9329
  0
LINE
  8
0
 10
40.8313
 20
44.9329
 11
40.8409
 21
44.75
  0
LINE
  8
0
 10
40.8409
 20
44.75
 11
40.8313
 21
44.5671
  0
LINE
  8
0
 10
40.8313
 20
44.5671
 11
40.8026
 21
44.3862
  0
LINE
  8
0
 10
40.8026
 20
44.3862
 11
40.7552
 21
44.2092
  0
LINE
  8
0
 10
40.7552
 20
44.2092
 11
40.6896
 21
44.0382
  0
LINE
  8
0
 10
40.6896
 20
44.0382
 11
40.6064
 21
43.875
  0
LINE
  8
0
 10
40.6064
 20
43.875
 11
40.5067
 21
43.7214
  0
LINE
  8
0
 10
40.5067
 20
43.7214
 11
40.3914
 21
43.579
  0
LINE
  8
0
 10
40.3914
 20
43.579
 11
40.2619
 21
43.4495
  0
LINE
  8
0
 10
40.2619
 20
43.4495
 11
40.1195
 21
43.3342
  0
LINE
  8
0
 10
40.1195
 20
43.3342
 11
39.9659
 21
43.2345
  0
LINE
  8
0
 10
39.9659
 20
43.2345
 11
39.8027
 21
43.1513
  0
LINE
  8
0
 10
39.8027
 20
43.1513
 11
39.6317
 21
43.0856
  0
LINE
  8
0
 10
39.6317
 20
43.0856
 11
39.4547
 21
43.0382
  0
LINE
  8
0
 10
39.4547
 20
43.0382
 11
39.2738
 21
43.0096
  0
LINE
  8
0
 10
39.2738
 20
43.0096
 11
39.0909
 21
43
  0
LINE
  8
0
 10
39.0909
 20
43
 11
38.908
 21
43.0096
  0
LINE
  8
0
 10
59.9989
 20
43.0096
 11
59.818
 21
43.0382
  0
LINE
  8
0
 10
59.818
 20
43.0382
 11
59.641
 21
43.0856
  0
LINE
  8
0
 10
59.641
 20
43.0856
 11
59.47
 21
43.1513
  0
LINE
  8
0
 10
59.47
 20
43.1513
 11
59.3068
 21
43.2345
  0
LINE
  8
0
 10
59.3068
 20
43.2345
 11
59.1532
 21
43.3342
  0
LINE
  8
0
 10
59.1532
 20
43.3342
 11
59.0108
 21
43.4495
  0
LINE
  8
0
 10
59.0108
 20
43.4495
 11
58.8813
 21
43.579
  0
LINE
  8
0
 10
58.8813
 20
43.579
 11
58.766
 21
43.7214
  0
LINE
  8
0
 10
58.766
 20
43.7214
 11
58.6663
 21
43.875
  0
LINE
  8
0
 10
58.6663
 20
43.875
 11
58.5831
 21
44.0382
  0
LINE
  8
0
 10
58.5831
 20
44.0382
 11
58.5175
 21
44.2092
  0
LINE
  8
0
 10
58.5175
 20
44.2092
 11
58.4701
 21
44.3862
  0
LINE
  8
0
 10
58.4701
 20
44.3862
 11
58.4414
 21
44.5671
  0
LINE
  8
0
 10
58.4414
 20
44.5671
 11
58.4318
 21
44.75
  0
LINE
  8
0
 10
58.4318
 20
44.75
 11
58.4414
 21
44.9329
  0
LINE
  8
0
 10
58.4414
 20
44.9329
 11
58.4701
 21
45.1138
  0
LINE
  8
0
 10
58.4701
 20
45.1138
 11
58.5175
 21
45.2908
  0
LINE
  8
0
 10
58.5175
 20
45.2908
 11
58.5831
 21
45.4618
  0
LINE
  8
0
 10
58.5831
 20
45.4618
 11
58.6663
 21
45.625
  0
LINE
  8
0
 10
58.6663
 20
45.625
 11
58.766
 21
45.7786
  0
LINE
  8
0
 10
58.766
 20
45.7786
 11
58.8813
 21
45.921
  0
LINE
  8
0
 10
58.8813
 20
45.921
 11
59.0108
 21
46.0505
  0
LINE
  8
0
 10
59.0108
 20
46.0505
 11
59.1532
 21
46.1658
  0
LINE
  8
0
 10
59.1532
 20
46.1658
 11
59.3068
 21
46.2655
  0
LINE
  8
0
 10
59.3068
 20
46.2655
 11
59.47
 21
46.3487
  0
LINE
  8
0
 10
59.47
 20
46.3487
 11
59.641
 21
46.4143
  0
LINE
  8
0
 10
59.641
 20
46.4143
 11
59.818
 21
46.4617
  0
LINE
  8
0
 10
59.818
 20
46.4617
 11
59.9989
 21
46.4904
  0
LINE
  8
0
 10
59.9989
 20
46.4904
 11
60.1818
 21
46.5
  0
LINE
  8
0
 10
60.1818
 20
46.5
 11
60.3647
 21
46.4904
  0
LINE
  8
0
 10
60.3647
 20
46.4904
 11
60.5456
 21
46.4617
  0
LINE
  8
0
 10
60.5456
 20
46.4617
 11
60.7226
 21
46.4143
  0
LINE
  8
0
 10
60.7226
 20
46.4143
 11
60.8936
 21
46.3487
  0
LINE
  8
0
 10
60.8936
 20
46.3487
 11
61.0568
 21
46.2655
  0
LINE
  8
0
 10
61.0568
 20
46.2655
 11
61.2104
 21
46.1658
  0
LINE
  8
0
 10
61.2104
 20
46.1658
 11
61.3528
 21
46.0505
  0
LINE
  8
0
 10
61.3528
 20
46.0505
 11
61.4823
 21
45.921
  0
LINE
  8
0
 10
61.4823
 20
45.921
 11
61.5976
 21
45.7786
  0
LINE
  8
0
 10
61.5976
 20
45.7786
 11
61.6973
 21
45.625
  0
LINE
  8
0
 10
61.6973
 20
45.625
 11
61.7805
 21
45.4618
  0
LINE
  8
0
 10
61.7805
 20
45.4618
 11
61.8461
 21
45.2908
  0
LINE
  8
0
 10
61.8461
 20
45.2908
 11
61.8936
 21
45.1138
  0
LINE
  8
0
 10
61.8936
 20
45.1138
 11
61.9222
 21
44.9329
  0
LINE
  8
0
 10
61.9222
 20
44.9329
 11
61.9318
 21
44.75
  0
LINE
  8
0
 10
61.9318
 20
44.75
 11
61.9222
 21
44.5671
  0
LINE
  8
0
 10
61.9222
 20
44.5671
 11
61.8936
 21
44.3862
  0
LINE
  8
0
 10
61.8936
 20
44.3862
 11
61.8461
 21
44.2092
  0
LINE
  8
0
 10
61.8461
 20
44.2092
 11
61.7805
 21
44.0382
  0
LINE
  8
0
 10
61.7805
 20
44.0382
 11
61.6973
 21
43.875
  0
LINE
  8
0
 10
61.6973
 20
43.875
 11
61.5976
 21
43.7214
  0
LINE
  8
0
 10
61.5976
 20
43.7214
 11
61.4823
 21
43.579
  0
LINE
  8
0
 10
61.4823
 20
43.579
 11
61.3528
 21
43.4495
  0
LINE
  8
0
 10
61.3528
 20
43.4495
 11
61.2104
 21
43.3342
  0
LINE
  8
0
 10
61.2104
 20
43.3342
 11
61.0568
 21
43.2345
  0
LINE
  8
0
 10
61.0568
 20
43.2345
 11
60.8936
 21
43.1513
  0
LINE
  8
0
 10
60.8936
 20
43.1513
 11
60.7226
 21
43.0856
  0
LINE
  8
0
 10
60.7226
 20
43.0856
 11
60.5456
 21
43.0382
  0
LINE
  8
0
 10
60.5456
 20
43.0382
 11
60.3647
 21
43.0096
  0
LINE
  8
0
 10
60.3647
 20
43.0096
 11
60.1818
 21
43
  0
LINE
  8
0
 10
60.1818
 20
43
 11
59.9989
 21
43.0096
  0
LINE
  8
0
 10
228.726
 20
43.0096
 11
228.545
 21
43.0382
  0
LINE
  8
0
 10
228.545
 20
43.0382
 11
228.368
 21
43.0856
  0
LINE
  8
0
 10
228.368
 20
43.0856
 11
228.197
 21
43.1513
  0
LINE
  8
0
 10
228.197
 20
43.1513
 11
228.034
 21
43.2345
  0
LINE
  8
0
 10
228.034
 20
43.2345
 11
227.88
 21
43.3342
  0
LINE
  8
0
 10
227.88
 20
43.3342
 11
227.738
 21
43.4495
  0
LINE
  8
0
 10
227.738
 20
43.4495
 11
227.609
 21
43.579
  0
LINE
  8
0
 10
227.609
 20
43.579
 11
227.493
 21
43.7214
  0
LINE
  8
0
 10
227.493
 20
43.7214
 11
227.394
 21
43.875
  0
LINE
  8
0
 10
227.394
 20
43.875
 11
227.31
 21
44.0382
  0
LINE
  8
0
 10
227.31
 20
44.0382
 11
227.245
 21
44.2092
  0
LINE
  8
0
 10
227.245
 20
44.2092
 11
227.197
 21
44.3862
  0
LINE
  8
0
 10
227.197
 20
44.3862
 11
227.169
 21
44.5671
  0
LINE
  8
0
 10
227.169
 20
44.5671
 11
227.159
 21
44.75
  0
LINE
  8
0
 10
227.159
 20
44.75
 11
227.169
 21
44.9329
  0
LINE
  8
0
 10
227.169
 20
44.9329
 11
227.197
 21
45.1138
  0
LINE
  8
0
 10
227.197
 20
45.1138
 11
227.245
 21
45.2908
  0
LINE
  8
0
 10
227.245
 20
45.2908
 11
227.31
 21
45.4618
  0
LINE
  8
0
 10
227.31
 20
45.4618
 11
227.394
 21
45.625
  0
LINE
  8
0
 10
227.394
 20
45.625
 11
227.493
 21
45.7786
  0
LINE
  8
0
 10
227.493
 20
45.7786
 11
227.609
 21
45.921
  0
LINE
  8
0
 10
227.609
 20
45.921
 11
227.738
 21
46.0505
  0
LINE
  8
0
 10
227.738
 20
46.0505
 11
227.88
 21
46.1658
  0
LINE
  8
0
 10
227.88
 20
46.1658
 11
228.034
 21
46.2655
  0
LINE
  8
0
 10
228.034
 20
46.2655
 11
228.197
 21
46.3487
  0
LINE
  8
0
 10
228.197
 20
46.3487
 11
228.368
 21
46.4143
  0
LINE
  8
0
 10
228.368
 20
46.4143
 11
228.545
 21
46.4617
  0
LINE
  8
0
 10
228.545
 20
46.4617
 11
228.726
 21
46.4904
  0
LINE
  8
0
 10
228.726
 20
46.4904
 11
228.909
 21
46.5
  0
LINE
  8
0
 10
228.909
 20
46.5
 11
229.092
 21
46.4904
  0
LINE
  8
0
 10
229.092
 20
46.4904
 11
229.273
 21
46.4617
  0
LINE
  8
0
 10
229.273
 20
46.4617
 11
229.45
 21
46.4143
  0
LINE
  8
0
 10
229.45
 20
46.4143
 11
229.621
 21
46.3487
  0
LINE
  8
0
 10
229.621
 20
46.3487
 11
229.784
 21
46.2655
  0
LINE
  8
0
 10
229.784
 20
46.2655
 11
229.938
 21
46.1658
  0
LINE
  8
0
 10
229.938
 20
46.1658
 11
230.08
 21
46.0505
  0
LINE
  8
0
 10
230.08
 20
46.0505
 11
230.21
 21
45.921
  0
LINE
  8
0
 10
230.21
 20
45.921
 11
230.325
 21
45.7786
  0
LINE
  8
0
 10
230.325
 20
45.7786
 11
230.425
 21
45.625
  0
LINE
  8
0
 10
230.425
 20
45.625
 11
230.508
 21
45.4618
  0
LINE
  8
0
 10
230.508
 20
45.4618
 11
230.573
 21
45.2908
  0
LINE
  8
0
 10
230.573
 20
45.2908
 11
230.621
 21
45.1138
  0
LINE
  8
0
 10
230.621
 20
45.1138
 11
230.649
 21
44.9329
  0
LINE
  8
0
 10
230.649
 20
44.9329
 11
230.659
 21
44.75
  0
LINE
  8
0
 10
230.659
 20
44.75
 11
230.649
 21
44.5671
  0
LINE
  8
0
 10
230.649
 20
44.5671
 11
230.621
 21
44.3862
  0
LINE
  8
0
 10
230.621
 20
44.3862
 11
230.573
 21
44.2092
  0
LINE
  8
0
 10
230.573
 20
44.2092
 11
230.508
 21
44.0382
  0
LINE
  8
0
 10
230.508
 20
44.0382
 11
230.425
 21
43.875
  0
LINE
  8
0
 10
230.425
 20
43.875
 11
230.325
 21
43.7214
  0
LINE
  8
0
 10
230.325
 20
43.7214
 11
230.21
 21
43.579
  0
LINE
  8
0
 10
230.21
 20
43.579
 11
230.08
 21
43.4495
  0
LINE
  8
0
 10
230.08
 20
43.4495
 11
229.938
 21
43.3342
  0
LINE
  8
0
 10
229.938
 20
43.3342
 11
229.784
 21
43.2345
  0
LINE
  8
0
 10
229.784
 20
43.2345
 11
229.621
 21
43.1513
  0
LINE
  8
0
 10
229.621
 20
43.1513
 11
229.45
 21
43.0856
  0
LINE
  8
0
 10
229.45
 20
43.0856
 11
229.273
 21
43.0382
  0
LINE
  8
0
 10
229.273
 20
43.0382
 11
229.092
 21
43.0096
  0
LINE
  8
0
 10
229.092
 20
43.0096
 11
228.909
 21
43
  0
LINE
  8
0
 10
228.909
 20
43
 11
228.726
 21
43.0096
  0
LINE
  8
0
 10
81.0898
 20
43.0096
 11
80.9089
 21
43.0382
  0
LINE
  8
0
 10
80.9089
 20
43.0382
 11
80.7319
 21
43.0856
  0
LINE
  8
0
 10
80.7319
 20
43.0856
 11
80.5609
 21
43.1513
  0
LINE
  8
0
 10
80.5609
 20
43.1513
 11
80.3977
 21
43.2345
  0
LINE
  8
0
 10
80.3977
 20
43.2345
 11
80.2441
 21
43.3342
  0
LINE
  8
0
 10
80.2441
 20
43.3342
 11
80.1017
 21
43.4495
  0
LINE
  8
0
 10
80.1017
 20
43.4495
 11
79.9722
 21
43.579
  0
LINE
  8
0
 10
79.9722
 20
43.579
 11
79.8569
 21
43.7214
  0
LINE
  8
0
 10
79.8569
 20
43.7214
 11
79.7572
 21
43.875
  0
LINE
  8
0
 10
79.7572
 20
43.875
 11
79.674
 21
44.0382
  0
LINE
  8
0
 10
79.674
 20
44.0382
 11
79.6084
 21
44.2092
  0
LINE
  8
0
 10
79.6084
 20
44.2092
 11
79.561
 21
44.3862
  0
LINE
  8
0
 10
79.561
 20
44.3862
 11
79.5323
 21
44.5671
  0
LINE
  8
0
 10
79.5323
 20
44.5671
 11
79.5227
 21
44.75
  0
LINE
  8
0
 10
79.5227
 20
44.75
 11
79.5323
 21
44.9329
  0
LINE
  8
0
 10
79.5323
 20
44.9329
 11
79.561
 21
45.1138
  0
LINE
  8
0
 10
79.561
 20
45.1138
 11
79.6084
 21
45.2908
  0
LINE
  8
0
 10
79.6084
 20
45.2908
 11
79.674
 21
45.4618
  0
LINE
  8
0
 10
79.674
 20
45.4618
 11
79.7572
 21
45.625
  0
LINE
  8
0
 10
79.7572
 20
45.625
 11
79.8569
 21
45.7786
  0
LINE
  8
0
 10
79.8569
 20
45.7786
 11
79.9722
 21
45.921
  0
LINE
  8
0
 10
79.9722
 20
45.921
 11
80.1017
 21
46.0505
  0
LINE
  8
0
 10
80.1017
 20
46.0505
 11
80.2441
 21
46.1658
  0
LINE
  8
0
 10
80.2441
 20
46.1658
 11
80.3977
 21
46.2655
  0
LINE
  8
0
 10
80.3977
 20
46.2655
 11
80.5609
 21
46.3487
  0
LINE
  8
0
 10
80.5609
 20
46.3487
 11
80.7319
 21
46.4143
  0
LINE
  8
0
 10
80.7319
 20
46.4143
 11
80.9089
 21
46.4617
  0
LINE
  8
0
 10
80.9089
 20
46.4617
 11
81.0898
 21
46.4904
  0
LINE
  8
0
 10
81.0898
 20
46.4904
 11
81.2727
 21
46.5
  0
LINE
  8
0
 10
81.2727
 20
46.5
 11
81.4556
 21
46.4904
  0
LINE
  8
0
 10
81.4556
 20
46.4904
 11
81.6366
 21
46.4617
  0
LINE
  8
0
 10
81.6366
 20
46.4617
 11
81.8135
 21
46.4143
  0
LINE
  8
0
 10
81.8135
 20
46.4143
 11
81.9845
 21
46.3487
  0
LINE
  8
0
 10
81.9845
 20
46.3487
 11
82.1477
 21
46.2655
  0
LINE
  8
0
 10
82.1477
 20
46.2655
 11
82.3013
 21
46.1658
  0
LINE
  8
0
 10
82.3013
 20
46.1658
 11
82.4437
 21
46.0505
  0
LINE
  8
0
 10
82.4437
 20
46.0505
 11
82.5732
 21
45.921
  0
LINE
  8
0
 10
82.5732
 20
45.921
 11
82.6885
 21
45.7786
  0
LINE
  8
0
 10
82.6885
 20
45.7786
 11
82.7883
 21
45.625
  0
LINE
  8
0
 10
82.7883
 20
45.625
 11
82.8714
 21
45.4618
  0
LINE
  8
0
 10
82.8714
 20
45.4618
 11
82.9371
 21
45.2908
  0
LINE
  8
0
 10
82.9371
 20
45.2908
 11
82.9845
 21
45.1138
  0
LINE
  8
0
 10
82.9845
 20
45.1138
 11
83.0131
 21
44.9329
  0
LINE
  8
0
 10
83.0131
 20
44.9329
 11
83.0227
 21
44.75
  0
LINE
  8
0
 10
83.0227
 20
44.75
 11
83.0131
 21
44.5671
  0
LINE
  8
0
 10
83.0131
 20
44.5671
 11
82.9845
 21
44.3862
  0
LINE
  8
0
 10
82.9845
 20
44.3862
 11
82.9371
 21
44.2092
  0
LINE
  8
0
 10
82.9371
 20
44.2092
 11
82.8714
 21
44.0382
  0
LINE
  8
0
 10
82.8714
 20
44.0382
 11
82.7883
 21
43.875
  0
LINE
  8
0
 10
82.7883
 20
43.875
 11
82.6885
 21
43.7214
  0
LINE
  8
0
 10
82.6885
 20
43.7214
 11
82.5732
 21
43.579
  0
LINE
  8
0
 10
82.5732
 20
43.579
 11
82.4437
 21
43.4495
  0
LINE
  8
0
 10
82.4437
 20
43.4495
 11
82.3013
 21
43.3342
  0
LINE
  8
0
 10
82.3013
 20
43.3342
 11
82.1477
 21
43.2345
  0
LINE
  8
0
 10
82.1477
 20
43.2345
 11
81.9845
 21
43.1513
  0
LINE
  8
0
 10
81.9845
 20
43.1513
 11
81.8135
 21
43.0856
  0
LINE
  8
0
 10
81.8135
 20
43.0856
 11
81.6366
 21
43.0382
  0
LINE
  8
0
 10
81.6366
 20
43.0382
 11
81.4556
 21
43.0096
  0
LINE
  8
0
 10
81.4556
 20
43.0096
 11
81.2727
 21
43
  0
LINE
  8
0
 10
81.2727
 20
43
 11
81.0898
 21
43.0096
  0
LINE
  8
0
 10
207.635
 20
43.0096
 11
207.454
 21
43.0382
  0
LINE
  8
0
 10
207.454
 20
43.0382
 11
207.277
 21
43.0856
  0
LINE
  8
0
 10
207.277
 20
43.0856
 11
207.106
 21
43.1513
  0
LINE
  8
0
 10
207.106
 20
43.1513
 11
206.943
 21
43.2345
  0
LINE
  8
0
 10
206.943
 20
43.2345
 11
206.79
 21
43.3342
  0
LINE
  8
0
 10
206.79
 20
43.3342
 11
206.647
 21
43.4495
  0
LINE
  8
0
 10
206.647
 20
43.4495
 11
206.518
 21
43.579
  0
LINE
  8
0
 10
206.518
 20
43.579
 11
206.402
 21
43.7214
  0
LINE
  8
0
 10
206.402
 20
43.7214
 11
206.303
 21
43.875
  0
LINE
  8
0
 10
206.303
 20
43.875
 11
206.219
 21
44.0382
  0
LINE
  8
0
 10
206.219
 20
44.0382
 11
206.154
 21
44.2092
  0
LINE
  8
0
 10
206.154
 20
44.2092
 11
206.106
 21
44.3862
  0
LINE
  8
0
 10
206.106
 20
44.3862
 11
206.078
 21
44.5671
  0
LINE
  8
0
 10
206.078
 20
44.5671
 11
206.068
 21
44.75
  0
LINE
  8
0
 10
206.068
 20
44.75
 11
206.078
 21
44.9329
  0
LINE
  8
0
 10
206.078
 20
44.9329
 11
206.106
 21
45.1138
  0
LINE
  8
0
 10
206.106
 20
45.1138
 11
206.154
 21
45.2908
  0
LINE
  8
0
 10
206.154
 20
45.2908
 11
206.219
 21
45.4618
  0
LINE
  8
0
 10
206.219
 20
45.4618
 11
206.303
 21
45.625
  0
LINE
  8
0
 10
206.303
 20
45.625
 11
206.402
 21
45.7786
  0
LINE
  8
0
 10
206.402
 20
45.7786
 11
206.518
 21
45.921
  0
LINE
  8
0
 10
206.518
 20
45.921
 11
206.647
 21
46.0505
  0
LINE
  8
0
 10
206.647
 20
46.0505
 11
206.79
 21
46.1658
  0
LINE
  8
0
 10
206.79
 20
46.1658
 11
206.943
 21
46.2655
  0
LINE
  8
0
 10
206.943
 20
46.2655
 11
207.106
 21
46.3487
  0
LINE
  8
0
 10
207.106
 20
46.3487
 11
207.277
 21
46.4143
  0
LINE
  8
0
 10
207.277
 20
46.4143
 11
207.454
 21
46.4617
  0
LINE
  8
0
 10
207.454
 20
46.4617
 11
207.635
 21
46.4904
  0
LINE
  8
0
 10
207.635
 20
46.4904
 11
207.818
 21
46.5
  0
LINE
  8
0
 10
207.818
 20
46.5
 11
208.001
 21
46.4904
  0
LINE
  8
0
 10
208.001
 20
46.4904
 11
208.182
 21
46.4617
  0
LINE
  8
0
 10
208.182
 20
46.4617
 11
208.359
 21
46.4143
  0
LINE
  8
0
 10
208.359
 20
46.4143
 11
208.53
 21
46.3487
  0
LINE
  8
0
 10
208.53
 20
46.3487
 11
208.693
 21
46.2655
  0
LINE
  8
0
 10
208.693
 20
46.2655
 11
208.847
 21
46.1658
  0
LINE
  8
0
 10
208.847
 20
46.1658
 11
208.989
 21
46.0505
  0
LINE
  8
0
 10
208.989
 20
46.0505
 11
209.119
 21
45.921
  0
LINE
  8
0
 10
209.119
 20
45.921
 11
209.234
 21
45.7786
  0
LINE
  8
0
 10
209.234
 20
45.7786
 11
209.334
 21
45.625
  0
LINE
  8
0
 10
209.334
 20
45.625
 11
209.417
 21
45.4618
  0
LINE
  8
0
 10
209.417
 20
45.4618
 11
209.483
 21
45.2908
  0
LINE
  8
0
 10
209.483
 20
45.2908
 11
209.53
 21
45.1138
  0
LINE
  8
0
 10
209.53
 20
45.1138
 11
209.559
 21
44.9329
  0
LINE
  8
0
 10
209.559
 20
44.9329
 11
209.568
 21
44.75
  0
LINE
  8
0
 10
209.568
 20
44.75
 11
209.559
 21
44.5671
  0
LINE
  8
0
 10
209.559
 20
44.5671
 11
209.53
 21
44.3862
  0
LINE
  8
0
 10
209.53
 20
44.3862
 11
209.483
 21
44.2092
  0
LINE
  8
0
 10
209.483
 20
44.2092
 11
209.417
 21
44.0382
  0
LINE
  8
0
 10
209.417
 20
44.0382
 11
209.334
 21
43.875
  0
LINE
  8
0
 10
209.334
 20
43.875
 11
209.234
 21
43.7214
  0
LINE
  8
0
 10
209.234
 20
43.7214
 11
209.119
 21
43.579
  0
LINE
  8
0
 10
209.119
 20
43.579
 11
208.989
 21
43.4495
  0
LINE
  8
0
 10
208.989
 20
43.4495
 11
208.847
 21
43.3342
  0
LINE
  8
0
 10
208.847
 20
43.3342
 11
208.693
 21
43.2345
  0
LINE
  8
0
 10
208.693
 20
43.2345
 11
208.53
 21
43.1513
  0
LINE
  8
0
 10
208.53
 20
43.1513
 11
208.359
 21
43.0856
  0
LINE
  8
0
 10
208.359
 20
43.0856
 11
208.182
 21
43.0382
  0
LINE
  8
0
 10
208.182
 20
43.0382
 11
208.001
 21
43.0096
  0
LINE
  8
0
 10
208.001
 20
43.0096
 11
207.818
 21
43
  0
LINE
  8
0
 10
207.818
 20
43
 11
207.635
 21
43.0096
  0
LINE
  8
0
 10
123.272
 20
43.0096
 11
123.091
 21
43.0382
  0
LINE
  8
0
 10
123.091
 20
43.0382
 11
122.914
 21
43.0856
  0
LINE
  8
0
 10
122.914
 20
43.0856
 11
122.743
 21
43.1513
  0
LINE
  8
0
 10
122.743
 20
43.1513
 11
122.58
 21
43.2345
  0
LINE
  8
0
 10
122.58
 20
43.2345
 11
122.426
 21
43.3342
  0
LINE
  8
0
 10
122.426
 20
43.3342
 11
122.284
 21
43.4495
  0
LINE
  8
0
 10
122.284
 20
43.4495
 11
122.154
 21
43.579
  0
LINE
  8
0
 10
122.154
 20
43.579
 11
122.039
 21
43.7214
  0
LINE
  8
0
 10
122.039
 20
43.7214
 11
121.939
 21
43.875
  0
LINE
  8
0
 10
121.939
 20
43.875
 11
121.856
 21
44.0382
  0
LINE
  8
0
 10
121.856
 20
44.0382
 11
121.79
 21
44.2092
  0
LINE
  8
0
 10
121.79
 20
44.2092
 11
121.743
 21
44.3862
  0
LINE
  8
0
 10
121.743
 20
44.3862
 11
121.714
 21
44.5671
  0
LINE
  8
0
 10
121.714
 20
44.5671
 11
121.705
 21
44.75
  0
LINE
  8
0
 10
121.705
 20
44.75
 11
121.714
 21
44.9329
  0
LINE
  8
0
 10
121.714
 20
44.9329
 11
121.743
 21
45.1138
  0
LINE
  8
0
 10
121.743
 20
45.1138
 11
121.79
 21
45.2908
  0
LINE
  8
0
 10
121.79
 20
45.2908
 11
121.856
 21
45.4618
  0
LINE
  8
0
 10
121.856
 20
45.4618
 11
121.939
 21
45.625
  0
LINE
  8
0
 10
121.939
 20
45.625
 11
122.039
 21
45.7786
  0
LINE
  8
0
 10
122.039
 20
45.7786
 11
122.154
 21
45.921
  0
LINE
  8
0
 10
122.154
 20
45.921
 11
122.284
 21
46.0505
  0
LINE
  8
0
 10
122.284
 20
46.0505
 11
122.426
 21
46.1658
  0
LINE
  8
0
 10
122.426
 20
46.1658
 11
122.58
 21
46.2655
  0
LINE
  8
0
 10
122.58
 20
46.2655
 11
122.743
 21
46.3487
  0
LINE
  8
0
 10
122.743
 20
46.3487
 11
122.914
 21
46.4143
  0
LINE
  8
0
 10
122.914
 20
46.4143
 11
123.091
 21
46.4617
  0
LINE
  8
0
 10
123.091
 20
46.4617
 11
123.272
 21
46.4904
  0
LINE
  8
0
 10
123.272
 20
46.4904
 11
123.455
 21
46.5
  0
LINE
  8
0
 10
123.455
 20
46.5
 11
123.637
 21
46.4904
  0
LINE
  8
0
 10
123.637
 20
46.4904
 11
123.818
 21
46.4617
  0
LINE
  8
0
 10
123.818
 20
46.4617
 11
123.995
 21
46.4143
  0
LINE
  8
0
 10
123.995
 20
46.4143
 11
124.166
 21
46.3487
  0
LINE
  8
0
 10
124.166
 20
46.3487
 11
124.33
 21
46.2655
  0
LINE
  8
0
 10
124.33
 20
46.2655
 11
124.483
 21
46.1658
  0
LINE
  8
0
 10
124.483
 20
46.1658
 11
124.626
 21
46.0505
  0
LINE
  8
0
 10
124.626
 20
46.0505
 11
124.755
 21
45.921
  0
LINE
  8
0
 10
124.755
 20
45.921
 11
124.87
 21
45.7786
  0
LINE
  8
0
 10
124.87
 20
45.7786
 11
124.97
 21
45.625
  0
LINE
  8
0
 10
124.97
 20
45.625
 11
125.053
 21
45.4618
  0
LINE
  8
0
 10
125.053
 20
45.4618
 11
125.119
 21
45.2908
  0
LINE
  8
0
 10
125.119
 20
45.2908
 11
125.166
 21
45.1138
  0
LINE
  8
0
 10
125.166
 20
45.1138
 11
125.195
 21
44.9329
  0
LINE
  8
0
 10
125.195
 20
44.9329
 11
125.205
 21
44.75
  0
LINE
  8
0
 10
125.205
 20
44.75
 11
125.195
 21
44.5671
  0
LINE
  8
0
 10
125.195
 20
44.5671
 11
125.166
 21
44.3862
  0
LINE
  8
0
 10
125.166
 20
44.3862
 11
125.119
 21
44.2092
  0
LINE
  8
0
 10
125.119
 20
44.2092
 11
125.053
 21
44.0382
  0
LINE
  8
0
 10
125.053
 20
44.0382
 11
124.97
 21
43.875
  0
LINE
  8
0
 10
124.97
 20
43.875
 11
124.87
 21
43.7214
  0
LINE
  8
0
 10
124.87
 20
43.7214
 11
124.755
 21
43.579
  0
LINE
  8
0
 10
124.755
 20
43.579
 11
124.626
 21
43.4495
  0
LINE
  8
0
 10
124.626
 20
43.4495
 11
124.483
 21
43.3342
  0
LINE
  8
0
 10
124.483
 20
43.3342
 11
124.33
 21
43.2345
  0
LINE
  8
0
 10
124.33
 20
43.2345
 11
124.166
 21
43.1513
  0
LINE
  8
0
 10
124.166
 20
43.1513
 11
123.995
 21
43.0856
  0
LINE
  8
0
 10
123.995
 20
43.0856
 11
123.818
 21
43.0382
  0
LINE
  8
0
 10
123.818
 20
43.0382
 11
123.637
 21
43.0096
  0
LINE
  8
0
 10
123.637
 20
43.0096
 11
123.455
 21
43
  0
LINE
  8
0
 10
123.455
 20
43
 11
123.272
 21
43.0096
  0
LINE
  8
0
 10
186.544
 20
43.0096
 11
186.363
 21
43.0382
  0
LINE
  8
0
 10
186.363
 20
43.0382
 11
186.186
 21
43.0856
  0
LINE
  8
0
 10
186.186
 20
43.0856
 11
186.015
 21
43.1513
  0
LINE
  8
0
 10
186.015
 20
43.1513
 11
185.852
 21
43.2345
  0
LINE
  8
0
 10
185.852
 20
43.2345
 11
185.699
 21
43.3342
  0
LINE
  8
0
 10
185.699
 20
43.3342
 11
185.556
 21
43.4495
  0
LINE
  8
0
 10
185.556
 20
43.4495
 11
185.427
 21
43.579
  0
LINE
  8
0
 10
185.427
 20
43.579
 11
185.311
 21
43.7214
  0
LINE
  8
0
 10
185.311
 20
43.7214
 11
185.212
 21
43.875
  0
LINE
  8
0
 10
185.212
 20
43.875
 11
185.129
 21
44.0382
  0
LINE
  8
0
 10
185.129
 20
44.0382
 11
185.063
 21
44.2092
  0
LINE
  8
0
 10
185.063
 20
44.2092
 11
185.016
 21
44.3862
  0
LINE
  8
0
 10
185.016
 20
44.3862
 11
184.987
 21
44.5671
  0
LINE
  8
0
 10
184.987
 20
44.5671
 11
184.977
 21
44.75
  0
LINE
  8
0
 10
184.977
 20
44.75
 11
184.987
 21
44.9329
  0
LINE
  8
0
 10
184.987
 20
44.9329
 11
185.016
 21
45.1138
  0
LINE
  8
0
 10
185.016
 20
45.1138
 11
185.063
 21
45.2908
  0
LINE
  8
0
 10
185.063
 20
45.2908
 11
185.129
 21
45.4618
  0
LINE
  8
0
 10
185.129
 20
45.4618
 11
185.212
 21
45.625
  0
LINE
  8
0
 10
185.212
 20
45.625
 11
185.311
 21
45.7786
  0
LINE
  8
0
 10
185.311
 20
45.7786
 11
185.427
 21
45.921
  0
LINE
  8
0
 10
185.427
 20
45.921
 11
185.556
 21
46.0505
  0
LINE
  8
0
 10
185.556
 20
46.0505
 11
185.699
 21
46.1658
  0
LINE
  8
0
 10
185.699
 20
46.1658
 11
185.852
 21
46.2655
  0
LINE
  8
0
 10
185.852
 20
46.2655
 11
186.015
 21
46.3487
  0
LINE
  8
0
 10
186.015
 20
46.3487
 11
186.186
 21
46.4143
  0
LINE
  8
0
 10
186.186
 20
46.4143
 11
186.363
 21
46.4617
  0
LINE
  8
0
 10
186.363
 20
46.4617
 11
186.544
 21
46.4904
  0
LINE
  8
0
 10
186.544
 20
46.4904
 11
186.727
 21
46.5
  0
LINE
  8
0
 10
186.727
 20
46.5
 11
186.91
 21
46.4904
  0
LINE
  8
0
 10
186.91
 20
46.4904
 11
187.091
 21
46.4617
  0
LINE
  8
0
 10
187.091
 20
46.4617
 11
187.268
 21
46.4143
  0
LINE
  8
0
 10
187.268
 20
46.4143
 11
187.439
 21
46.3487
  0
LINE
  8
0
 10
187.439
 20
46.3487
 11
187.602
 21
46.2655
  0
LINE
  8
0
 10
187.602
 20
46.2655
 11
187.756
 21
46.1658
  0
LINE
  8
0
 10
187.756
 20
46.1658
 11
187.898
 21
46.0505
  0
LINE
  8
0
 10
187.898
 20
46.0505
 11
188.028
 21
45.921
  0
LINE
  8
0
 10
188.028
 20
45.921
 11
188.143
 21
45.7786
  0
LINE
  8
0
 10
188.143
 20
45.7786
 11
188.243
 21
45.625
  0
LINE
  8
0
 10
188.243
 20
45.625
 11
188.326
 21
45.4618
  0
LINE
  8
0
 10
188.326
 20
45.4618
 11
188.392
 21
45.2908
  0
LINE
  8
0
 10
188.392
 20
45.2908
 11
188.439
 21
45.1138
  0
LINE
  8
0
 10
188.439
 20
45.1138
 11
188.468
 21
44.9329
  0
LINE
  8
0
 10
188.468
 20
44.9329
 11
188.477
 21
44.75
  0
LINE
  8
0
 10
188.477
 20
44.75
 11
188.468
 21
44.5671
  0
LINE
  8
0
 10
188.468
 20
44.5671
 11
188.439
 21
44.3862
  0
LINE
  8
0
 10
188.439
 20
44.3862
 11
188.392
 21
44.2092
  0
LINE
  8
0
 10
188.392
 20
44.2092
 11
188.326
 21
44.0382
  0
LINE
  8
0
 10
188.326
 20
44.0382
 11
188.243
 21
43.875
  0
LINE
  8
0
 10
188.243
 20
43.875
 11
188.143
 21
43.7214
  0
LINE
  8
0
 10
188.143
 20
43.7214
 11
188.028
 21
43.579
  0
LINE
  8
0
 10
188.028
 20
43.579
 11
187.898
 21
43.4495
  0
LINE
  8
0
 10
187.898
 20
43.4495
 11
187.756
 21
43.3342
  0
LINE
  8
0
 10
187.756
 20
43.3342
 11
187.602
 21
43.2345
  0
LINE
  8
0
 10
187.602
 20
43.2345
 11
187.439
 21
43.1513
  0
LINE
  8
0
 10
187.439
 20
43.1513
 11
187.268
 21
43.0856
  0
LINE
  8
0
 10
187.268
 20
43.0856
 11
187.091
 21
43.0382
  0
LINE
  8
0
 10
187.091
 20
43.0382
 11
186.91
 21
43.0096
  0
LINE
  8
0
 10
186.91
 20
43.0096
 11
186.727
 21
43
  0
LINE
  8
0
 10
186.727
 20
43
 11
186.544
 21
43.0096
  0
LINE
  8
0
 10
165.453
 20
43.0096
 11
165.273
 21
43.0382
  0
LINE
  8
0
 10
165.273
 20
43.0382
 11
165.096
 21
43.0856
  0
LINE
  8
0
 10
165.096
 20
43.0856
 11
164.925
 21
43.1513
  0
LINE
  8
0
 10
164.925
 20
43.1513
 11
164.761
 21
43.2345
  0
LINE
  8
0
 10
164.761
 20
43.2345
 11
164.608
 21
43.3342
  0
LINE
  8
0
 10
164.608
 20
43.3342
 11
164.465
 21
43.4495
  0
LINE
  8
0
 10
164.465
 20
43.4495
 11
164.336
 21
43.579
  0
LINE
  8
0
 10
164.336
 20
43.579
 11
164.221
 21
43.7214
  0
LINE
  8
0
 10
164.221
 20
43.7214
 11
164.121
 21
43.875
  0
LINE
  8
0
 10
164.121
 20
43.875
 11
164.038
 21
44.0382
  0
LINE
  8
0
 10
164.038
 20
44.0382
 11
163.972
 21
44.2092
  0
LINE
  8
0
 10
163.972
 20
44.2092
 11
163.925
 21
44.3862
  0
LINE
  8
0
 10
163.925
 20
44.3862
 11
163.896
 21
44.5671
  0
LINE
  8
0
 10
163.896
 20
44.5671
 11
163.886
 21
44.75
  0
LINE
  8
0
 10
163.886
 20
44.75
 11
163.896
 21
44.9329
  0
LINE
  8
0
 10
163.896
 20
44.9329
 11
163.925
 21
45.1138
  0
LINE
  8
0
 10
163.925
 20
45.1138
 11
163.972
 21
45.2908
  0
LINE
  8
0
 10
163.972
 20
45.2908
 11
164.038
 21
45.4618
  0
LINE
  8
0
 10
164.038
 20
45.4618
 11
164.121
 21
45.625
  0
LINE
  8
0
 10
164.121
 20
45.625
 11
164.221
 21
45.7786
  0
LINE
  8
0
 10
164.221
 20
45.7786
 11
164.336
 21
45.921
  0
LINE
  8
0
 10
164.336
 20
45.921
 11
164.465
 21
46.0505
  0
LINE
  8
0
 10
164.465
 20
46.0505
 11
164.608
 21
46.1658
  0
LINE
  8
0
 10
164.608
 20
46.1658
 11
164.761
 21
46.2655
  0
LINE
  8
0
 10
164.761
 20
46.2655
 11
164.925
 21
46.3487
  0
LINE
  8
0
 10
164.925
 20
46.3487
 11
165.096
 21
46.4143
  0
LINE
  8
0
 10
165.096
 20
46.4143
 11
165.273
 21
46.4617
  0
LINE
  8
0
 10
165.273
 20
46.4617
 11
165.453
 21
46.4904
  0
LINE
  8
0
 10
165.453
 20
46.4904
 11
165.636
 21
46.5
  0
LINE
  8
0
 10
165.636
 20
46.5
 11
165.819
 21
46.4904
  0
LINE
  8
0
 10
165.819
 20
46.4904
 11
166
 21
46.4617
  0
LINE
  8
0
 10
166
 20
46.4617
 11
166.177
 21
46.4143
  0
LINE
  8
0
 10
166.177
 20
46.4143
 11
166.348
 21
46.3487
  0
LINE
  8
0
 10
166.348
 20
46.3487
 11
166.511
 21
46.2655
  0
LINE
  8
0
 10
166.511
 20
46.2655
 11
166.665
 21
46.1658
  0
LINE
  8
0
 10
166.665
 20
46.1658
 11
166.807
 21
46.0505
  0
LINE
  8
0
 10
166.807
 20
46.0505
 11
166.937
 21
45.921
  0
LINE
  8
0
 10
166.937
 20
45.921
 11
167.052
 21
45.7786
  0
LINE
  8
0
 10
167.052
 20
45.7786
 11
167.152
 21
45.625
  0
LINE
  8
0
 10
167.152
 20
45.625
 11
167.235
 21
45.4618
  0
LINE
  8
0
 10
167.235
 20
45.4618
 11
167.301
 21
45.2908
  0
LINE
  8
0
 10
167.301
 20
45.2908
 11
167.348
 21
45.1138
  0
LINE
  8
0
 10
167.348
 20
45.1138
 11
167.377
 21
44.9329
  0
LINE
  8
0
 10
167.377
 20
44.9329
 11
167.386
 21
44.75
  0
LINE
  8
0
 10
167.386
 20
44.75
 11
167.377
 21
44.5671
  0
LINE
  8
0
 10
167.377
 20
44.5671
 11
167.348
 21
44.3862
  0
LINE
  8
0
 10
167.348
 20
44.3862
 11
167.301
 21
44.2092
  0
LINE
  8
0
 10
167.301
 20
44.2092
 11
167.235
 21
44.0382
  0
LINE
  8
0
 10
167.235
 20
44.0382
 11
167.152
 21
43.875
  0
LINE
  8
0
 10
167.152
 20
43.875
 11
167.052
 21
43.7214
  0
LINE
  8
0
 10
167.052
 20
43.7214
 11
166.937
 21
43.579
  0
LINE
  8
0
 10
166.937
 20
43.579
 11
166.807
 21
43.4495
  0
LINE
  8
0
 10
166.807
 20
43.4495
 11
166.665
 21
43.3342
  0
LINE
  8
0
 10
166.665
 20
43.3342
 11
166.511
 21
43.2345
  0
LINE
  8
0
 10
166.511
 20
43.2345
 11
166.348
 21
43.1513
  0
LINE
  8
0
 10
166.348
 20
43.1513
 11
166.177
 21
43.0856
  0
LINE
  8
0
 10
166.177
 20
43.0856
 11
166
 21
43.0382
  0
LINE
  8
0
 10
166
 20
43.0382
 11
165.819
 21
43.0096
  0
LINE
  8
0
 10
165.819
 20
43.0096
 11
165.636
 21
43
  0
LINE
  8
0
 10
165.636
 20
43
 11
165.453
 21
43.0096
  0
LINE
  8
0
 10
418.544
 20
43.0096
 11
418.363
 21
43.0382
  0
LINE
  8
0
 10
418.363
 20
43.0382
 11
418.186
 21
43.0856
  0
LINE
  8
0
 10
418.186
 20
43.0856
 11
418.015
 21
43.1513
  0
LINE
  8
0
 10
418.015
 20
43.1513
 11
417.852
 21
43.2345
  0
LINE
  8
0
 10
417.852
 20
43.2345
 11
417.699
 21
43.3342
  0
LINE
  8
0
 10
417.699
 20
43.3342
 11
417.556
 21
43.4495
  0
LINE
  8
0
 10
417.556
 20
43.4495
 11
417.427
 21
43.579
  0
LINE
  8
0
 10
417.427
 20
43.579
 11
417.311
 21
43.7214
  0
LINE
  8
0
 10
417.311
 20
43.7214
 11
417.212
 21
43.875
  0
LINE
  8
0
 10
417.212
 20
43.875
 11
417.129
 21
44.0382
  0
LINE
  8
0
 10
417.129
 20
44.0382
 11
417.063
 21
44.2092
  0
LINE
  8
0
 10
417.063
 20
44.2092
 11
417.016
 21
44.3862
  0
LINE
  8
0
 10
417.016
 20
44.3862
 11
416.987
 21
44.5671
  0
LINE
  8
0
 10
416.987
 20
44.5671
 11
416.977
 21
44.75
  0
LINE
  8
0
 10
416.977
 20
44.75
 11
416.987
 21
44.9329
  0
LINE
  8
0
 10
416.987
 20
44.9329
 11
417.016
 21
45.1138
  0
LINE
  8
0
 10
417.016
 20
45.1138
 11
417.063
 21
45.2908
  0
LINE
  8
0
 10
417.063
 20
45.2908
 11
417.129
 21
45.4618
  0
LINE
  8
0
 10
417.129
 20
45.4618
 11
417.212
 21
45.625
  0
LINE
  8
0
 10
417.212
 20
45.625
 11
417.311
 21
45.7786
  0
LINE
  8
0
 10
417.311
 20
45.7786
 11
417.427
 21
45.921
  0
LINE
  8
0
 10
417.427
 20
45.921
 11
417.556
 21
46.0505
  0
LINE
  8
0
 10
417.556
 20
46.0505
 11
417.699
 21
46.1658
  0
LINE
  8
0
 10
417.699
 20
46.1658
 11
417.852
 21
46.2655
  0
LINE
  8
0
 10
417.852
 20
46.2655
 11
418.015
 21
46.3487
  0
LINE
  8
0
 10
418.015
 20
46.3487
 11
418.186
 21
46.4143
  0
LINE
  8
0
 10
418.186
 20
46.4143
 11
418.363
 21
46.4617
  0
LINE
  8
0
 10
418.363
 20
46.4617
 11
418.544
 21
46.4904
  0
LINE
  8
0
 10
418.544
 20
46.4904
 11
418.727
 21
46.5
  0
LINE
  8
0
 10
418.727
 20
46.5
 11
418.91
 21
46.4904
  0
LINE
  8
0
 10
418.91
 20
46.4904
 11
419.091
 21
46.4617
  0
LINE
  8
0
 10
419.091
 20
46.4617
 11
419.268
 21
46.4143
  0
LINE
  8
0
 10
419.268
 20
46.4143
 11
419.439
 21
46.3487
  0
LINE
  8
0
 10
419.439
 20
46.3487
 11
419.602
 21
46.2655
  0
LINE
  8
0
 10
419.602
 20
46.2655
 11
419.756
 21
46.1658
  0
LINE
  8
0
 10
419.756
 20
46.1658
 11
419.898
 21
46.0505
  0
LINE
  8
0
 10
419.898
 20
46.0505
 11
420.028
 21
45.921
  0
LINE
  8
0
 10
420.028
 20
45.921
 11
420.143
 21
45.7786
  0
LINE
  8
0
 10
420.143
 20
45.7786
 11
420.243
 21
45.625
  0
LINE
  8
0
 10
420.243
 20
45.625
 11
420.326
 21
45.4618
  0
LINE
  8
0
 10
420.326
 20
45.4618
 11
420.392
 21
45.2908
  0
LINE
  8
0
 10
420.392
 20
45.2908
 11
420.439
 21
45.1138
  0
LINE
  8
0
 10
420.439
 20
45.1138
 11
420.468
 21
44.9329
  0
LINE
  8
0
 10
420.468
 20
44.9329
 11
420.477
 21
44.75
  0
LINE
  8
0
 10
420.477
 20
44.75
 11
420.468
 21
44.5671
  0
LINE
  8
0
 10
420.468
 20
44.5671
 11
420.439
 21
44.3862
  0
LINE
  8
0
 10
420.439
 20
44.3862
 11
420.392
 21
44.2092
  0
LINE
  8
0
 10
420.392
 20
44.2092
 11
420.326
 21
44.0382
  0
LINE
  8
0
 10
420.326
 20
44.0382
 11
420.243
 21
43.875
  0
LINE
  8
0
 10
420.243
 20
43.875
 11
420.143
 21
43.7214
  0
LINE
  8
0
 10
420.143
 20
43.7214
 11
420.028
 21
43.579
  0
LINE
  8
0
 10
420.028
 20
43.579
 11
419.898
 21
43.4495
  0
LINE
  8
0
 10
419.898
 20
43.4495
 11
419.756
 21
43.3342
  0
LINE
  8
0
 10
419.756
 20
43.3342
 11
419.602
 21
43.2345
  0
LINE
  8
0
 10
419.602
 20
43.2345
 11
419.439
 21
43.1513
  0
LINE
  8
0
 10
419.439
 20
43.1513
 11
419.268
 21
43.0856
  0
LINE
  8
0
 10
419.268
 20
43.0856
 11
419.091
 21
43.0382
  0
LINE
  8
0
 10
419.091
 20
43.0382
 11
418.91
 21
43.0096
  0
LINE
  8
0
 10
418.91
 20
43.0096
 11
418.727
 21
43
  0
LINE
  8
0
 10
418.727
 20
43
 11
418.544
 21
43.0096
  0
LINE
  8
0
 10
460.726
 20
43.0096
 11
460.545
 21
43.0382
  0
LINE
  8
0
 10
460.545
 20
43.0382
 11
460.368
 21
43.0856
  0
LINE
  8
0
 10
460.368
 20
43.0856
 11
460.197
 21
43.1513
  0
LINE
  8
0
 10
460.197
 20
43.1513
 11
460.034
 21
43.2345
  0
LINE
  8
0
 10
460.034
 20
43.2345
 11
459.88
 21
43.3342
  0
LINE
  8
0
 10
459.88
 20
43.3342
 11
459.738
 21
43.4495
  0
LINE
  8
0
 10
459.738
 20
43.4495
 11
459.609
 21
43.579
  0
LINE
  8
0
 10
459.609
 20
43.579
 11
459.493
 21
43.7214
  0
LINE
  8
0
 10
459.493
 20
43.7214
 11
459.394
 21
43.875
  0
LINE
  8
0
 10
459.394
 20
43.875
 11
459.31
 21
44.0382
  0
LINE
  8
0
 10
459.31
 20
44.0382
 11
459.245
 21
44.2092
  0
LINE
  8
0
 10
459.245
 20
44.2092
 11
459.197
 21
44.3862
  0
LINE
  8
0
 10
459.197
 20
44.3862
 11
459.169
 21
44.5671
  0
LINE
  8
0
 10
459.169
 20
44.5671
 11
459.159
 21
44.75
  0
LINE
  8
0
 10
459.159
 20
44.75
 11
459.169
 21
44.9329
  0
LINE
  8
0
 10
459.169
 20
44.9329
 11
459.197
 21
45.1138
  0
LINE
  8
0
 10
459.197
 20
45.1138
 11
459.245
 21
45.2908
  0
LINE
  8
0
 10
459.245
 20
45.2908
 11
459.31
 21
45.4618
  0
LINE
  8
0
 10
459.31
 20
45.4618
 11
459.394
 21
45.625
  0
LINE
  8
0
 10
459.394
 20
45.625
 11
459.493
 21
45.7786
  0
LINE
  8
0
 10
459.493
 20
45.7786
 11
459.609
 21
45.921
  0
LINE
  8
0
 10
459.609
 20
45.921
 11
459.738
 21
46.0505
  0
LINE
  8
0
 10
459.738
 20
46.0505
 11
459.88
 21
46.1658
  0
LINE
  8
0
 10
459.88
 20
46.1658
 11
460.034
 21
46.2655
  0
LINE
  8
0
 10
460.034
 20
46.2655
 11
460.197
 21
46.3487
  0
LINE
  8
0
 10
460.197
 20
46.3487
 11
460.368
 21
46.4143
  0
LINE
  8
0
 10
460.368
 20
46.4143
 11
460.545
 21
46.4617
  0
LINE
  8
0
 10
460.545
 20
46.4617
 11
460.726
 21
46.4904
  0
LINE
  8
0
 10
460.726
 20
46.4904
 11
460.909
 21
46.5
  0
LINE
  8
0
 10
460.909
 20
46.5
 11
461.092
 21
46.4904
  0
LINE
  8
0
 10
461.092
 20
46.4904
 11
461.273
 21
46.4617
  0
LINE
  8
0
 10
461.273
 20
46.4617
 11
461.45
 21
46.4143
  0
LINE
  8
0
 10
461.45
 20
46.4143
 11
461.621
 21
46.3487
  0
LINE
  8
0
 10
461.621
 20
46.3487
 11
461.784
 21
46.2655
  0
LINE
  8
0
 10
461.784
 20
46.2655
 11
461.938
 21
46.1658
  0
LINE
  8
0
 10
461.938
 20
46.1658
 11
462.08
 21
46.0505
  0
LINE
  8
0
 10
462.08
 20
46.0505
 11
462.21
 21
45.921
  0
LINE
  8
0
 10
462.21
 20
45.921
 11
462.325
 21
45.7786
  0
LINE
  8
0
 10
462.325
 20
45.7786
 11
462.425
 21
45.625
  0
LINE
  8
0
 10
462.425
 20
45.625
 11
462.508
 21
45.4618
  0
LINE
  8
0
 10
462.508
 20
45.4618
 11
462.573
 21
45.2908
  0
LINE
  8
0
 10
462.573
 20
45.2908
 11
462.621
 21
45.1138
  0
LINE
  8
0
 10
462.621
 20
45.1138
 11
462.649
 21
44.9329
  0
LINE
  8
0
 10
462.649
 20
44.9329
 11
462.659
 21
44.75
  0
LINE
  8
0
 10
462.659
 20
44.75
 11
462.649
 21
44.5671
  0
LINE
  8
0
 10
462.649
 20
44.5671
 11
462.621
 21
44.3862
  0
LINE
  8
0
 10
462.621
 20
44.3862
 11
462.573
 21
44.2092
  0
LINE
  8
0
 10
462.573
 20
44.2092
 11
462.508
 21
44.0382
  0
LINE
  8
0
 10
462.508
 20
44.0382
 11
462.425
 21
43.875
  0
LINE
  8
0
 10
462.425
 20
43.875
 11
462.325
 21
43.7214
  0
LINE
  8
0
 10
462.325
 20
43.7214
 11
462.21
 21
43.579
  0
LINE
  8
0
 10
462.21
 20
43.579
 11
462.08
 21
43.4495
  0
LINE
  8
0
 10
462.08
 20
43.4495
 11
461.938
 21
43.3342
  0
LINE
  8
0
 10
461.938
 20
43.3342
 11
461.784
 21
43.2345
  0
LINE
  8
0
 10
461.784
 20
43.2345
 11
461.621
 21
43.1513
  0
LINE
  8
0
 10
461.621
 20
43.1513
 11
461.45
 21
43.0856
  0
LINE
  8
0
 10
461.45
 20
43.0856
 11
461.273
 21
43.0382
  0
LINE
  8
0
 10
461.273
 20
43.0382
 11
461.092
 21
43.0096
  0
LINE
  8
0
 10
461.092
 20
43.0096
 11
460.909
 21
43
  0
LINE
  8
0
 10
460.909
 20
43
 11
460.726
 21
43.0096
  0
LINE
  8
0
 10
313.09
 20
43.0096
 11
312.909
 21
43.0382
  0
LINE
  8
0
 10
312.909
 20
43.0382
 11
312.732
 21
43.0856
  0
LINE
  8
0
 10
312.732
 20
43.0856
 11
312.561
 21
43.1513
  0
LINE
  8
0
 10
312.561
 20
43.1513
 11
312.398
 21
43.2345
  0
LINE
  8
0
 10
312.398
 20
43.2345
 11
312.244
 21
43.3342
  0
LINE
  8
0
 10
312.244
 20
43.3342
 11
312.102
 21
43.4495
  0
LINE
  8
0
 10
312.102
 20
43.4495
 11
311.972
 21
43.579
  0
LINE
  8
0
 10
311.972
 20
43.579
 11
311.857
 21
43.7214
  0
LINE
  8
0
 10
311.857
 20
43.7214
 11
311.757
 21
43.875
  0
LINE
  8
0
 10
311.757
 20
43.875
 11
311.674
 21
44.0382
  0
LINE
  8
0
 10
311.674
 20
44.0382
 11
311.608
 21
44.2092
  0
LINE
  8
0
 10
311.608
 20
44.2092
 11
311.561
 21
44.3862
  0
LINE
  8
0
 10
311.561
 20
44.3862
 11
311.532
 21
44.5671
  0
LINE
  8
0
 10
311.532
 20
44.5671
 11
311.523
 21
44.75
  0
LINE
  8
0
 10
311.523
 20
44.75
 11
311.532
 21
44.9329
  0
LINE
  8
0
 10
311.532
 20
44.9329
 11
311.561
 21
45.1138
  0
LINE
  8
0
 10
311.561
 20
45.1138
 11
311.608
 21
45.2908
  0
LINE
  8
0
 10
311.608
 20
45.2908
 11
311.674
 21
45.4618
  0
LINE
  8
0
 10
311.674
 20
45.4618
 11
311.757
 21
45.625
  0
LINE
  8
0
 10
311.757
 20
45.625
 11
311.857
 21
45.7786
  0
LINE
  8
0
 10
311.857
 20
45.7786
 11
311.972
 21
45.921
  0
LINE
  8
0
 10
311.972
 20
45.921
 11
312.102
 21
46.0505
  0
LINE
  8
0
 10
312.102
 20
46.0505
 11
312.244
 21
46.1658
  0
LINE
  8
0
 10
312.244
 20
46.1658
 11
312.398
 21
46.2655
  0
LINE
  8
0
 10
312.398
 20
46.2655
 11
312.561
 21
46.3487
  0
LINE
  8
0
 10
312.561
 20
46.3487
 11
312.732
 21
46.4143
  0
LINE
  8
0
 10
312.732
 20
46.4143
 11
312.909
 21
46.4617
  0
LINE
  8
0
 10
312.909
 20
46.4617
 11
313.09
 21
46.4904
  0
LINE
  8
0
 10
313.09
 20
46.4904
 11
313.273
 21
46.5
  0
LINE
  8
0
 10
313.273
 20
46.5
 11
313.456
 21
46.4904
  0
LINE
  8
0
 10
313.456
 20
46.4904
 11
313.637
 21
46.4617
  0
LINE
  8
0
 10
313.637
 20
46.4617
 11
313.813
 21
46.4143
  0
LINE
  8
0
 10
313.813
 20
46.4143
 11
313.984
 21
46.3487
  0
LINE
  8
0
 10
313.984
 20
46.3487
 11
314.148
 21
46.2655
  0
LINE
  8
0
 10
314.148
 20
46.2655
 11
314.301
 21
46.1658
  0
LINE
  8
0
 10
314.301
 20
46.1658
 11
314.444
 21
46.0505
  0
LINE
  8
0
 10
314.444
 20
46.0505
 11
314.573
 21
45.921
  0
LINE
  8
0
 10
314.573
 20
45.921
 11
314.688
 21
45.7786
  0
LINE
  8
0
 10
314.688
 20
45.7786
 11
314.788
 21
45.625
  0
LINE
  8
0
 10
314.788
 20
45.625
 11
314.871
 21
45.4618
  0
LINE
  8
0
 10
314.871
 20
45.4618
 11
314.937
 21
45.2908
  0
LINE
  8
0
 10
314.937
 20
45.2908
 11
314.984
 21
45.1138
  0
LINE
  8
0
 10
314.984
 20
45.1138
 11
315.013
 21
44.9329
  0
LINE
  8
0
 10
315.013
 20
44.9329
 11
315.023
 21
44.75
  0
LINE
  8
0
 10
315.023
 20
44.75
 11
315.013
 21
44.5671
  0
LINE
  8
0
 10
315.013
 20
44.5671
 11
314.984
 21
44.3862
  0
LINE
  8
0
 10
314.984
 20
44.3862
 11
314.937
 21
44.2092
  0
LINE
  8
0
 10
314.937
 20
44.2092
 11
314.871
 21
44.0382
  0
LINE
  8
0
 10
314.871
 20
44.0382
 11
314.788
 21
43.875
  0
LINE
  8
0
 10
314.788
 20
43.875
 11
314.688
 21
43.7214
  0
LINE
  8
0
 10
314.688
 20
43.7214
 11
314.573
 21
43.579
  0
LINE
  8
0
 10
314.573
 20
43.579
 11
314.444
 21
43.4495
  0
LINE
  8
0
 10
314.444
 20
43.4495
 11
314.301
 21
43.3342
  0
LINE
  8
0
 10
314.301
 20
43.3342
 11
314.148
 21
43.2345
  0
LINE
  8
0
 10
314.148
 20
43.2345
 11
313.984
 21
43.1513
  0
LINE
  8
0
 10
313.984
 20
43.1513
 11
313.813
 21
43.0856
  0
LINE
  8
0
 10
313.813
 20
43.0856
 11
313.637
 21
43.0382
  0
LINE
  8
0
 10
313.637
 20
43.0382
 11
313.456
 21
43.0096
  0
LINE
  8
0
 10
313.456
 20
43.0096
 11
313.273
 21
43
  0
LINE
  8
0
 10
313.273
 20
43
 11
313.09
 21
43.0096
  0
LINE
  8
0
 10
439.635
 20
43.0096
 11
439.454
 21
43.0382
  0
LINE
  8
0
 10
439.454
 20
43.0382
 11
439.277
 21
43.0856
  0
LINE
  8
0
 10
439.277
 20
43.0856
 11
439.106
 21
43.1513
  0
LINE
  8
0
 10
439.106
 20
43.1513
 11
438.943
 21
43.2345
  0
LINE
  8
0
 10
438.943
 20
43.2345
 11
438.79
 21
43.3342
  0
LINE
  8
0
 10
438.79
 20
43.3342
 11
438.647
 21
43.4495
  0
LINE
  8
0
 10
438.647
 20
43.4495
 11
438.518
 21
43.579
  0
LINE
  8
0
 10
438.518
 20
43.579
 11
438.402
 21
43.7214
  0
LINE
  8
0
 10
438.402
 20
43.7214
 11
438.303
 21
43.875
  0
LINE
  8
0
 10
438.303
 20
43.875
 11
438.219
 21
44.0382
  0
LINE
  8
0
 10
438.219
 20
44.0382
 11
438.154
 21
44.2092
  0
LINE
  8
0
 10
438.154
 20
44.2092
 11
438.106
 21
44.3862
  0
LINE
  8
0
 10
438.106
 20
44.3862
 11
438.078
 21
44.5671
  0
LINE
  8
0
 10
438.078
 20
44.5671
 11
438.068
 21
44.75
  0
LINE
  8
0
 10
438.068
 20
44.75
 11
438.078
 21
44.9329
  0
LINE
  8
0
 10
438.078
 20
44.9329
 11
438.106
 21
45.1138
  0
LINE
  8
0
 10
438.106
 20
45.1138
 11
438.154
 21
45.2908
  0
LINE
  8
0
 10
438.154
 20
45.2908
 11
438.219
 21
45.4618
  0
LINE
  8
0
 10
438.219
 20
45.4618
 11
438.303
 21
45.625
  0
LINE
  8
0
 10
438.303
 20
45.625
 11
438.402
 21
45.7786
  0
LINE
  8
0
 10
438.402
 20
45.7786
 11
438.518
 21
45.921
  0
LINE
  8
0
 10
438.518
 20
45.921
 11
438.647
 21
46.0505
  0
LINE
  8
0
 10
438.647
 20
46.0505
 11
438.79
 21
46.1658
  0
LINE
  8
0
 10
438.79
 20
46.1658
 11
438.943
 21
46.2655
  0
LINE
  8
0
 10
438.943
 20
46.2655
 11
439.106
 21
46.3487
  0
LINE
  8
0
 10
439.106
 20
46.3487
 11
439.277
 21
46.4143
  0
LINE
  8
0
 10
439.277
 20
46.4143
 11
439.454
 21
46.4617
  0
LINE
  8
0
 10
439.454
 20
46.4617
 11
439.635
 21
46.4904
  0
LINE
  8
0
 10
439.635
 20
46.4904
 11
439.818
 21
46.5
  0
LINE
  8
0
 10
439.818
 20
46.5
 11
440.001
 21
46.4904
  0
LINE
  8
0
 10
440.001
 20
46.4904
 11
440.182
 21
46.4617
  0
LINE
  8
0
 10
440.182
 20
46.4617
 11
440.359
 21
46.4143
  0
LINE
  8
0
 10
440.359
 20
46.4143
 11
440.53
 21
46.3487
  0
LINE
  8
0
 10
440.53
 20
46.3487
 11
440.693
 21
46.2655
  0
LINE
  8
0
 10
440.693
 20
46.2655
 11
440.847
 21
46.1658
  0
LINE
  8
0
 10
440.847
 20
46.1658
 11
440.989
 21
46.0505
  0
LINE
  8
0
 10
440.989
 20
46.0505
 11
441.119
 21
45.921
  0
LINE
  8
0
 10
441.119
 20
45.921
 11
441.234
 21
45.7786
  0
LINE
  8
0
 10
441.234
 20
45.7786
 11
441.334
 21
45.625
  0
LINE
  8
0
 10
441.334
 20
45.625
 11
441.417
 21
45.4618
  0
LINE
  8
0
 10
441.417
 20
45.4618
 11
441.483
 21
45.2908
  0
LINE
  8
0
 10
441.483
 20
45.2908
 11
441.53
 21
45.1138
  0
LINE
  8
0
 10
441.53
 20
45.1138
 11
441.559
 21
44.9329
  0
LINE
  8
0
 10
441.559
 20
44.9329
 11
441.568
 21
44.75
  0
LINE
  8
0
 10
441.568
 20
44.75
 11
441.559
 21
44.5671
  0
LINE
  8
0
 10
441.559
 20
44.5671
 11
441.53
 21
44.3862
  0
LINE
  8
0
 10
441.53
 20
44.3862
 11
441.483
 21
44.2092
  0
LINE
  8
0
 10
441.483
 20
44.2092
 11
441.417
 21
44.0382
  0
LINE
  8
0
 10
441.417
 20
44.0382
 11
441.334
 21
43.875
  0
LINE
  8
0
 10
441.334
 20
43.875
 11
441.234
 21
43.7214
  0
LINE
  8
0
 10
441.234
 20
43.7214
 11
441.119
 21
43.579
  0
LINE
  8
0
 10
441.119
 20
43.579
 11
440.989
 21
43.4495
  0
LINE
  8
0
 10
440.989
 20
43.4495
 11
440.847
 21
43.3342
  0
LINE
  8
0
 10
440.847
 20
43.3342
 11
440.693
 21
43.2345
  0
LINE
  8
0
 10
440.693
 20
43.2345
 11
440.53
 21
43.1513
  0
LINE
  8
0
 10
440.53
 20
43.1513
 11
440.359
 21
43.0856
  0
LINE
  8
0
 10
440.359
 20
43.0856
 11
440.182
 21
43.0382
  0
LINE
  8
0
 10
440.182
 20
43.0382
 11
440.001
 21
43.0096
  0
LINE
  8
0
 10
440.001
 20
43.0096
 11
439.818
 21
43
  0
LINE
  8
0
 10
439.818
 20
43
 11
439.635
 21
43.0096
  0
LINE
  8
0
 10
355.272
 20
43.0096
 11
355.091
 21
43.0382
  0
LINE
  8
0
 10
355.091
 20
43.0382
 11
354.914
 21
43.0856
  0
LINE
  8
0
 10
354.914
 20
43.0856
 11
354.743
 21
43.1513
  0
LINE
  8
0
 10
354.743
 20
43.1513
 11
354.58
 21
43.2345
  0
LINE
  8
0
 10
354.58
 20
43.2345
 11
354.426
 21
43.3342
  0
LINE
  8
0
 10
354.426
 20
43.3342
 11
354.284
 21
43.4495
  0
LINE
  8
0
 10
354.284
 20
43.4495
 11
354.154
 21
43.579
  0
LINE
  8
0
 10
354.154
 20
43.579
 11
354.039
 21
43.7214
  0
LINE
  8
0
 10
354.039
 20
43.7214
 11
353.939
 21
43.875
  0
LINE
  8
0
 10
353.939
 20
43.875
 11
353.856
 21
44.0382
  0
LINE
  8
0
 10
353.856
 20
44.0382
 11
353.79
 21
44.2092
  0
LINE
  8
0
 10
353.79
 20
44.2092
 11
353.743
 21
44.3862
  0
LINE
  8
0
 10
353.743
 20
44.3862
 11
353.714
 21
44.5671
  0
LINE
  8
0
 10
353.714
 20
44.5671
 11
353.705
 21
44.75
  0
LINE
  8
0
 10
353.705
 20
44.75
 11
353.714
 21
44.9329
  0
LINE
  8
0
 10
353.714
 20
44.9329
 11
353.743
 21
45.1138
  0
LINE
  8
0
 10
353.743
 20
45.1138
 11
353.79
 21
45.2908
  0
LINE
  8
0
 10
353.79
 20
45.2908
 11
353.856
 21
45.4618
  0
LINE
  8
0
 10
353.856
 20
45.4618
 11
353.939
 21
45.625
  0
LINE
  8
0
 10
353.939
 20
45.625
 11
354.039
 21
45.7786
  0
LINE
  8
0
 10
354.039
 20
45.7786
 11
354.154
 21
45.921
  0
LINE
  8
0
 10
354.154
 20
45.921
 11
354.284
 21
46.0505
  0
LINE
  8
0
 10
354.284
 20
46.0505
 11
354.426
 21
46.1658
  0
LINE
  8
0
 10
354.426
 20
46.1658
 11
354.58
 21
46.2655
  0
LINE
  8
0
 10
354.58
 20
46.2655
 11
354.743
 21
46.3487
  0
LINE
  8
0
 10
354.743
 20
46.3487
 11
354.914
 21
46.4143
  0
LINE
  8
0
 10
354.914
 20
46.4143
 11
355.091
 21
46.4617
  0
LINE
  8
0
 10
355.091
 20
46.4617
 11
355.272
 21
46.4904
  0
LINE
  8
0
 10
355.272
 20
46.4904
 11
355.455
 21
46.5
  0
LINE
  8
0
 10
355.455
 20
46.5
 11
355.637
 21
46.4904
  0
LINE
  8
0
 10
355.637
 20
46.4904
 11
355.818
 21
46.4617
  0
LINE
  8
0
 10
355.818
 20
46.4617
 11
355.995
 21
46.4143
  0
LINE
  8
0
 10
355.995
 20
46.4143
 11
356.166
 21
46.3487
  0
LINE
  8
0
 10
356.166
 20
46.3487
 11
356.33
 21
46.2655
  0
LINE
  8
0
 10
356.33
 20
46.2655
 11
356.483
 21
46.1658
  0
LINE
  8
0
 10
356.483
 20
46.1658
 11
356.626
 21
46.0505
  0
LINE
  8
0
 10
356.626
 20
46.0505
 11
356.755
 21
45.921
  0
LINE
  8
0
 10
356.755
 20
45.921
 11
356.87
 21
45.7786
  0
LINE
  8
0
 10
356.87
 20
45.7786
 11
356.97
 21
45.625
  0
LINE
  8
0
 10
356.97
 20
45.625
 11
357.053
 21
45.4618
  0
LINE
  8
0
 10
357.053
 20
45.4618
 11
357.119
 21
45.2908
  0
LINE
  8
0
 10
357.119
 20
45.2908
 11
357.166
 21
45.1138
  0
LINE
  8
0
 10
357.166
 20
45.1138
 11
357.195
 21
44.9329
  0
LINE
  8
0
 10
357.195
 20
44.9329
 11
357.205
 21
44.75
  0
LINE
  8
0
 10
357.205
 20
44.75
 11
357.195
 21
44.5671
  0
LINE
  8
0
 10
357.195
 20
44.5671
 11
357.166
 21
44.3862
  0
LINE
  8
0
 10
357.166
 20
44.3862
 11
357.119
 21
44.2092
  0
LINE
  8
0
 10
357.119
 20
44.2092
 11
357.053
 21
44.0382
  0
LINE
  8
0
 10
357.053
 20
44.0382
 11
356.97
 21
43.875
  0
LINE
  8
0
 10
356.97
 20
43.875
 11
356.87
 21
43.7214
  0
LINE
  8
0
 10
356.87
 20
43.7214
 11
356.755
 21
43.579
  0
LINE
  8
0
 10
356.755
 20
43.579
 11
356.626
 21
43.4495
  0
LINE
  8
0
 10
356.626
 20
43.4495
 11
356.483
 21
43.3342
  0
LINE
  8
0
 10
356.483
 20
43.3342
 11
356.33
 21
43.2345
  0
LINE
  8
0
 10
356.33
 20
43.2345
 11
356.166
 21
43.1513
  0
LINE
  8
0
 10
356.166
 20
43.1513
 11
355.995
 21
43.0856
  0
LINE
  8
0
 10
355.995
 20
43.0856
 11
355.818
 21
43.0382
  0
LINE
  8
0
 10
355.818
 20
43.0382
 11
355.637
 21
43.0096
  0
LINE
  8
0
 10
355.637
 20
43.0096
 11
355.455
 21
43
  0
LINE
  8
0
 10
355.455
 20
43
 11
355.272
 21
43.0096
  0
LINE
  8
0
 10
291.999
 20
43.0096
 11
291.818
 21
43.0382
  0
LINE
  8
0
 10
291.818
 20
43.0382
 11
291.641
 21
43.0856
  0
LINE
  8
0
 10
291.641
 20
43.0856
 11
291.47
 21
43.1513
  0
LINE
  8
0
 10
291.47
 20
43.1513
 11
291.307
 21
43.2345
  0
LINE
  8
0
 10
291.307
 20
43.2345
 11
291.153
 21
43.3342
  0
LINE
  8
0
 10
291.153
 20
43.3342
 11
291.011
 21
43.4495
  0
LINE
  8
0
 10
291.011
 20
43.4495
 11
290.881
 21
43.579
  0
LINE
  8
0
 10
290.881
 20
43.579
 11
290.766
 21
43.7214
  0
LINE
  8
0
 10
290.766
 20
43.7214
 11
290.666
 21
43.875
  0
LINE
  8
0
 10
290.666
 20
43.875
 11
290.583
 21
44.0382
  0
LINE
  8
0
 10
290.583
 20
44.0382
 11
290.517
 21
44.2092
  0
LINE
  8
0
 10
290.517
 20
44.2092
 11
290.47
 21
44.3862
  0
LINE
  8
0
 10
290.47
 20
44.3862
 11
290.441
 21
44.5671
  0
LINE
  8
0
 10
290.441
 20
44.5671
 11
290.432
 21
44.75
  0
LINE
  8
0
 10
290.432
 20
44.75
 11
290.441
 21
44.9329
  0
LINE
  8
0
 10
290.441
 20
44.9329
 11
290.47
 21
45.1138
  0
LINE
  8
0
 10
290.47
 20
45.1138
 11
290.517
 21
45.2908
  0
LINE
  8
0
 10
290.517
 20
45.2908
 11
290.583
 21
45.4618
  0
LINE
  8
0
 10
290.583
 20
45.4618
 11
290.666
 21
45.625
  0
LINE
  8
0
 10
290.666
 20
45.625
 11
290.766
 21
45.7786
  0
LINE
  8
0
 10
290.766
 20
45.7786
 11
290.881
 21
45.921
  0
LINE
  8
0
 10
290.881
 20
45.921
 11
291.011
 21
46.0505
  0
LINE
  8
0
 10
291.011
 20
46.0505
 11
291.153
 21
46.1658
  0
LINE
  8
0
 10
291.153
 20
46.1658
 11
291.307
 21
46.2655
  0
LINE
  8
0
 10
291.307
 20
46.2655
 11
291.47
 21
46.3487
  0
LINE
  8
0
 10
291.47
 20
46.3487
 11
291.641
 21
46.4143
  0
LINE
  8
0
 10
291.641
 20
46.4143
 11
291.818
 21
46.4617
  0
LINE
  8
0
 10
291.818
 20
46.4617
 11
291.999
 21
46.4904
  0
LINE
  8
0
 10
291.999
 20
46.4904
 11
292.182
 21
46.5
  0
LINE
  8
0
 10
292.182
 20
46.5
 11
292.365
 21
46.4904
  0
LINE
  8
0
 10
292.365
 20
46.4904
 11
292.546
 21
46.4617
  0
LINE
  8
0
 10
292.546
 20
46.4617
 11
292.723
 21
46.4143
  0
LINE
  8
0
 10
292.723
 20
46.4143
 11
292.894
 21
46.3487
  0
LINE
  8
0
 10
292.894
 20
46.3487
 11
293.057
 21
46.2655
  0
LINE
  8
0
 10
293.057
 20
46.2655
 11
293.21
 21
46.1658
  0
LINE
  8
0
 10
293.21
 20
46.1658
 11
293.353
 21
46.0505
  0
LINE
  8
0
 10
293.353
 20
46.0505
 11
293.482
 21
45.921
  0
LINE
  8
0
 10
293.482
 20
45.921
 11
293.598
 21
45.7786
  0
LINE
  8
0
 10
293.598
 20
45.7786
 11
293.697
 21
45.625
  0
LINE
  8
0
 10
293.697
 20
45.625
 11
293.781
 21
45.4618
  0
LINE
  8
0
 10
293.781
 20
45.4618
 11
293.846
 21
45.2908
  0
LINE
  8
0
 10
293.846
 20
45.2908
 11
293.894
 21
45.1138
  0
LINE
  8
0
 10
293.894
 20
45.1138
 11
293.922
 21
44.9329
  0
LINE
  8
0
 10
293.922
 20
44.9329
 11
293.932
 21
44.75
  0
LINE
  8
0
 10
293.932
 20
44.75
 11
293.922
 21
44.5671
  0
LINE
  8
0
 10
293.922
 20
44.5671
 11
293.894
 21
44.3862
  0
LINE
  8
0
 10
293.894
 20
44.3862
 11
293.846
 21
44.2092
  0
LINE
  8
0
 10
293.846
 20
44.2092
 11
293.781
 21
44.0382
  0
LINE
  8
0
 10
293.781
 20
44.0382
 11
293.697
 21
43.875
  0
LINE
  8
0
 10
293.697
 20
43.875
 11
293.598
 21
43.7214
  0
LINE
  8
0
 10
293.598
 20
43.7214
 11
293.482
 21
43.579
  0
LINE
  8
0
 10
293.482
 20
43.579
 11
293.353
 21
43.4495
  0
LINE
  8
0
 10
293.353
 20
43.4495
 11
293.21
 21
43.3342
  0
LINE
  8
0
 10
293.21
 20
43.3342
 11
293.057
 21
43.2345
  0
LINE
  8
0
 10
293.057
 20
43.2345
 11
292.894
 21
43.1513
  0
LINE
  8
0
 10
292.894
 20
43.1513
 11
292.723
 21
43.0856
  0
LINE
  8
0
 10
292.723
 20
43.0856
 11
292.546
 21
43.0382
  0
LINE
  8
0
 10
292.546
 20
43.0382
 11
292.365
 21
43.0096
  0
LINE
  8
0
 10
292.365
 20
43.0096
 11
292.182
 21
43
  0
LINE
  8
0
 10
292.182
 20
43
 11
291.999
 21
43.0096
  0
LINE
  8
0
 10
376.363
 20
43.0096
 11
376.182
 21
43.0382
  0
LINE
  8
0
 10
376.182
 20
43.0382
 11
376.005
 21
43.0856
  0
LINE
  8
0
 10
376.005
 20
43.0856
 11
375.834
 21
43.1513
  0
LINE
  8
0
 10
375.834
 20
43.1513
 11
375.67
 21
43.2345
  0
LINE
  8
0
 10
375.67
 20
43.2345
 11
375.517
 21
43.3342
  0
LINE
  8
0
 10
375.517
 20
43.3342
 11
375.374
 21
43.4495
  0
LINE
  8
0
 10
375.374
 20
43.4495
 11
375.245
 21
43.579
  0
LINE
  8
0
 10
375.245
 20
43.579
 11
375.13
 21
43.7214
  0
LINE
  8
0
 10
375.13
 20
43.7214
 11
375.03
 21
43.875
  0
LINE
  8
0
 10
375.03
 20
43.875
 11
374.947
 21
44.0382
  0
LINE
  8
0
 10
374.947
 20
44.0382
 11
374.881
 21
44.2092
  0
LINE
  8
0
 10
374.881
 20
44.2092
 11
374.834
 21
44.3862
  0
LINE
  8
0
 10
374.834
 20
44.3862
 11
374.805
 21
44.5671
  0
LINE
  8
0
 10
374.805
 20
44.5671
 11
374.795
 21
44.75
  0
LINE
  8
0
 10
374.795
 20
44.75
 11
374.805
 21
44.9329
  0
LINE
  8
0
 10
374.805
 20
44.9329
 11
374.834
 21
45.1138
  0
LINE
  8
0
 10
374.834
 20
45.1138
 11
374.881
 21
45.2908
  0
LINE
  8
0
 10
374.881
 20
45.2908
 11
374.947
 21
45.4618
  0
LINE
  8
0
 10
374.947
 20
45.4618
 11
375.03
 21
45.625
  0
LINE
  8
0
 10
375.03
 20
45.625
 11
375.13
 21
45.7786
  0
LINE
  8
0
 10
375.13
 20
45.7786
 11
375.245
 21
45.921
  0
LINE
  8
0
 10
375.245
 20
45.921
 11
375.374
 21
46.0505
  0
LINE
  8
0
 10
375.374
 20
46.0505
 11
375.517
 21
46.1658
  0
LINE
  8
0
 10
375.517
 20
46.1658
 11
375.67
 21
46.2655
  0
LINE
  8
0
 10
375.67
 20
46.2655
 11
375.834
 21
46.3487
  0
LINE
  8
0
 10
375.834
 20
46.3487
 11
376.005
 21
46.4143
  0
LINE
  8
0
 10
376.005
 20
46.4143
 11
376.182
 21
46.4617
  0
LINE
  8
0
 10
376.182
 20
46.4617
 11
376.363
 21
46.4904
  0
LINE
  8
0
 10
376.363
 20
46.4904
 11
376.545
 21
46.5
  0
LINE
  8
0
 10
376.545
 20
46.5
 11
376.728
 21
46.4904
  0
LINE
  8
0
 10
376.728
 20
46.4904
 11
376.909
 21
46.4617
  0
LINE
  8
0
 10
376.909
 20
46.4617
 11
377.086
 21
46.4143
  0
LINE
  8
0
 10
377.086
 20
46.4143
 11
377.257
 21
46.3487
  0
LINE
  8
0
 10
377.257
 20
46.3487
 11
377.42
 21
46.2655
  0
LINE
  8
0
 10
377.42
 20
46.2655
 11
377.574
 21
46.1658
  0
LINE
  8
0
 10
377.574
 20
46.1658
 11
377.716
 21
46.0505
  0
LINE
  8
0
 10
377.716
 20
46.0505
 11
377.846
 21
45.921
  0
LINE
  8
0
 10
377.846
 20
45.921
 11
377.961
 21
45.7786
  0
LINE
  8
0
 10
377.961
 20
45.7786
 11
378.061
 21
45.625
  0
LINE
  8
0
 10
378.061
 20
45.625
 11
378.144
 21
45.4618
  0
LINE
  8
0
 10
378.144
 20
45.4618
 11
378.21
 21
45.2908
  0
LINE
  8
0
 10
378.21
 20
45.2908
 11
378.257
 21
45.1138
  0
LINE
  8
0
 10
378.257
 20
45.1138
 11
378.286
 21
44.9329
  0
LINE
  8
0
 10
378.286
 20
44.9329
 11
378.295
 21
44.75
  0
LINE
  8
0
 10
378.295
 20
44.75
 11
378.286
 21
44.5671
  0
LINE
  8
0
 10
378.286
 20
44.5671
 11
378.257
 21
44.3862
  0
LINE
  8
0
 10
378.257
 20
44.3862
 11
378.21
 21
44.2092
  0
LINE
  8
0
 10
378.21
 20
44.2092
 11
378.144
 21
44.0382
  0
LINE
  8
0
 10
378.144
 20
44.0382
 11
378.061
 21
43.875
  0
LINE
  8
0
 10
378.061
 20
43.875
 11
377.961
 21
43.7214
  0
LINE
  8
0
 10
377.961
 20
43.7214
 11
377.846
 21
43.579
  0
LINE
  8
0
 10
377.846
 20
43.579
 11
377.716
 21
43.4495
  0
LINE
  8
0
 10
377.716
 20
43.4495
 11
377.574
 21
43.3342
  0
LINE
  8
0
 10
377.574
 20
43.3342
 11
377.42
 21
43.2345
  0
LINE
  8
0
 10
377.42
 20
43.2345
 11
377.257
 21
43.1513
  0
LINE
  8
0
 10
377.257
 20
43.1513
 11
377.086
 21
43.0856
  0
LINE
  8
0
 10
377.086
 20
43.0856
 11
376.909
 21
43.0382
  0
LINE
  8
0
 10
376.909
 20
43.0382
 11
376.728
 21
43.0096
  0
LINE
  8
0
 10
376.728
 20
43.0096
 11
376.545
 21
43
  0
LINE
  8
0
 10
376.545
 20
43
 11
376.363
 21
43.0096
  0
LINE
  8
0
 10
397.453
 20
43.0096
 11
397.273
 21
43.0382
  0
LINE
  8
0
 10
397.273
 20
43.0382
 11
397.096
 21
43.0856
  0
LINE
  8
0
 10
397.096
 20
43.0856
 11
396.925
 21
43.1513
  0
LINE
  8
0
 10
396.925
 20
43.1513
 11
396.761
 21
43.2345
  0
LINE
  8
0
 10
396.761
 20
43.2345
 11
396.608
 21
43.3342
  0
LINE
  8
0
 10
396.608
 20
43.3342
 11
396.465
 21
43.4495
  0
LINE
  8
0
 10
396.465
 20
43.4495
 11
396.336
 21
43.579
  0
LINE
  8
0
 10
396.336
 20
43.579
 11
396.221
 21
43.7214
  0
LINE
  8
0
 10
396.221
 20
43.7214
 11
396.121
 21
43.875
  0
LINE
  8
0
 10
396.121
 20
43.875
 11
396.038
 21
44.0382
  0
LINE
  8
0
 10
396.038
 20
44.0382
 11
395.972
 21
44.2092
  0
LINE
  8
0
 10
395.972
 20
44.2092
 11
395.925
 21
44.3862
  0
LINE
  8
0
 10
395.925
 20
44.3862
 11
395.896
 21
44.5671
  0
LINE
  8
0
 10
395.896
 20
44.5671
 11
395.886
 21
44.75
  0
LINE
  8
0
 10
395.886
 20
44.75
 11
395.896
 21
44.9329
  0
LINE
  8
0
 10
395.896
 20
44.9329
 11
395.925
 21
45.1138
  0
LINE
  8
0
 10
395.925
 20
45.1138
 11
395.972
 21
45.2908
  0
LINE
  8
0
 10
395.972
 20
45.2908
 11
396.038
 21
45.4618
  0
LINE
  8
0
 10
396.038
 20
45.4618
 11
396.121
 21
45.625
  0
LINE
  8
0
 10
396.121
 20
45.625
 11
396.221
 21
45.7786
  0
LINE
  8
0
 10
396.221
 20
45.7786
 11
396.336
 21
45.921
  0
LINE
  8
0
 10
396.336
 20
45.921
 11
396.465
 21
46.0505
  0
LINE
  8
0
 10
396.465
 20
46.0505
 11
396.608
 21
46.1658
  0
LINE
  8
0
 10
396.608
 20
46.1658
 11
396.761
 21
46.2655
  0
LINE
  8
0
 10
396.761
 20
46.2655
 11
396.925
 21
46.3487
  0
LINE
  8
0
 10
396.925
 20
46.3487
 11
397.096
 21
46.4143
  0
LINE
  8
0
 10
397.096
 20
46.4143
 11
397.273
 21
46.4617
  0
LINE
  8
0
 10
397.273
 20
46.4617
 11
397.453
 21
46.4904
  0
LINE
  8
0
 10
397.453
 20
46.4904
 11
397.636
 21
46.5
  0
LINE
  8
0
 10
397.636
 20
46.5
 11
397.819
 21
46.4904
  0
LINE
  8
0
 10
397.819
 20
46.4904
 11
398
 21
46.4617
  0
LINE
  8
0
 10
398
 20
46.4617
 11
398.177
 21
46.4143
  0
LINE
  8
0
 10
398.177
 20
46.4143
 11
398.348
 21
46.3487
  0
LINE
  8
0
 10
398.348
 20
46.3487
 11
398.511
 21
46.2655
  0
LINE
  8
0
 10
398.511
 20
46.2655
 11
398.665
 21
46.1658
  0
LINE
  8
0
 10
398.665
 20
46.1658
 11
398.807
 21
46.0505
  0
LINE
  8
0
 10
398.807
 20
46.0505
 11
398.937
 21
45.921
  0
LINE
  8
0
 10
398.937
 20
45.921
 11
399.052
 21
45.7786
  0
LINE
  8
0
 10
399.052
 20
45.7786
 11
399.152
 21
45.625
  0
LINE
  8
0
 10
399.152
 20
45.625
 11
399.235
 21
45.4618
  0
LINE
  8
0
 10
399.235
 20
45.4618
 11
399.301
 21
45.2908
  0
LINE
  8
0
 10
399.301
 20
45.2908
 11
399.348
 21
45.1138
  0
LINE
  8
0
 10
399.348
 20
45.1138
 11
399.377
 21
44.9329
  0
LINE
  8
0
 10
399.377
 20
44.9329
 11
399.386
 21
44.75
  0
LINE
  8
0
 10
399.386
 20
44.75
 11
399.377
 21
44.5671
  0
LINE
  8
0
 10
399.377
 20
44.5671
 11
399.348
 21
44.3862
  0
LINE
  8
0
 10
399.348
 20
44.3862
 11
399.301
 21
44.2092
  0
LINE
  8
0
 10
399.301
 20
44.2092
 11
399.235
 21
44.0382
  0
LINE
  8
0
 10
399.235
 20
44.0382
 11
399.152
 21
43.875
  0
LINE
  8
0
 10
399.152
 20
43.875
 11
399.052
 21
43.7214
  0
LINE
  8
0
 10
399.052
 20
43.7214
 11
398.937
 21
43.579
  0
LINE
  8
0
 10
398.937
 20
43.579
 11
398.807
 21
43.4495
  0
LINE
  8
0
 10
398.807
 20
43.4495
 11
398.665
 21
43.3342
  0
LINE
  8
0
 10
398.665
 20
43.3342
 11
398.511
 21
43.2345
  0
LINE
  8
0
 10
398.511
 20
43.2345
 11
398.348
 21
43.1513
  0
LINE
  8
0
 10
398.348
 20
43.1513
 11
398.177
 21
43.0856
  0
LINE
  8
0
 10
398.177
 20
43.0856
 11
398
 21
43.0382
  0
LINE
  8
0
 10
398
 20
43.0382
 11
397.819
 21
43.0096
  0
LINE
  8
0
 10
397.819
 20
43.0096
 11
397.636
 21
43
  0
LINE
  8
0
 10
397.636
 20
43
 11
397.453
 21
43.0096
  0
LINE
  8
0
 10
144.363
 20
43.0096
 11
144.182
 21
43.0382
  0
LINE
  8
0
 10
144.182
 20
43.0382
 11
144.005
 21
43.0856
  0
LINE
  8
0
 10
144.005
 20
43.0856
 11
143.834
 21
43.1513
  0
LINE
  8
0
 10
143.834
 20
43.1513
 11
143.67
 21
43.2345
  0
LINE
  8
0
 10
143.67
 20
43.2345
 11
143.517
 21
43.3342
  0
LINE
  8
0
 10
143.517
 20
43.3342
 11
143.374
 21
43.4495
  0
LINE
  8
0
 10
143.374
 20
43.4495
 11
143.245
 21
43.579
  0
LINE
  8
0
 10
143.245
 20
43.579
 11
143.13
 21
43.7214
  0
LINE
  8
0
 10
143.13
 20
43.7214
 11
143.03
 21
43.875
  0
LINE
  8
0
 10
143.03
 20
43.875
 11
142.947
 21
44.0382
  0
LINE
  8
0
 10
142.947
 20
44.0382
 11
142.881
 21
44.2092
  0
LINE
  8
0
 10
142.881
 20
44.2092
 11
142.834
 21
44.3862
  0
LINE
  8
0
 10
142.834
 20
44.3862
 11
142.805
 21
44.5671
  0
LINE
  8
0
 10
142.805
 20
44.5671
 11
142.795
 21
44.75
  0
LINE
  8
0
 10
142.795
 20
44.75
 11
142.805
 21
44.9329
  0
LINE
  8
0
 10
142.805
 20
44.9329
 11
142.834
 21
45.1138
  0
LINE
  8
0
 10
142.834
 20
45.1138
 11
142.881
 21
45.2908
  0
LINE
  8
0
 10
142.881
 20
45.2908
 11
142.947
 21
45.4618
  0
LINE
  8
0
 10
142.947
 20
45.4618
 11
143.03
 21
45.625
  0
LINE
  8
0
 10
143.03
 20
45.625
 11
143.13
 21
45.7786
  0
LINE
  8
0
 10
143.13
 20
45.7786
 11
143.245
 21
45.921
  0
LINE
  8
0
 10
143.245
 20
45.921
 11
143.374
 21
46.0505
  0
LINE
  8
0
 10
143.374
 20
46.0505
 11
143.517
 21
46.1658
  0
LINE
  8
0
 10
143.517
 20
46.1658
 11
143.67
 21
46.2655
  0
LINE
  8
0
 10
143.67
 20
46.2655
 11
143.834
 21
46.3487
  0
LINE
  8
0
 10
143.834
 20
46.3487
 11
144.005
 21
46.4143
  0
LINE
  8
0
 10
144.005
 20
46.4143
 11
144.182
 21
46.4617
  0
LINE
  8
0
 10
144.182
 20
46.4617
 11
144.363
 21
46.4904
  0
LINE
  8
0
 10
144.363
 20
46.4904
 11
144.545
 21
46.5
  0
LINE
  8
0
 10
144.545
 20
46.5
 11
144.728
 21
46.4904
  0
LINE
  8
0
 10
144.728
 20
46.4904
 11
144.909
 21
46.4617
  0
LINE
  8
0
 10
144.909
 20
46.4617
 11
145.086
 21
46.4143
  0
LINE
  8
0
 10
145.086
 20
46.4143
 11
145.257
 21
46.3487
  0
LINE
  8
0
 10
145.257
 20
46.3487
 11
145.42
 21
46.2655
  0
LINE
  8
0
 10
145.42
 20
46.2655
 11
145.574
 21
46.1658
  0
LINE
  8
0
 10
145.574
 20
46.1658
 11
145.716
 21
46.0505
  0
LINE
  8
0
 10
145.716
 20
46.0505
 11
145.846
 21
45.921
  0
LINE
  8
0
 10
145.846
 20
45.921
 11
145.961
 21
45.7786
  0
LINE
  8
0
 10
145.961
 20
45.7786
 11
146.061
 21
45.625
  0
LINE
  8
0
 10
146.061
 20
45.625
 11
146.144
 21
45.4618
  0
LINE
  8
0
 10
146.144
 20
45.4618
 11
146.21
 21
45.2908
  0
LINE
  8
0
 10
146.21
 20
45.2908
 11
146.257
 21
45.1138
  0
LINE
  8
0
 10
146.257
 20
45.1138
 11
146.286
 21
44.9329
  0
LINE
  8
0
 10
146.286
 20
44.9329
 11
146.295
 21
44.75
  0
LINE
  8
0
 10
146.295
 20
44.75
 11
146.286
 21
44.5671
  0
LINE
  8
0
 10
146.286
 20
44.5671
 11
146.257
 21
44.3862
  0
LINE
  8
0
 10
146.257
 20
44.3862
 11
146.21
 21
44.2092
  0
LINE
  8
0
 10
146.21
 20
44.2092
 11
146.144
 21
44.0382
  0
LINE
  8
0
 10
146.144
 20
44.0382
 11
146.061
 21
43.875
  0
LINE
  8
0
 10
146.061
 20
43.875
 11
145.961
 21
43.7214
  0
LINE
  8
0
 10
145.961
 20
43.7214
 11
145.846
 21
43.579
  0
LINE
  8
0
 10
145.846
 20
43.579
 11
145.716
 21
43.4495
  0
LINE
  8
0
 10
145.716
 20
43.4495
 11
145.574
 21
43.3342
  0
LINE
  8
0
 10
145.574
 20
43.3342
 11
145.42
 21
43.2345
  0
LINE
  8
0
 10
145.42
 20
43.2345
 11
145.257
 21
43.1513
  0
LINE
  8
0
 10
145.257
 20
43.1513
 11
145.086
 21
43.0856
  0
LINE
  8
0
 10
145.086
 20
43.0856
 11
144.909
 21
43.0382
  0
LINE
  8
0
 10
144.909
 20
43.0382
 11
144.728
 21
43.0096
  0
LINE
  8
0
 10
144.728
 20
43.0096
 11
144.545
 21
43
  0
LINE
  8
0
 10
144.545
 20
43
 11
144.363
 21
43.0096
  0
LINE
  8
0
 10
102.181
 20
43.0096
 11
102
 21
43.0382
  0
LINE
  8
0
 10
102
 20
43.0382
 11
101.823
 21
43.0856
  0
LINE
  8
0
 10
101.823
 20
43.0856
 11
101.652
 21
43.1513
  0
LINE
  8
0
 10
101.652
 20
43.1513
 11
101.489
 21
43.2345
  0
LINE
  8
0
 10
101.489
 20
43.2345
 11
101.335
 21
43.3342
  0
LINE
  8
0
 10
101.335
 20
43.3342
 11
101.193
 21
43.4495
  0
LINE
  8
0
 10
101.193
 20
43.4495
 11
101.063
 21
43.579
  0
LINE
  8
0
 10
101.063
 20
43.579
 11
100.948
 21
43.7214
  0
LINE
  8
0
 10
100.948
 20
43.7214
 11
100.848
 21
43.875
  0
LINE
  8
0
 10
100.848
 20
43.875
 11
100.765
 21
44.0382
  0
LINE
  8
0
 10
100.765
 20
44.0382
 11
100.699
 21
44.2092
  0
LINE
  8
0
 10
100.699
 20
44.2092
 11
100.652
 21
44.3862
  0
LINE
  8
0
 10
100.652
 20
44.3862
 11
100.623
 21
44.5671
  0
LINE
  8
0
 10
100.623
 20
44.5671
 11
100.614
 21
44.75
  0
LINE
  8
0
 10
100.614
 20
44.75
 11
100.623
 21
44.9329
  0
LINE
  8
0
 10
100.623
 20
44.9329
 11
100.652
 21
45.1138
  0
LINE
  8
0
 10
100.652
 20
45.1138
 11
100.699
 21
45.2908
  0
LINE
  8
0
 10
100.699
 20
45.2908
 11
100.765
 21
45.4618
  0
LINE
  8
0
 10
100.765
 20
45.4618
 11
100.848
 21
45.625
  0
LINE
  8
0
 10
100.848
 20
45.625
 11
100.948
 21
45.7786
  0
LINE
  8
0
 10
100.948
 20
45.7786
 11
101.063
 21
45.921
  0
LINE
  8
0
 10
101.063
 20
45.921
 11
101.193
 21
46.0505
  0
LINE
  8
0
 10
101.193
 20
46.0505
 11
101.335
 21
46.1658
  0
LINE
  8
0
 10
101.335
 20
46.1658
 11
101.489
 21
46.2655
  0
LINE
  8
0
 10
101.489
 20
46.2655
 11
101.652
 21
46.3487
  0
LINE
  8
0
 10
101.652
 20
46.3487
 11
101.823
 21
46.4143
  0
LINE
  8
0
 10
101.823
 20
46.4143
 11
102
 21
46.4617
  0
LINE
  8
0
 10
102
 20
46.4617
 11
102.181
 21
46.4904
  0
LINE
  8
0
 10
102.181
 20
46.4904
 11
102.364
 21
46.5
  0
LINE
  8
0
 10
102.364
 20
46.5
 11
102.547
 21
46.4904
  0
LINE
  8
0
 10
102.547
 20
46.4904
 11
102.727
 21
46.4617
  0
LINE
  8
0
 10
102.727
 20
46.4617
 11
102.904
 21
46.4143
  0
LINE
  8
0
 10
102.904
 20
46.4143
 11
103.075
 21
46.3487
  0
LINE
  8
0
 10
103.075
 20
46.3487
 11
103.239
 21
46.2655
  0
LINE
  8
0
 10
103.239
 20
46.2655
 11
103.392
 21
46.1658
  0
LINE
  8
0
 10
103.392
 20
46.1658
 11
103.535
 21
46.0505
  0
LINE
  8
0
 10
103.535
 20
46.0505
 11
103.664
 21
45.921
  0
LINE
  8
0
 10
103.664
 20
45.921
 11
103.779
 21
45.7786
  0
LINE
  8
0
 10
103.779
 20
45.7786
 11
103.879
 21
45.625
  0
LINE
  8
0
 10
103.879
 20
45.625
 11
103.962
 21
45.4618
  0
LINE
  8
0
 10
103.962
 20
45.4618
 11
104.028
 21
45.2908
  0
LINE
  8
0
 10
104.028
 20
45.2908
 11
104.075
 21
45.1138
  0
LINE
  8
0
 10
104.075
 20
45.1138
 11
104.104
 21
44.9329
  0
LINE
  8
0
 10
104.104
 20
44.9329
 11
104.114
 21
44.75
  0
LINE
  8
0
 10
104.114
 20
44.75
 11
104.104
 21
44.5671
  0
LINE
  8
0
 10
104.104
 20
44.5671
 11
104.075
 21
44.3862
  0
LINE
  8
0
 10
104.075
 20
44.3862
 11
104.028
 21
44.2092
  0
LINE
  8
0
 10
104.028
 20
44.2092
 11
103.962
 21
44.0382
  0
LINE
  8
0
 10
103.962
 20
44.0382
 11
103.879
 21
43.875
  0
LINE
  8
0
 10
103.879
 20
43.875
 11
103.779
 21
43.7214
  0
LINE
  8
0
 10
103.779
 20
43.7214
 11
103.664
 21
43.579
  0
LINE
  8
0
 10
103.664
 20
43.579
 11
103.535
 21
43.4495
  0
LINE
  8
0
 10
103.535
 20
43.4495
 11
103.392
 21
43.3342
  0
LINE
  8
0
 10
103.392
 20
43.3342
 11
103.239
 21
43.2345
  0
LINE
  8
0
 10
103.239
 20
43.2345
 11
103.075
 21
43.1513
  0
LINE
  8
0
 10
103.075
 20
43.1513
 11
102.904
 21
43.0856
  0
LINE
  8
0
 10
102.904
 20
43.0856
 11
102.727
 21
43.0382
  0
LINE
  8
0
 10
102.727
 20
43.0382
 11
102.547
 21
43.0096
  0
LINE
  8
0
 10
102.547
 20
43.0096
 11
102.364
 21
43
  0
LINE
  8
0
 10
102.364
 20
43
 11
102.181
 21
43.0096
  0
LINE
  8
0
 10
334.181
 20
43.0096
 11
334
 21
43.0382
  0
LINE
  8
0
 10
334
 20
43.0382
 11
333.823
 21
43.0856
  0
LINE
  8
0
 10
333.823
 20
43.0856
 11
333.652
 21
43.1513
  0
LINE
  8
0
 10
333.652
 20
43.1513
 11
333.489
 21
43.2345
  0
LINE
  8
0
 10
333.489
 20
43.2345
 11
333.335
 21
43.3342
  0
LINE
  8
0
 10
333.335
 20
43.3342
 11
333.193
 21
43.4495
  0
LINE
  8
0
 10
333.193
 20
43.4495
 11
333.063
 21
43.579
  0
LINE
  8
0
 10
333.063
 20
43.579
 11
332.948
 21
43.7214
  0
LINE
  8
0
 10
332.948
 20
43.7214
 11
332.848
 21
43.875
  0
LINE
  8
0
 10
332.848
 20
43.875
 11
332.765
 21
44.0382
  0
LINE
  8
0
 10
332.765
 20
44.0382
 11
332.699
 21
44.2092
  0
LINE
  8
0
 10
332.699
 20
44.2092
 11
332.652
 21
44.3862
  0
LINE
  8
0
 10
332.652
 20
44.3862
 11
332.623
 21
44.5671
  0
LINE
  8
0
 10
332.623
 20
44.5671
 11
332.614
 21
44.75
  0
LINE
  8
0
 10
332.614
 20
44.75
 11
332.623
 21
44.9329
  0
LINE
  8
0
 10
332.623
 20
44.9329
 11
332.652
 21
45.1138
  0
LINE
  8
0
 10
332.652
 20
45.1138
 11
332.699
 21
45.2908
  0
LINE
  8
0
 10
332.699
 20
45.2908
 11
332.765
 21
45.4618
  0
LINE
  8
0
 10
332.765
 20
45.4618
 11
332.848
 21
45.625
  0
LINE
  8
0
 10
332.848
 20
45.625
 11
332.948
 21
45.7786
  0
LINE
  8
0
 10
332.948
 20
45.7786
 11
333.063
 21
45.921
  0
LINE
  8
0
 10
333.063
 20
45.921
 11
333.193
 21
46.0505
  0
LINE
  8
0
 10
333.193
 20
46.0505
 11
333.335
 21
46.1658
  0
LINE
  8
0
 10
333.335
 20
46.1658
 11
333.489
 21
46.2655
  0
LINE
  8
0
 10
333.489
 20
46.2655
 11
333.652
 21
46.3487
  0
LINE
  8
0
 10
333.652
 20
46.3487
 11
333.823
 21
46.4143
  0
LINE
  8
0
 10
333.823
 20
46.4143
 11
334
 21
46.4617
  0
LINE
  8
0
 10
334
 20
46.4617
 11
334.181
 21
46.4904
  0
LINE
  8
0
 10
334.181
 20
46.4904
 11
334.364
 21
46.5
  0
LINE
  8
0
 10
334.364
 20
46.5
 11
334.547
 21
46.4904
  0
LINE
  8
0
 10
334.547
 20
46.4904
 11
334.727
 21
46.4617
  0
LINE
  8
0
 10
334.727
 20
46.4617
 11
334.904
 21
46.4143
  0
LINE
  8
0
 10
334.904
 20
46.4143
 11
335.075
 21
46.3487
  0
LINE
  8
0
 10
335.075
 20
46.3487
 11
335.239
 21
46.2655
  0
LINE
  8
0
 10
335.239
 20
46.2655
 11
335.392
 21
46.1658
  0
LINE
  8
0
 10
335.392
 20
46.1658
 11
335.535
 21
46.0505
  0
LINE
  8
0
 10
335.535
 20
46.0505
 11
335.664
 21
45.921
  0
LINE
  8
0
 10
335.664
 20
45.921
 11
335.779
 21
45.7786
  0
LINE
  8
0
 10
335.779
 20
45.7786
 11
335.879
 21
45.625
  0
LINE
  8
0
 10
335.879
 20
45.625
 11
335.962
 21
45.4618
  0
LINE
  8
0
 10
335.962
 20
45.4618
 11
336.028
 21
45.2908
  0
LINE
  8
0
 10
336.028
 20
45.2908
 11
336.075
 21
45.1138
  0
LINE
  8
0
 10
336.075
 20
45.1138
 11
336.104
 21
44.9329
  0
LINE
  8
0
 10
336.104
 20
44.9329
 11
336.114
 21
44.75
  0
LINE
  8
0
 10
336.114
 20
44.75
 11
336.104
 21
44.5671
  0
LINE
  8
0
 10
336.104
 20
44.5671
 11
336.075
 21
44.3862
  0
LINE
  8
0
 10
336.075
 20
44.3862
 11
336.028
 21
44.2092
  0
LINE
  8
0
 10
336.028
 20
44.2092
 11
335.962
 21
44.0382
  0
LINE
  8
0
 10
335.962
 20
44.0382
 11
335.879
 21
43.875
  0
LINE
  8
0
 10
335.879
 20
43.875
 11
335.779
 21
43.7214
  0
LINE
  8
0
 10
335.779
 20
43.7214
 11
335.664
 21
43.579
  0
LINE
  8
0
 10
335.664
 20
43.579
 11
335.535
 21
43.4495
  0
LINE
  8
0
 10
335.535
 20
43.4495
 11
335.392
 21
43.3342
  0
LINE
  8
0
 10
335.392
 20
43.3342
 11
335.239
 21
43.2345
  0
LINE
  8
0
 10
335.239
 20
43.2345
 11
335.075
 21
43.1513
  0
LINE
  8
0
 10
335.075
 20
43.1513
 11
334.904
 21
43.0856
  0
LINE
  8
0
 10
334.904
 20
43.0856
 11
334.727
 21
43.0382
  0
LINE
  8
0
 10
334.727
 20
43.0382
 11
334.547
 21
43.0096
  0
LINE
  8
0
 10
334.547
 20
43.0096
 11
334.364
 21
43
  0
LINE
  8
0
 10
334.364
 20
43
 11
334.181
 21
43.0096
  0
LINE
  8
0
 10
35.8409
 20
23.25
 11
35.8409
 21
36.75
  0
LINE
  8
0
 10
35.8409
 20
36.75
 11
42.3409
 21
36.75
  0
LINE
  8
0
 10
42.3409
 20
36.75
 11
42.3409
 21
23.25
  0
LINE
  8
0
 10
42.3409
 20
23.25
 11
35.8409
 21
23.25
  0
LINE
  8
0
 10
56.9318
 20
23.25
 11
56.9318
 21
36.75
  0
LINE
  8
0
 10
56.9318
 20
36.75
 11
63.4318
 21
36.75
  0
LINE
  8
0
 10
63.4318
 20
36.75
 11
63.4318
 21
23.25
  0
LINE
  8
0
 10
63.4318
 20
23.25
 11
56.9318
 21
23.25
  0
LINE
  8
0
 10
78.0227
 20
23.25
 11
78.0227
 21
36.75
  0
LINE
  8
0
 10
78.0227
 20
36.75
 11
84.5227
 21
36.75
  0
LINE
  8
0
 10
84.5227
 20
36.75
 11
84.5227
 21
23.25
  0
LINE
  8
0
 10
84.5227
 20
23.25
 11
78.0227
 21
23.25
  0
LINE
  8
0
 10
99.1136
 20
23.25
 11
99.1136
 21
36.75
  0
LINE
  8
0
 10
99.1136
 20
36.75
 11
105.614
 21
36.75
  0
LINE
  8
0
 10
105.614
 20
36.75
 11
105.614
 21
23.25
  0
LINE
  8
0
 10
105.614
 20
23.25
 11
99.1136
 21
23.25
  0
LINE
  8
0
 10
120.205
 20
23.25
 11
120.205
 21
36.75
  0
LINE
  8
0
 10
120.205
 20
36.75
 11
126.705
 21
36.75
  0
LINE
  8
0
 10
126.705
 20
36.75
 11
126.705
 21
23.25
  0
LINE
  8
0
 10
126.705
 20
23.25
 11
120.205
 21
23.25
  0
LINE
  8
0
 10
141.295
 20
23.25
 11
141.295
 21
36.75
  0
LINE
  8
0
 10
141.295
 20
36.75
 11
147.795
 21
36.75
  0
LINE
  8
0
 10
147.795
 20
36.75
 11
147.795
 21
23.25
  0
LINE
  8
0
 10
147.795
 20
23.25
 11
141.295
 21
23.25
  0
LINE
  8
0
 10
225.659
 20
23.25
 11
225.659
 21
36.75
  0
LINE
  8
0
 10
225.659
 20
36.75
 11
232.159
 21
36.75
  0
LINE
  8
0
 10
232.159
 20
36.75
 11
232.159
 21
23.25
  0
LINE
  8
0
 10
232.159
 20
23.25
 11
225.659
 21
23.25
  0
LINE
  8
0
 10
162.386
 20
23.25
 11
162.386
 21
36.75
  0
LINE
  8
0
 10
162.386
 20
36.75
 11
168.886
 21
36.75
  0
LINE
  8
0
 10
168.886
 20
36.75
 11
168.886
 21
23.25
  0
LINE
  8
0
 10
168.886
 20
23.25
 11
162.386
 21
23.25
  0
LINE
  8
0
 10
204.568
 20
23.25
 11
204.568
 21
36.75
  0
LINE
  8
0
 10
204.568
 20
36.75
 11
211.068
 21
36.75
  0
LINE
  8
0
 10
211.068
 20
36.75
 11
211.068
 21
23.25
  0
LINE
  8
0
 10
211.068
 20
23.25
 11
204.568
 21
23.25
  0
LINE
  8
0
 10
183.477
 20
23.25
 11
183.477
 21
36.75
  0
LINE
  8
0
 10
183.477
 20
36.75
 11
189.977
 21
36.75
  0
LINE
  8
0
 10
189.977
 20
36.75
 11
189.977
 21
23.25
  0
LINE
  8
0
 10
189.977
 20
23.25
 11
183.477
 21
23.25
  0
LINE
  8
0
 10
310.023
 20
23.25
 11
310.023
 21
36.75
  0
LINE
  8
0
 10
310.023
 20
36.75
 11
316.523
 21
36.75
  0
LINE
  8
0
 10
316.523
 20
36.75
 11
316.523
 21
23.25
  0
LINE
  8
0
 10
316.523
 20
23.25
 11
310.023
 21
23.25
  0
LINE
  8
0
 10
331.114
 20
23.25
 11
331.114
 21
36.75
  0
LINE
  8
0
 10
331.114
 20
36.75
 11
337.614
 21
36.75
  0
LINE
  8
0
 10
337.614
 20
36.75
 11
337.614
 21
23.25
  0
LINE
  8
0
 10
337.614
 20
23.25
 11
331.114
 21
23.25
  0
LINE
  8
0
 10
352.205
 20
23.25
 11
352.205
 21
36.75
  0
LINE
  8
0
 10
352.205
 20
36.75
 11
358.705
 21
36.75
  0
LINE
  8
0
 10
358.705
 20
36.75
 11
358.705
 21
23.25
  0
LINE
  8
0
 10
358.705
 20
23.25
 11
352.205
 21
23.25
  0
LINE
  8
0
 10
373.295
 20
23.25
 11
373.295
 21
36.75
  0
LINE
  8
0
 10
373.295
 20
36.75
 11
379.795
 21
36.75
  0
LINE
  8
0
 10
379.795
 20
36.75
 11
379.795
 21
23.25
  0
LINE
  8
0
 10
379.795
 20
23.25
 11
373.295
 21
23.25
  0
LINE
  8
0
 10
457.659
 20
23.25
 11
457.659
 21
36.75
  0
LINE
  8
0
 10
457.659
 20
36.75
 11
464.159
 21
36.75
  0
LINE
  8
0
 10
464.159
 20
36.75
 11
464.159
 21
23.25
  0
LINE
  8
0
 10
464.159
 20
23.25
 11
457.659
 21
23.25
  0
LINE
  8
0
 10
394.386
 20
23.25
 11
394.386
 21
36.75
  0
LINE
  8
0
 10
394.386
 20
36.75
 11
400.886
 21
36.75
  0
LINE
  8
0
 10
400.886
 20
36.75
 11
400.886
 21
23.25
  0
LINE
  8
0
 10
400.886
 20
23.25
 11
394.386
 21
23.25
  0
LINE
  8
0
 10
436.568
 20
23.25
 11
436.568
 21
36.75
  0
LINE
  8
0
 10
436.568
 20
36.75
 11
443.068
 21
36.75
  0
LINE
  8
0
 10
443.068
 20
36.75
 11
443.068
 21
23.25
  0
LINE
  8
0
 10
443.068
 20
23.25
 11
436.568
 21
23.25
  0
LINE
  8
0
 10
415.477
 20
23.25
 11
415.477
 21
36.75
  0
LINE
  8
0
 10
415.477
 20
36.75
 11
421.977
 21
36.75
  0
LINE
  8
0
 10
421.977
 20
36.75
 11
421.977
 21
23.25
  0
LINE
  8
0
 10
421.977
 20
23.25
 11
415.477
 21
23.25
  0
LINE
  8
0
 10
267.841
 20
23.25
 11
267.841
 21
36.75
  0
LINE
  8
0
 10
267.841
 20
36.75
 11
274.341
 21
36.75
  0
LINE
  8
0
 10
274.341
 20
36.75
 11
274.341
 21
23.25
  0
LINE
  8
0
 10
274.341
 20
23.25
 11
267.841
 21
23.25
  0
LINE
  8
0
 10
288.932
 20
23.25
 11
288.932
 21
36.75
  0
LINE
  8
0
 10
288.932
 20
36.75
 11
295.432
 21
36.75
  0
LINE
  8
0
 10
295.432
 20
36.75
 11
295.432
 21
23.25
  0
LINE
  8
0
 10
295.432
 20
23.25
 11
288.932
 21
23.25
  0
LINE
  8
0
 10
38.908
 20
13.5096
 11
38.7271
 21
13.5383
  0
LINE
  8
0
 10
38.7271
 20
13.5383
 11
38.5501
 21
13.5857
  0
LINE
  8
0
 10
38.5501
 20
13.5857
 11
38.3791
 21
13.6513
  0
LINE
  8
0
 10
38.3791
 20
13.6513
 11
38.2159
 21
13.7345
  0
LINE
  8
0
 10
38.2159
 20
13.7345
 11
38.0623
 21
13.8342
  0
LINE
  8
0
 10
38.0623
 20
13.8342
 11
37.9199
 21
13.9495
  0
LINE
  8
0
 10
37.9199
 20
13.9495
 11
37.7904
 21
14.079
  0
LINE
  8
0
 10
37.7904
 20
14.079
 11
37.6751
 21
14.2214
  0
LINE
  8
0
 10
37.6751
 20
14.2214
 11
37.5754
 21
14.375
  0
LINE
  8
0
 10
37.5754
 20
14.375
 11
37.4922
 21
14.5382
  0
LINE
  8
0
 10
37.4922
 20
14.5382
 11
37.4266
 21
14.7092
  0
LINE
  8
0
 10
37.4266
 20
14.7092
 11
37.3792
 21
14.8862
  0
LINE
  8
0
 10
37.3792
 20
14.8862
 11
37.3505
 21
15.0671
  0
LINE
  8
0
 10
37.3505
 20
15.0671
 11
37.3409
 21
15.25
  0
LINE
  8
0
 10
37.3409
 20
15.25
 11
37.3505
 21
15.4329
  0
LINE
  8
0
 10
37.3505
 20
15.4329
 11
37.3792
 21
15.6138
  0
LINE
  8
0
 10
37.3792
 20
15.6138
 11
37.4266
 21
15.7908
  0
LINE
  8
0
 10
37.4266
 20
15.7908
 11
37.4922
 21
15.9618
  0
LINE
  8
0
 10
37.4922
 20
15.9618
 11
37.5754
 21
16.125
  0
LINE
  8
0
 10
37.5754
 20
16.125
 11
37.6751
 21
16.2786
  0
LINE
  8
0
 10
37.6751
 20
16.2786
 11
37.7904
 21
16.421
  0
LINE
  8
0
 10
37.7904
 20
16.421
 11
37.9199
 21
16.5505
  0
LINE
  8
0
 10
37.9199
 20
16.5505
 11
38.0623
 21
16.6658
  0
LINE
  8
0
 10
38.0623
 20
16.6658
 11
38.2159
 21
16.7655
  0
LINE
  8
0
 10
38.2159
 20
16.7655
 11
38.3791
 21
16.8487
  0
LINE
  8
0
 10
38.3791
 20
16.8487
 11
38.5501
 21
16.9144
  0
LINE
  8
0
 10
38.5501
 20
16.9144
 11
38.7271
 21
16.9618
  0
LINE
  8
0
 10
38.7271
 20
16.9618
 11
38.908
 21
16.9904
  0
LINE
  8
0
 10
38.908
 20
16.9904
 11
39.0909
 21
17
  0
LINE
  8
0
 10
39.0909
 20
17
 11
39.2738
 21
16.9904
  0
LINE
  8
0
 10
39.2738
 20
16.9904
 11
39.4547
 21
16.9618
  0
LINE
  8
0
 10
39.4547
 20
16.9618
 11
39.6317
 21
16.9144
  0
LINE
  8
0
 10
39.6317
 20
16.9144
 11
39.8027
 21
16.8487
  0
LINE
  8
0
 10
39.8027
 20
16.8487
 11
39.9659
 21
16.7655
  0
LINE
  8
0
 10
39.9659
 20
16.7655
 11
40.1195
 21
16.6658
  0
LINE
  8
0
 10
40.1195
 20
16.6658
 11
40.2619
 21
16.5505
  0
LINE
  8
0
 10
40.2619
 20
16.5505
 11
40.3914
 21
16.421
  0
LINE
  8
0
 10
40.3914
 20
16.421
 11
40.5067
 21
16.2786
  0
LINE
  8
0
 10
40.5067
 20
16.2786
 11
40.6064
 21
16.125
  0
LINE
  8
0
 10
40.6064
 20
16.125
 11
40.6896
 21
15.9618
  0
LINE
  8
0
 10
40.6896
 20
15.9618
 11
40.7552
 21
15.7908
  0
LINE
  8
0
 10
40.7552
 20
15.7908
 11
40.8026
 21
15.6138
  0
LINE
  8
0
 10
40.8026
 20
15.6138
 11
40.8313
 21
15.4329
  0
LINE
  8
0
 10
40.8313
 20
15.4329
 11
40.8409
 21
15.25
  0
LINE
  8
0
 10
40.8409
 20
15.25
 11
40.8313
 21
15.0671
  0
LINE
  8
0
 10
40.8313
 20
15.0671
 11
40.8026
 21
14.8862
  0
LINE
  8
0
 10
40.8026
 20
14.8862
 11
40.7552
 21
14.7092
  0
LINE
  8
0
 10
40.7552
 20
14.7092
 11
40.6896
 21
14.5382
  0
LINE
  8
0
 10
40.6896
 20
14.5382
 11
40.6064
 21
14.375
  0
LINE
  8
0
 10
40.6064
 20
14.375
 11
40.5067
 21
14.2214
  0
LINE
  8
0
 10
40.5067
 20
14.2214
 11
40.3914
 21
14.079
  0
LINE
  8
0
 10
40.3914
 20
14.079
 11
40.2619
 21
13.9495
  0
LINE
  8
0
 10
40.2619
 20
13.9495
 11
40.1195
 21
13.8342
  0
LINE
  8
0
 10
40.1195
 20
13.8342
 11
39.9659
 21
13.7345
  0
LINE
  8
0
 10
39.9659
 20
13.7345
 11
39.8027
 21
13.6513
  0
LINE
  8
0
 10
39.8027
 20
13.6513
 11
39.6317
 21
13.5857
  0
LINE
  8
0
 10
39.6317
 20
13.5857
 11
39.4547
 21
13.5383
  0
LINE
  8
0
 10
39.4547
 20
13.5383
 11
39.2738
 21
13.5096
  0
LINE
  8
0
 10
39.2738
 20
13.5096
 11
39.0909
 21
13.5
  0
LINE
  8
0
 10
39.0909
 20
13.5
 11
38.908
 21
13.5096
  0
LINE
  8
0
 10
460.726
 20
13.5096
 11
460.545
 21
13.5383
  0
LINE
  8
0
 10
460.545
 20
13.5383
 11
460.368
 21
13.5857
  0
LINE
  8
0
 10
460.368
 20
13.5857
 11
460.197
 21
13.6513
  0
LINE
  8
0
 10
460.197
 20
13.6513
 11
460.034
 21
13.7345
  0
LINE
  8
0
 10
460.034
 20
13.7345
 11
459.88
 21
13.8342
  0
LINE
  8
0
 10
459.88
 20
13.8342
 11
459.738
 21
13.9495
  0
LINE
  8
0
 10
459.738
 20
13.9495
 11
459.609
 21
14.079
  0
LINE
  8
0
 10
459.609
 20
14.079
 11
459.493
 21
14.2214
  0
LINE
  8
0
 10
459.493
 20
14.2214
 11
459.394
 21
14.375
  0
LINE
  8
0
 10
459.394
 20
14.375
 11
459.31
 21
14.5382
  0
LINE
  8
0
 10
459.31
 20
14.5382
 11
459.245
 21
14.7092
  0
LINE
  8
0
 10
459.245
 20
14.7092
 11
459.197
 21
14.8862
  0
LINE
  8
0
 10
459.197
 20
14.8862
 11
459.169
 21
15.0671
  0
LINE
  8
0
 10
459.169
 20
15.0671
 11
459.159
 21
15.25
  0
LINE
  8
0
 10
459.159
 20
15.25
 11
459.169
 21
15.4329
  0
LINE
  8
0
 10
459.169
 20
15.4329
 11
459.197
 21
15.6138
  0
LINE
  8
0
 10
459.197
 20
15.6138
 11
459.245
 21
15.7908
  0
LINE
  8
0
 10
459.245
 20
15.7908
 11
459.31
 21
15.9618
  0
LINE
  8
0
 10
459.31
 20
15.9618
 11
459.394
 21
16.125
  0
LINE
  8
0
 10
459.394
 20
16.125
 11
459.493
 21
16.2786
  0
LINE
  8
0
 10
459.493
 20
16.2786
 11
459.609
 21
16.421
  0
LINE
  8
0
 10
459.609
 20
16.421
 11
459.738
 21
16.5505
  0
LINE
  8
0
 10
459.738
 20
16.5505
 11
459.88
 21
16.6658
  0
LINE
  8
0
 10
459.88
 20
16.6658
 11
460.034
 21
16.7655
  0
LINE
  8
0
 10
460.034
 20
16.7655
 11
460.197
 21
16.8487
  0
LINE
  8
0
 10
460.197
 20
16.8487
 11
460.368
 21
16.9144
  0
LINE
  8
0
 10
460.368
 20
16.9144
 11
460.545
 21
16.9618
  0
LINE
  8
0
 10
460.545
 20
16.9618
 11
460.726
 21
16.9904
  0
LINE
  8
0
 10
460.726
 20
16.9904
 11
460.909
 21
17
  0
LINE
  8
0
 10
460.909
 20
17
 11
461.092
 21
16.9904
  0
LINE
  8
0
 10
461.092
 20
16.9904
 11
461.273
 21
16.9618
  0
LINE
  8
0
 10
461.273
 20
16.9618
 11
461.45
 21
16.9144
  0
LINE
  8
0
 10
461.45
 20
16.9144
 11
461.621
 21
16.8487
  0
LINE
  8
0
 10
461.621
 20
16.8487
 11
461.784
 21
16.7655
  0
LINE
  8
0
 10
461.784
 20
16.7655
 11
461.938
 21
16.6658
  0
LINE
  8
0
 10
461.938
 20
16.6658
 11
462.08
 21
16.5505
  0
LINE
  8
0
 10
462.08
 20
16.5505
 11
462.21
 21
16.421
  0
LINE
  8
0
 10
462.21
 20
16.421
 11
462.325
 21
16.2786
  0
LINE
  8
0
 10
462.325
 20
16.2786
 11
462.425
 21
16.125
  0
LINE
  8
0
 10
462.425
 20
16.125
 11
462.508
 21
15.9618
  0
LINE
  8
0
 10
462.508
 20
15.9618
 11
462.573
 21
15.7908
  0
LINE
  8
0
 10
462.573
 20
15.7908
 11
462.621
 21
15.6138
  0
LINE
  8
0
 10
462.621
 20
15.6138
 11
462.649
 21
15.4329
  0
LINE
  8
0
 10
462.649
 20
15.4329
 11
462.659
 21
15.25
  0
LINE
  8
0
 10
462.659
 20
15.25
 11
462.649
 21
15.0671
  0
LINE
  8
0
 10
462.649
 20
15.0671
 11
462.621
 21
14.8862
  0
LINE
  8
0
 10
462.621
 20
14.8862
 11
462.573
 21
14.7092
  0
LINE
  8
0
 10
462.573
 20
14.7092
 11
462.508
 21
14.5382
  0
LINE
  8
0
 10
462.508
 20
14.5382
 11
462.425
 21
14.375
  0
LINE
  8
0
 10
462.425
 20
14.375
 11
462.325
 21
14.2214
  0
LINE
  8
0
 10
462.325
 20
14.2214
 11
462.21
 21
14.079
  0
LINE
  8
0
 10
462.21
 20
14.079
 11
462.08
 21
13.9495
  0
LINE
  8
0
 10
462.08
 20
13.9495
 11
461.938
 21
13.8342
  0
LINE
  8
0
 10
461.938
 20
13.8342
 11
461.784
 21
13.7345
  0
LINE
  8
0
 10
461.784
 20
13.7345
 11
461.621
 21
13.6513
  0
LINE
  8
0
 10
461.621
 20
13.6513
 11
461.45
 21
13.5857
  0
LINE
  8
0
 10
461.45
 20
13.5857
 11
461.273
 21
13.5383
  0
LINE
  8
0
 10
461.273
 20
13.5383
 11
461.092
 21
13.5096
  0
LINE
  8
0
 10
461.092
 20
13.5096
 11
460.909
 21
13.5
  0
LINE
  8
0
 10
460.909
 20
13.5
 11
460.726
 21
13.5096
  0
LINE
  8
0
 10
397.453
 20
13.5096
 11
397.273
 21
13.5383
  0
LINE
  8
0
 10
397.273
 20
13.5383
 11
397.096
 21
13.5857
  0
LINE
  8
0
 10
397.096
 20
13.5857
 11
396.925
 21
13.6513
  0
LINE
  8
0
 10
396.925
 20
13.6513
 11
396.761
 21
13.7345
  0
LINE
  8
0
 10
396.761
 20
13.7345
 11
396.608
 21
13.8342
  0
LINE
  8
0
 10
396.608
 20
13.8342
 11
396.465
 21
13.9495
  0
LINE
  8
0
 10
396.465
 20
13.9495
 11
396.336
 21
14.079
  0
LINE
  8
0
 10
396.336
 20
14.079
 11
396.221
 21
14.2214
  0
LINE
  8
0
 10
396.221
 20
14.2214
 11
396.121
 21
14.375
  0
LINE
  8
0
 10
396.121
 20
14.375
 11
396.038
 21
14.5382
  0
LINE
  8
0
 10
396.038
 20
14.5382
 11
395.972
 21
14.7092
  0
LINE
  8
0
 10
395.972
 20
14.7092
 11
395.925
 21
14.8862
  0
LINE
  8
0
 10
395.925
 20
14.8862
 11
395.896
 21
15.0671
  0
LINE
  8
0
 10
395.896
 20
15.0671
 11
395.886
 21
15.25
  0
LINE
  8
0
 10
395.886
 20
15.25
 11
395.896
 21
15.4329
  0
LINE
  8
0
 10
395.896
 20
15.4329
 11
395.925
 21
15.6138
  0
LINE
  8
0
 10
395.925
 20
15.6138
 11
395.972
 21
15.7908
  0
LINE
  8
0
 10
395.972
 20
15.7908
 11
396.038
 21
15.9618
  0
LINE
  8
0
 10
396.038
 20
15.9618
 11
396.121
 21
16.125
  0
LINE
  8
0
 10
396.121
 20
16.125
 11
396.221
 21
16.2786
  0
LINE
  8
0
 10
396.221
 20
16.2786
 11
396.336
 21
16.421
  0
LINE
  8
0
 10
396.336
 20
16.421
 11
396.465
 21
16.5505
  0
LINE
  8
0
 10
396.465
 20
16.5505
 11
396.608
 21
16.6658
  0
LINE
  8
0
 10
396.608
 20
16.6658
 11
396.761
 21
16.7655
  0
LINE
  8
0
 10
396.761
 20
16.7655
 11
396.925
 21
16.8487
  0
LINE
  8
0
 10
396.925
 20
16.8487
 11
397.096
 21
16.9144
  0
LINE
  8
0
 10
397.096
 20
16.9144
 11
397.273
 21
16.9618
  0
LINE
  8
0
 10
397.273
 20
16.9618
 11
397.453
 21
16.9904
  0
LINE
  8
0
 10
397.453
 20
16.9904
 11
397.636
 21
17
  0
LINE
  8
0
 10
397.636
 20
17
 11
397.819
 21
16.9904
  0
LINE
  8
0
 10
397.819
 20
16.9904
 11
398
 21
16.9618
  0
LINE
  8
0
 10
398
 20
16.9618
 11
398.177
 21
16.9144
  0
LINE
  8
0
 10
398.177
 20
16.9144
 11
398.348
 21
16.8487
  0
LINE
  8
0
 10
398.348
 20
16.8487
 11
398.511
 21
16.7655
  0
LINE
  8
0
 10
398.511
 20
16.7655
 11
398.665
 21
16.6658
  0
LINE
  8
0
 10
398.665
 20
16.6658
 11
398.807
 21
16.5505
  0
LINE
  8
0
 10
398.807
 20
16.5505
 11
398.937
 21
16.421
  0
LINE
  8
0
 10
398.937
 20
16.421
 11
399.052
 21
16.2786
  0
LINE
  8
0
 10
399.052
 20
16.2786
 11
399.152
 21
16.125
  0
LINE
  8
0
 10
399.152
 20
16.125
 11
399.235
 21
15.9618
  0
LINE
  8
0
 10
399.235
 20
15.9618
 11
399.301
 21
15.7908
  0
LINE
  8
0
 10
399.301
 20
15.7908
 11
399.348
 21
15.6138
  0
LINE
  8
0
 10
399.348
 20
15.6138
 11
399.377
 21
15.4329
  0
LINE
  8
0
 10
399.377
 20
15.4329
 11
399.386
 21
15.25
  0
LINE
  8
0
 10
399.386
 20
15.25
 11
399.377
 21
15.0671
  0
LINE
  8
0
 10
399.377
 20
15.0671
 11
399.348
 21
14.8862
  0
LINE
  8
0
 10
399.348
 20
14.8862
 11
399.301
 21
14.7092
  0
LINE
  8
0
 10
399.301
 20
14.7092
 11
399.235
 21
14.5382
  0
LINE
  8
0
 10
399.235
 20
14.5382
 11
399.152
 21
14.375
  0
LINE
  8
0
 10
399.152
 20
14.375
 11
399.052
 21
14.2214
  0
LINE
  8
0
 10
399.052
 20
14.2214
 11
398.937
 21
14.079
  0
LINE
  8
0
 10
398.937
 20
14.079
 11
398.807
 21
13.9495
  0
LINE
  8
0
 10
398.807
 20
13.9495
 11
398.665
 21
13.8342
  0
LINE
  8
0
 10
398.665
 20
13.8342
 11
398.511
 21
13.7345
  0
LINE
  8
0
 10
398.511
 20
13.7345
 11
398.348
 21
13.6513
  0
LINE
  8
0
 10
398.348
 20
13.6513
 11
398.177
 21
13.5857
  0
LINE
  8
0
 10
398.177
 20
13.5857
 11
398
 21
13.5383
  0
LINE
  8
0
 10
398
 20
13.5383
 11
397.819
 21
13.5096
  0
LINE
  8
0
 10
397.819
 20
13.5096
 11
397.636
 21
13.5
  0
LINE
  8
0
 10
397.636
 20
13.5
 11
397.453
 21
13.5096
  0
LINE
  8
0
 10
355.272
 20
13.5096
 11
355.091
 21
13.5383
  0
LINE
  8
0
 10
355.091
 20
13.5383
 11
354.914
 21
13.5857
  0
LINE
  8
0
 10
354.914
 20
13.5857
 11
354.743
 21
13.6513
  0
LINE
  8
0
 10
354.743
 20
13.6513
 11
354.58
 21
13.7345
  0
LINE
  8
0
 10
354.58
 20
13.7345
 11
354.426
 21
13.8342
  0
LINE
  8
0
 10
354.426
 20
13.8342
 11
354.284
 21
13.9495
  0
LINE
  8
0
 10
354.284
 20
13.9495
 11
354.154
 21
14.079
  0
LINE
  8
0
 10
354.154
 20
14.079
 11
354.039
 21
14.2214
  0
LINE
  8
0
 10
354.039
 20
14.2214
 11
353.939
 21
14.375
  0
LINE
  8
0
 10
353.939
 20
14.375
 11
353.856
 21
14.5382
  0
LINE
  8
0
 10
353.856
 20
14.5382
 11
353.79
 21
14.7092
  0
LINE
  8
0
 10
353.79
 20
14.7092
 11
353.743
 21
14.8862
  0
LINE
  8
0
 10
353.743
 20
14.8862
 11
353.714
 21
15.0671
  0
LINE
  8
0
 10
353.714
 20
15.0671
 11
353.705
 21
15.25
  0
LINE
  8
0
 10
353.705
 20
15.25
 11
353.714
 21
15.4329
  0
LINE
  8
0
 10
353.714
 20
15.4329
 11
353.743
 21
15.6138
  0
LINE
  8
0
 10
353.743
 20
15.6138
 11
353.79
 21
15.7908
  0
LINE
  8
0
 10
353.79
 20
15.7908
 11
353.856
 21
15.9618
  0
LINE
  8
0
 10
353.856
 20
15.9618
 11
353.939
 21
16.125
  0
LINE
  8
0
 10
353.939
 20
16.125
 11
354.039
 21
16.2786
  0
LINE
  8
0
 10
354.039
 20
16.2786
 11
354.154
 21
16.421
  0
LINE
  8
0
 10
354.154
 20
16.421
 11
354.284
 21
16.5505
  0
LINE
  8
0
 10
354.284
 20
16.5505
 11
354.426
 21
16.6658
  0
LINE
  8
0
 10
354.426
 20
16.6658
 11
354.58
 21
16.7655
  0
LINE
  8
0
 10
354.58
 20
16.7655
 11
354.743
 21
16.8487
  0
LINE
  8
0
 10
354.743
 20
16.8487
 11
354.914
 21
16.9144
  0
LINE
  8
0
 10
354.914
 20
16.9144
 11
355.091
 21
16.9618
  0
LINE
  8
0
 10
355.091
 20
16.9618
 11
355.272
 21
16.9904
  0
LINE
  8
0
 10
355.272
 20
16.9904
 11
355.455
 21
17
  0
LINE
  8
0
 10
355.455
 20
17
 11
355.637
 21
16.9904
  0
LINE
  8
0
 10
355.637
 20
16.9904
 11
355.818
 21
16.9618
  0
LINE
  8
0
 10
355.818
 20
16.9618
 11
355.995
 21
16.9144
  0
LINE
  8
0
 10
355.995
 20
16.9144
 11
356.166
 21
16.8487
  0
LINE
  8
0
 10
356.166
 20
16.8487
 11
356.33
 21
16.7655
  0
LINE
  8
0
 10
356.33
 20
16.7655
 11
356.483
 21
16.6658
  0
LINE
  8
0
 10
356.483
 20
16.6658
 11
356.626
 21
16.5505
  0
LINE
  8
0
 10
356.626
 20
16.5505
 11
356.755
 21
16.421
  0
LINE
  8
0
 10
356.755
 20
16.421
 11
356.87
 21
16.2786
  0
LINE
  8
0
 10
356.87
 20
16.2786
 11
356.97
 21
16.125
  0
LINE
  8
0
 10
356.97
 20
16.125
 11
357.053
 21
15.9618
  0
LINE
  8
0
 10
357.053
 20
15.9618
 11
357.119
 21
15.7908
  0
LINE
  8
0
 10
357.119
 20
15.7908
 11
357.166
 21
15.6138
  0
LINE
  8
0
 10
357.166
 20
15.6138
 11
357.195
 21
15.4329
  0
LINE
  8
0
 10
357.195
 20
15.4329
 11
357.205
 21
15.25
  0
LINE
  8
0
 10
357.205
 20
15.25
 11
357.195
 21
15.0671
  0
LINE
  8
0
 10
357.195
 20
15.0671
 11
357.166
 21
14.8862
  0
LINE
  8
0
 10
357.166
 20
14.8862
 11
357.119
 21
14.7092
  0
LINE
  8
0
 10
357.119
 20
14.7092
 11
357.053
 21
14.5382
  0
LINE
  8
0
 10
357.053
 20
14.5382
 11
356.97
 21
14.375
  0
LINE
  8
0
 10
356.97
 20
14.375
 11
356.87
 21
14.2214
  0
LINE
  8
0
 10
356.87
 20
14.2214
 11
356.755
 21
14.079
  0
LINE
  8
0
 10
356.755
 20
14.079
 11
356.626
 21
13.9495
  0
LINE
  8
0
 10
356.626
 20
13.9495
 11
356.483
 21
13.8342
  0
LINE
  8
0
 10
356.483
 20
13.8342
 11
356.33
 21
13.7345
  0
LINE
  8
0
 10
356.33
 20
13.7345
 11
356.166
 21
13.6513
  0
LINE
  8
0
 10
356.166
 20
13.6513
 11
355.995
 21
13.5857
  0
LINE
  8
0
 10
355.995
 20
13.5857
 11
355.818
 21
13.5383
  0
LINE
  8
0
 10
355.818
 20
13.5383
 11
355.637
 21
13.5096
  0
LINE
  8
0
 10
355.637
 20
13.5096
 11
355.455
 21
13.5
  0
LINE
  8
0
 10
355.455
 20
13.5
 11
355.272
 21
13.5096
  0
LINE
  8
0
 10
123.272
 20
13.5096
 11
123.091
 21
13.5383
  0
LINE
  8
0
 10
123.091
 20
13.5383
 11
122.914
 21
13.5857
  0
LINE
  8
0
 10
122.914
 20
13.5857
 11
122.743
 21
13.6513
  0
LINE
  8
0
 10
122.743
 20
13.6513
 11
122.58
 21
13.7345
  0
LINE
  8
0
 10
122.58
 20
13.7345
 11
122.426
 21
13.8342
  0
LINE
  8
0
 10
122.426
 20
13.8342
 11
122.284
 21
13.9495
  0
LINE
  8
0
 10
122.284
 20
13.9495
 11
122.154
 21
14.079
  0
LINE
  8
0
 10
122.154
 20
14.079
 11
122.039
 21
14.2214
  0
LINE
  8
0
 10
122.039
 20
14.2214
 11
121.939
 21
14.375
  0
LINE
  8
0
 10
121.939
 20
14.375
 11
121.856
 21
14.5382
  0
LINE
  8
0
 10
121.856
 20
14.5382
 11
121.79
 21
14.7092
  0
LINE
  8
0
 10
121.79
 20
14.7092
 11
121.743
 21
14.8862
  0
LINE
  8
0
 10
121.743
 20
14.8862
 11
121.714
 21
15.0671
  0
LINE
  8
0
 10
121.714
 20
15.0671
 11
121.705
 21
15.25
  0
LINE
  8
0
 10
121.705
 20
15.25
 11
121.714
 21
15.4329
  0
LINE
  8
0
 10
121.714
 20
15.4329
 11
121.743
 21
15.6138
  0
LINE
  8
0
 10
121.743
 20
15.6138
 11
121.79
 21
15.7908
  0
LINE
  8
0
 10
121.79
 20
15.7908
 11
121.856
 21
15.9618
  0
LINE
  8
0
 10
121.856
 20
15.9618
 11
121.939
 21
16.125
  0
LINE
  8
0
 10
121.939
 20
16.125
 11
122.039
 21
16.2786
  0
LINE
  8
0
 10
122.039
 20
16.2786
 11
122.154
 21
16.421
  0
LINE
  8
0
 10
122.154
 20
16.421
 11
122.284
 21
16.5505
  0
LINE
  8
0
 10
122.284
 20
16.5505
 11
122.426
 21
16.6658
  0
LINE
  8
0
 10
122.426
 20
16.6658
 11
122.58
 21
16.7655
  0
LINE
  8
0
 10
122.58
 20
16.7655
 11
122.743
 21
16.8487
  0
LINE
  8
0
 10
122.743
 20
16.8487
 11
122.914
 21
16.9144
  0
LINE
  8
0
 10
122.914
 20
16.9144
 11
123.091
 21
16.9618
  0
LINE
  8
0
 10
123.091
 20
16.9618
 11
123.272
 21
16.9904
  0
LINE
  8
0
 10
123.272
 20
16.9904
 11
123.455
 21
17
  0
LINE
  8
0
 10
123.455
 20
17
 11
123.637
 21
16.9904
  0
LINE
  8
0
 10
123.637
 20
16.9904
 11
123.818
 21
16.9618
  0
LINE
  8
0
 10
123.818
 20
16.9618
 11
123.995
 21
16.9144
  0
LINE
  8
0
 10
123.995
 20
16.9144
 11
124.166
 21
16.8487
  0
LINE
  8
0
 10
124.166
 20
16.8487
 11
124.33
 21
16.7655
  0
LINE
  8
0
 10
124.33
 20
16.7655
 11
124.483
 21
16.6658
  0
LINE
  8
0
 10
124.483
 20
16.6658
 11
124.626
 21
16.5505
  0
LINE
  8
0
 10
124.626
 20
16.5505
 11
124.755
 21
16.421
  0
LINE
  8
0
 10
124.755
 20
16.421
 11
124.87
 21
16.2786
  0
LINE
  8
0
 10
124.87
 20
16.2786
 11
124.97
 21
16.125
  0
LINE
  8
0
 10
124.97
 20
16.125
 11
125.053
 21
15.9618
  0
LINE
  8
0
 10
125.053
 20
15.9618
 11
125.119
 21
15.7908
  0
LINE
  8
0
 10
125.119
 20
15.7908
 11
125.166
 21
15.6138
  0
LINE
  8
0
 10
125.166
 20
15.6138
 11
125.195
 21
15.4329
  0
LINE
  8
0
 10
125.195
 20
15.4329
 11
125.205
 21
15.25
  0
LINE
  8
0
 10
125.205
 20
15.25
 11
125.195
 21
15.0671
  0
LINE
  8
0
 10
125.195
 20
15.0671
 11
125.166
 21
14.8862
  0
LINE
  8
0
 10
125.166
 20
14.8862
 11
125.119
 21
14.7092
  0
LINE
  8
0
 10
125.119
 20
14.7092
 11
125.053
 21
14.5382
  0
LINE
  8
0
 10
125.053
 20
14.5382
 11
124.97
 21
14.375
  0
LINE
  8
0
 10
124.97
 20
14.375
 11
124.87
 21
14.2214
  0
LINE
  8
0
 10
124.87
 20
14.2214
 11
124.755
 21
14.079
  0
LINE
  8
0
 10
124.755
 20
14.079
 11
124.626
 21
13.9495
  0
LINE
  8
0
 10
124.626
 20
13.9495
 11
124.483
 21
13.8342
  0
LINE
  8
0
 10
124.483
 20
13.8342
 11
124.33
 21
13.7345
  0
LINE
  8
0
 10
124.33
 20
13.7345
 11
124.166
 21
13.6513
  0
LINE
  8
0
 10
124.166
 20
13.6513
 11
123.995
 21
13.5857
  0
LINE
  8
0
 10
123.995
 20
13.5857
 11
123.818
 21
13.5383
  0
LINE
  8
0
 10
123.818
 20
13.5383
 11
123.637
 21
13.5096
  0
LINE
  8
0
 10
123.637
 20
13.5096
 11
123.455
 21
13.5
  0
LINE
  8
0
 10
123.455
 20
13.5
 11
123.272
 21
13.5096
  0
LINE
  8
0
 10
102.181
 20
13.5096
 11
102
 21
13.5383
  0
LINE
  8
0
 10
102
 20
13.5383
 11
101.823
 21
13.5857
  0
LINE
  8
0
 10
101.823
 20
13.5857
 11
101.652
 21
13.6513
  0
LINE
  8
0
 10
101.652
 20
13.6513
 11
101.489
 21
13.7345
  0
LINE
  8
0
 10
101.489
 20
13.7345
 11
101.335
 21
13.8342
  0
LINE
  8
0
 10
101.335
 20
13.8342
 11
101.193
 21
13.9495
  0
LINE
  8
0
 10
101.193
 20
13.9495
 11
101.063
 21
14.079
  0
LINE
  8
0
 10
101.063
 20
14.079
 11
100.948
 21
14.2214
  0
LINE
  8
0
 10
100.948
 20
14.2214
 11
100.848
 21
14.375
  0
LINE
  8
0
 10
100.848
 20
14.375
 11
100.765
 21
14.5382
  0
LINE
  8
0
 10
100.765
 20
14.5382
 11
100.699
 21
14.7092
  0
LINE
  8
0
 10
100.699
 20
14.7092
 11
100.652
 21
14.8862
  0
LINE
  8
0
 10
100.652
 20
14.8862
 11
100.623
 21
15.0671
  0
LINE
  8
0
 10
100.623
 20
15.0671
 11
100.614
 21
15.25
  0
LINE
  8
0
 10
100.614
 20
15.25
 11
100.623
 21
15.4329
  0
LINE
  8
0
 10
100.623
 20
15.4329
 11
100.652
 21
15.6138
  0
LINE
  8
0
 10
100.652
 20
15.6138
 11
100.699
 21
15.7908
  0
LINE
  8
0
 10
100.699
 20
15.7908
 11
100.765
 21
15.9618
  0
LINE
  8
0
 10
100.765
 20
15.9618
 11
100.848
 21
16.125
  0
LINE
  8
0
 10
100.848
 20
16.125
 11
100.948
 21
16.2786
  0
LINE
  8
0
 10
100.948
 20
16.2786
 11
101.063
 21
16.421
  0
LINE
  8
0
 10
101.063
 20
16.421
 11
101.193
 21
16.5505
  0
LINE
  8
0
 10
101.193
 20
16.5505
 11
101.335
 21
16.6658
  0
LINE
  8
0
 10
101.335
 20
16.6658
 11
101.489
 21
16.7655
  0
LINE
  8
0
 10
101.489
 20
16.7655
 11
101.652
 21
16.8487
  0
LINE
  8
0
 10
101.652
 20
16.8487
 11
101.823
 21
16.9144
  0
LINE
  8
0
 10
101.823
 20
16.9144
 11
102
 21
16.9618
  0
LINE
  8
0
 10
102
 20
16.9618
 11
102.181
 21
16.9904
  0
LINE
  8
0
 10
102.181
 20
16.9904
 11
102.364
 21
17
  0
LINE
  8
0
 10
102.364
 20
17
 11
102.547
 21
16.9904
  0
LINE
  8
0
 10
102.547
 20
16.9904
 11
102.727
 21
16.9618
  0
LINE
  8
0
 10
102.727
 20
16.9618
 11
102.904
 21
16.9144
  0
LINE
  8
0
 10
102.904
 20
16.9144
 11
103.075
 21
16.8487
  0
LINE
  8
0
 10
103.075
 20
16.8487
 11
103.239
 21
16.7655
  0
LINE
  8
0
 10
103.239
 20
16.7655
 11
103.392
 21
16.6658
  0
LINE
  8
0
 10
103.392
 20
16.6658
 11
103.535
 21
16.5505
  0
LINE
  8
0
 10
103.535
 20
16.5505
 11
103.664
 21
16.421
  0
LINE
  8
0
 10
103.664
 20
16.421
 11
103.779
 21
16.2786
  0
LINE
  8
0
 10
103.779
 20
16.2786
 11
103.879
 21
16.125
  0
LINE
  8
0
 10
103.879
 20
16.125
 11
103.962
 21
15.9618
  0
LINE
  8
0
 10
103.962
 20
15.9618
 11
104.028
 21
15.7908
  0
LINE
  8
0
 10
104.028
 20
15.7908
 11
104.075
 21
15.6138
  0
LINE
  8
0
 10
104.075
 20
15.6138
 11
104.104
 21
15.4329
  0
LINE
  8
0
 10
104.104
 20
15.4329
 11
104.114
 21
15.25
  0
LINE
  8
0
 10
104.114
 20
15.25
 11
104.104
 21
15.0671
  0
LINE
  8
0
 10
104.104
 20
15.0671
 11
104.075
 21
14.8862
  0
LINE
  8
0
 10
104.075
 20
14.8862
 11
104.028
 21
14.7092
  0
LINE
  8
0
 10
104.028
 20
14.7092
 11
103.962
 21
14.5382
  0
LINE
  8
0
 10
103.962
 20
14.5382
 11
103.879
 21
14.375
  0
LINE
  8
0
 10
103.879
 20
14.375
 11
103.779
 21
14.2214
  0
LINE
  8
0
 10
103.779
 20
14.2214
 11
103.664
 21
14.079
  0
LINE
  8
0
 10
103.664
 20
14.079
 11
103.535
 21
13.9495
  0
LINE
  8
0
 10
103.535
 20
13.9495
 11
103.392
 21
13.8342
  0
LINE
  8
0
 10
103.392
 20
13.8342
 11
103.239
 21
13.7345
  0
LINE
  8
0
 10
103.239
 20
13.7345
 11
103.075
 21
13.6513
  0
LINE
  8
0
 10
103.075
 20
13.6513
 11
102.904
 21
13.5857
  0
LINE
  8
0
 10
102.904
 20
13.5857
 11
102.727
 21
13.5383
  0
LINE
  8
0
 10
102.727
 20
13.5383
 11
102.547
 21
13.5096
  0
LINE
  8
0
 10
102.547
 20
13.5096
 11
102.364
 21
13.5
  0
LINE
  8
0
 10
102.364
 20
13.5
 11
102.181
 21
13.5096
  0
LINE
  8
0
 10
186.544
 20
13.5096
 11
186.363
 21
13.5383
  0
LINE
  8
0
 10
186.363
 20
13.5383
 11
186.186
 21
13.5857
  0
LINE
  8
0
 10
186.186
 20
13.5857
 11
186.015
 21
13.6513
  0
LINE
  8
0
 10
186.015
 20
13.6513
 11
185.852
 21
13.7345
  0
LINE
  8
0
 10
185.852
 20
13.7345
 11
185.699
 21
13.8342
  0
LINE
  8
0
 10
185.699
 20
13.8342
 11
185.556
 21
13.9495
  0
LINE
  8
0
 10
185.556
 20
13.9495
 11
185.427
 21
14.079
  0
LINE
  8
0
 10
185.427
 20
14.079
 11
185.311
 21
14.2214
  0
LINE
  8
0
 10
185.311
 20
14.2214
 11
185.212
 21
14.375
  0
LINE
  8
0
 10
185.212
 20
14.375
 11
185.129
 21
14.5382
  0
LINE
  8
0
 10
185.129
 20
14.5382
 11
185.063
 21
14.7092
  0
LINE
  8
0
 10
185.063
 20
14.7092
 11
185.016
 21
14.8862
  0
LINE
  8
0
 10
185.016
 20
14.8862
 11
184.987
 21
15.0671
  0
LINE
  8
0
 10
184.987
 20
15.0671
 11
184.977
 21
15.25
  0
LINE
  8
0
 10
184.977
 20
15.25
 11
184.987
 21
15.4329
  0
LINE
  8
0
 10
184.987
 20
15.4329
 11
185.016
 21
15.6138
  0
LINE
  8
0
 10
185.016
 20
15.6138
 11
185.063
 21
15.7908
  0
LINE
  8
0
 10
185.063
 20
15.7908
 11
185.129
 21
15.9618
  0
LINE
  8
0
 10
185.129
 20
15.9618
 11
185.212
 21
16.125
  0
LINE
  8
0
 10
185.212
 20
16.125
 11
185.311
 21
16.2786
  0
LINE
  8
0
 10
185.311
 20
16.2786
 11
185.427
 21
16.421
  0
LINE
  8
0
 10
185.427
 20
16.421
 11
185.556
 21
16.5505
  0
LINE
  8
0
 10
185.556
 20
16.5505
 11
185.699
 21
16.6658
  0
LINE
  8
0
 10
185.699
 20
16.6658
 11
185.852
 21
16.7655
  0
LINE
  8
0
 10
185.852
 20
16.7655
 11
186.015
 21
16.8487
  0
LINE
  8
0
 10
186.015
 20
16.8487
 11
186.186
 21
16.9144
  0
LINE
  8
0
 10
186.186
 20
16.9144
 11
186.363
 21
16.9618
  0
LINE
  8
0
 10
186.363
 20
16.9618
 11
186.544
 21
16.9904
  0
LINE
  8
0
 10
186.544
 20
16.9904
 11
186.727
 21
17
  0
LINE
  8
0
 10
186.727
 20
17
 11
186.91
 21
16.9904
  0
LINE
  8
0
 10
186.91
 20
16.9904
 11
187.091
 21
16.9618
  0
LINE
  8
0
 10
187.091
 20
16.9618
 11
187.268
 21
16.9144
  0
LINE
  8
0
 10
187.268
 20
16.9144
 11
187.439
 21
16.8487
  0
LINE
  8
0
 10
187.439
 20
16.8487
 11
187.602
 21
16.7655
  0
LINE
  8
0
 10
187.602
 20
16.7655
 11
187.756
 21
16.6658
  0
LINE
  8
0
 10
187.756
 20
16.6658
 11
187.898
 21
16.5505
  0
LINE
  8
0
 10
187.898
 20
16.5505
 11
188.028
 21
16.421
  0
LINE
  8
0
 10
188.028
 20
16.421
 11
188.143
 21
16.2786
  0
LINE
  8
0
 10
188.143
 20
16.2786
 11
188.243
 21
16.125
  0
LINE
  8
0
 10
188.243
 20
16.125
 11
188.326
 21
15.9618
  0
LINE
  8
0
 10
188.326
 20
15.9618
 11
188.392
 21
15.7908
  0
LINE
  8
0
 10
188.392
 20
15.7908
 11
188.439
 21
15.6138
  0
LINE
  8
0
 10
188.439
 20
15.6138
 11
188.468
 21
15.4329
  0
LINE
  8
0
 10
188.468
 20
15.4329
 11
188.477
 21
15.25
  0
LINE
  8
0
 10
188.477
 20
15.25
 11
188.468
 21
15.0671
  0
LINE
  8
0
 10
188.468
 20
15.0671
 11
188.439
 21
14.8862
  0
LINE
  8
0
 10
188.439
 20
14.8862
 11
188.392
 21
14.7092
  0
LINE
  8
0
 10
188.392
 20
14.7092
 11
188.326
 21
14.5382
  0
LINE
  8
0
 10
188.326
 20
14.5382
 11
188.243
 21
14.375
  0
LINE
  8
0
 10
188.243
 20
14.375
 11
188.143
 21
14.2214
  0
LINE
  8
0
 10
188.143
 20
14.2214
 11
188.028
 21
14.079
  0
LINE
  8
0
 10
188.028
 20
14.079
 11
187.898
 21
13.9495
  0
LINE
  8
0
 10
187.898
 20
13.9495
 11
187.756
 21
13.8342
  0
LINE
  8
0
 10
187.756
 20
13.8342
 11
187.602
 21
13.7345
  0
LINE
  8
0
 10
187.602
 20
13.7345
 11
187.439
 21
13.6513
  0
LINE
  8
0
 10
187.439
 20
13.6513
 11
187.268
 21
13.5857
  0
LINE
  8
0
 10
187.268
 20
13.5857
 11
187.091
 21
13.5383
  0
LINE
  8
0
 10
187.091
 20
13.5383
 11
186.91
 21
13.5096
  0
LINE
  8
0
 10
186.91
 20
13.5096
 11
186.727
 21
13.5
  0
LINE
  8
0
 10
186.727
 20
13.5
 11
186.544
 21
13.5096
  0
LINE
  8
0
 10
81.0898
 20
13.5096
 11
80.9089
 21
13.5383
  0
LINE
  8
0
 10
80.9089
 20
13.5383
 11
80.7319
 21
13.5857
  0
LINE
  8
0
 10
80.7319
 20
13.5857
 11
80.5609
 21
13.6513
  0
LINE
  8
0
 10
80.5609
 20
13.6513
 11
80.3977
 21
13.7345
  0
LINE
  8
0
 10
80.3977
 20
13.7345
 11
80.2441
 21
13.8342
  0
LINE
  8
0
 10
80.2441
 20
13.8342
 11
80.1017
 21
13.9495
  0
LINE
  8
0
 10
80.1017
 20
13.9495
 11
79.9722
 21
14.079
  0
LINE
  8
0
 10
79.9722
 20
14.079
 11
79.8569
 21
14.2214
  0
LINE
  8
0
 10
79.8569
 20
14.2214
 11
79.7572
 21
14.375
  0
LINE
  8
0
 10
79.7572
 20
14.375
 11
79.674
 21
14.5382
  0
LINE
  8
0
 10
79.674
 20
14.5382
 11
79.6084
 21
14.7092
  0
LINE
  8
0
 10
79.6084
 20
14.7092
 11
79.561
 21
14.8862
  0
LINE
  8
0
 10
79.561
 20
14.8862
 11
79.5323
 21
15.0671
  0
LINE
  8
0
 10
79.5323
 20
15.0671
 11
79.5227
 21
15.25
  0
LINE
  8
0
 10
79.5227
 20
15.25
 11
79.5323
 21
15.4329
  0
LINE
  8
0
 10
79.5323
 20
15.4329
 11
79.561
 21
15.6138
  0
LINE
  8
0
 10
79.561
 20
15.6138
 11
79.6084
 21
15.7908
  0
LINE
  8
0
 10
79.6084
 20
15.7908
 11
79.674
 21
15.9618
  0
LINE
  8
0
 10
79.674
 20
15.9618
 11
79.7572
 21
16.125
  0
LINE
  8
0
 10
79.7572
 20
16.125
 11
79.8569
 21
16.2786
  0
LINE
  8
0
 10
79.8569
 20
16.2786
 11
79.9722
 21
16.421
  0
LINE
  8
0
 10
79.9722
 20
16.421
 11
80.1017
 21
16.5505
  0
LINE
  8
0
 10
80.1017
 20
16.5505
 11
80.2441
 21
16.6658
  0
LINE
  8
0
 10
80.2441
 20
16.6658
 11
80.3977
 21
16.7655
  0
LINE
  8
0
 10
80.3977
 20
16.7655
 11
80.5609
 21
16.8487
  0
LINE
  8
0
 10
80.5609
 20
16.8487
 11
80.7319
 21
16.9144
  0
LINE
  8
0
 10
80.7319
 20
16.9144
 11
80.9089
 21
16.9618
  0
LINE
  8
0
 10
80.9089
 20
16.9618
 11
81.0898
 21
16.9904
  0
LINE
  8
0
 10
81.0898
 20
16.9904
 11
81.2727
 21
17
  0
LINE
  8
0
 10
81.2727
 20
17
 11
81.4556
 21
16.9904
  0
LINE
  8
0
 10
81.4556
 20
16.9904
 11
81.6366
 21
16.9618
  0
LINE
  8
0
 10
81.6366
 20
16.9618
 11
81.8135
 21
16.9144
  0
LINE
  8
0
 10
81.8135
 20
16.9144
 11
81.9845
 21
16.8487
  0
LINE
  8
0
 10
81.9845
 20
16.8487
 11
82.1477
 21
16.7655
  0
LINE
  8
0
 10
82.1477
 20
16.7655
 11
82.3013
 21
16.6658
  0
LINE
  8
0
 10
82.3013
 20
16.6658
 11
82.4437
 21
16.5505
  0
LINE
  8
0
 10
82.4437
 20
16.5505
 11
82.5732
 21
16.421
  0
LINE
  8
0
 10
82.5732
 20
16.421
 11
82.6885
 21
16.2786
  0
LINE
  8
0
 10
82.6885
 20
16.2786
 11
82.7883
 21
16.125
  0
LINE
  8
0
 10
82.7883
 20
16.125
 11
82.8714
 21
15.9618
  0
LINE
  8
0
 10
82.8714
 20
15.9618
 11
82.9371
 21
15.7908
  0
LINE
  8
0
 10
82.9371
 20
15.7908
 11
82.9845
 21
15.6138
  0
LINE
  8
0
 10
82.9845
 20
15.6138
 11
83.0131
 21
15.4329
  0
LINE
  8
0
 10
83.0131
 20
15.4329
 11
83.0227
 21
15.25
  0
LINE
  8
0
 10
83.0227
 20
15.25
 11
83.0131
 21
15.0671
  0
LINE
  8
0
 10
83.0131
 20
15.0671
 11
82.9845
 21
14.8862
  0
LINE
  8
0
 10
82.9845
 20
14.8862
 11
82.9371
 21
14.7092
  0
LINE
  8
0
 10
82.9371
 20
14.7092
 11
82.8714
 21
14.5382
  0
LINE
  8
0
 10
82.8714
 20
14.5382
 11
82.7883
 21
14.375
  0
LINE
  8
0
 10
82.7883
 20
14.375
 11
82.6885
 21
14.2214
  0
LINE
  8
0
 10
82.6885
 20
14.2214
 11
82.5732
 21
14.079
  0
LINE
  8
0
 10
82.5732
 20
14.079
 11
82.4437
 21
13.9495
  0
LINE
  8
0
 10
82.4437
 20
13.9495
 11
82.3013
 21
13.8342
  0
LINE
  8
0
 10
82.3013
 20
13.8342
 11
82.1477
 21
13.7345
  0
LINE
  8
0
 10
82.1477
 20
13.7345
 11
81.9845
 21
13.6513
  0
LINE
  8
0
 10
81.9845
 20
13.6513
 11
81.8135
 21
13.5857
  0
LINE
  8
0
 10
81.8135
 20
13.5857
 11
81.6366
 21
13.5383
  0
LINE
  8
0
 10
81.6366
 20
13.5383
 11
81.4556
 21
13.5096
  0
LINE
  8
0
 10
81.4556
 20
13.5096
 11
81.2727
 21
13.5
  0
LINE
  8
0
 10
81.2727
 20
13.5
 11
81.0898
 21
13.5096
  0
LINE
  8
0
 10
207.635
 20
13.5096
 11
207.454
 21
13.5383
  0
LINE
  8
0
 10
207.454
 20
13.5383
 11
207.277
 21
13.5857
  0
LINE
  8
0
 10
207.277
 20
13.5857
 11
207.106
 21
13.6513
  0
LINE
  8
0
 10
207.106
 20
13.6513
 11
206.943
 21
13.7345
  0
LINE
  8
0
 10
206.943
 20
13.7345
 11
206.79
 21
13.8342
  0
LINE
  8
0
 10
206.79
 20
13.8342
 11
206.647
 21
13.9495
  0
LINE
  8
0
 10
206.647
 20
13.9495
 11
206.518
 21
14.079
  0
LINE
  8
0
 10
206.518
 20
14.079
 11
206.402
 21
14.2214
  0
LINE
  8
0
 10
206.402
 20
14.2214
 11
206.303
 21
14.375
  0
LINE
  8
0
 10
206.303
 20
14.375
 11
206.219
 21
14.5382
  0
LINE
  8
0
 10
206.219
 20
14.5382
 11
206.154
 21
14.7092
  0
LINE
  8
0
 10
206.154
 20
14.7092
 11
206.106
 21
14.8862
  0
LINE
  8
0
 10
206.106
 20
14.8862
 11
206.078
 21
15.0671
  0
LINE
  8
0
 10
206.078
 20
15.0671
 11
206.068
 21
15.25
  0
LINE
  8
0
 10
206.068
 20
15.25
 11
206.078
 21
15.4329
  0
LINE
  8
0
 10
206.078
 20
15.4329
 11
206.106
 21
15.6138
  0
LINE
  8
0
 10
206.106
 20
15.6138
 11
206.154
 21
15.7908
  0
LINE
  8
0
 10
206.154
 20
15.7908
 11
206.219
 21
15.9618
  0
LINE
  8
0
 10
206.219
 20
15.9618
 11
206.303
 21
16.125
  0
LINE
  8
0
 10
206.303
 20
16.125
 11
206.402
 21
16.2786
  0
LINE
  8
0
 10
206.402
 20
16.2786
 11
206.518
 21
16.421
  0
LINE
  8
0
 10
206.518
 20
16.421
 11
206.647
 21
16.5505
  0
LINE
  8
0
 10
206.647
 20
16.5505
 11
206.79
 21
16.6658
  0
LINE
  8
0
 10
206.79
 20
16.6658
 11
206.943
 21
16.7655
  0
LINE
  8
0
 10
206.943
 20
16.7655
 11
207.106
 21
16.8487
  0
LINE
  8
0
 10
207.106
 20
16.8487
 11
207.277
 21
16.9144
  0
LINE
  8
0
 10
207.277
 20
16.9144
 11
207.454
 21
16.9618
  0
LINE
  8
0
 10
207.454
 20
16.9618
 11
207.635
 21
16.9904
  0
LINE
  8
0
 10
207.635
 20
16.9904
 11
207.818
 21
17
  0
LINE
  8
0
 10
207.818
 20
17
 11
208.001
 21
16.9904
  0
LINE
  8
0
 10
208.001
 20
16.9904
 11
208.182
 21
16.9618
  0
LINE
  8
0
 10
208.182
 20
16.9618
 11
208.359
 21
16.9144
  0
LINE
  8
0
 10
208.359
 20
16.9144
 11
208.53
 21
16.8487
  0
LINE
  8
0
 10
208.53
 20
16.8487
 11
208.693
 21
16.7655
  0
LINE
  8
0
 10
208.693
 20
16.7655
 11
208.847
 21
16.6658
  0
LINE
  8
0
 10
208.847
 20
16.6658
 11
208.989
 21
16.5505
  0
LINE
  8
0
 10
208.989
 20
16.5505
 11
209.119
 21
16.421
  0
LINE
  8
0
 10
209.119
 20
16.421
 11
209.234
 21
16.2786
  0
LINE
  8
0
 10
209.234
 20
16.2786
 11
209.334
 21
16.125
  0
LINE
  8
0
 10
209.334
 20
16.125
 11
209.417
 21
15.9618
  0
LINE
  8
0
 10
209.417
 20
15.9618
 11
209.483
 21
15.7908
  0
LINE
  8
0
 10
209.483
 20
15.7908
 11
209.53
 21
15.6138
  0
LINE
  8
0
 10
209.53
 20
15.6138
 11
209.559
 21
15.4329
  0
LINE
  8
0
 10
209.559
 20
15.4329
 11
209.568
 21
15.25
  0
LINE
  8
0
 10
209.568
 20
15.25
 11
209.559
 21
15.0671
  0
LINE
  8
0
 10
209.559
 20
15.0671
 11
209.53
 21
14.8862
  0
LINE
  8
0
 10
209.53
 20
14.8862
 11
209.483
 21
14.7092
  0
LINE
  8
0
 10
209.483
 20
14.7092
 11
209.417
 21
14.5382
  0
LINE
  8
0
 10
209.417
 20
14.5382
 11
209.334
 21
14.375
  0
LINE
  8
0
 10
209.334
 20
14.375
 11
209.234
 21
14.2214
  0
LINE
  8
0
 10
209.234
 20
14.2214
 11
209.119
 21
14.079
  0
LINE
  8
0
 10
209.119
 20
14.079
 11
208.989
 21
13.9495
  0
LINE
  8
0
 10
208.989
 20
13.9495
 11
208.847
 21
13.8342
  0
LINE
  8
0
 10
208.847
 20
13.8342
 11
208.693
 21
13.7345
  0
LINE
  8
0
 10
208.693
 20
13.7345
 11
208.53
 21
13.6513
  0
LINE
  8
0
 10
208.53
 20
13.6513
 11
208.359
 21
13.5857
  0
LINE
  8
0
 10
208.359
 20
13.5857
 11
208.182
 21
13.5383
  0
LINE
  8
0
 10
208.182
 20
13.5383
 11
208.001
 21
13.5096
  0
LINE
  8
0
 10
208.001
 20
13.5096
 11
207.818
 21
13.5
  0
LINE
  8
0
 10
207.818
 20
13.5
 11
207.635
 21
13.5096
  0
LINE
  8
0
 10
59.9989
 20
13.5096
 11
59.818
 21
13.5383
  0
LINE
  8
0
 10
59.818
 20
13.5383
 11
59.641
 21
13.5857
  0
LINE
  8
0
 10
59.641
 20
13.5857
 11
59.47
 21
13.6513
  0
LINE
  8
0
 10
59.47
 20
13.6513
 11
59.3068
 21
13.7345
  0
LINE
  8
0
 10
59.3068
 20
13.7345
 11
59.1532
 21
13.8342
  0
LINE
  8
0
 10
59.1532
 20
13.8342
 11
59.0108
 21
13.9495
  0
LINE
  8
0
 10
59.0108
 20
13.9495
 11
58.8813
 21
14.079
  0
LINE
  8
0
 10
58.8813
 20
14.079
 11
58.766
 21
14.2214
  0
LINE
  8
0
 10
58.766
 20
14.2214
 11
58.6663
 21
14.375
  0
LINE
  8
0
 10
58.6663
 20
14.375
 11
58.5831
 21
14.5382
  0
LINE
  8
0
 10
58.5831
 20
14.5382
 11
58.5175
 21
14.7092
  0
LINE
  8
0
 10
58.5175
 20
14.7092
 11
58.4701
 21
14.8862
  0
LINE
  8
0
 10
58.4701
 20
14.8862
 11
58.4414
 21
15.0671
  0
LINE
  8
0
 10
58.4414
 20
15.0671
 11
58.4318
 21
15.25
  0
LINE
  8
0
 10
58.4318
 20
15.25
 11
58.4414
 21
15.4329
  0
LINE
  8
0
 10
58.4414
 20
15.4329
 11
58.4701
 21
15.6138
  0
LINE
  8
0
 10
58.4701
 20
15.6138
 11
58.5175
 21
15.7908
  0
LINE
  8
0
 10
58.5175
 20
15.7908
 11
58.5831
 21
15.9618
  0
LINE
  8
0
 10
58.5831
 20
15.9618
 11
58.6663
 21
16.125
  0
LINE
  8
0
 10
58.6663
 20
16.125
 11
58.766
 21
16.2786
  0
LINE
  8
0
 10
58.766
 20
16.2786
 11
58.8813
 21
16.421
  0
LINE
  8
0
 10
58.8813
 20
16.421
 11
59.0108
 21
16.5505
  0
LINE
  8
0
 10
59.0108
 20
16.5505
 11
59.1532
 21
16.6658
  0
LINE
  8
0
 10
59.1532
 20
16.6658
 11
59.3068
 21
16.7655
  0
LINE
  8
0
 10
59.3068
 20
16.7655
 11
59.47
 21
16.8487
  0
LINE
  8
0
 10
59.47
 20
16.8487
 11
59.641
 21
16.9144
  0
LINE
  8
0
 10
59.641
 20
16.9144
 11
59.818
 21
16.9618
  0
LINE
  8
0
 10
59.818
 20
16.9618
 11
59.9989
 21
16.9904
  0
LINE
  8
0
 10
59.9989
 20
16.9904
 11
60.1818
 21
17
  0
LINE
  8
0
 10
60.1818
 20
17
 11
60.3647
 21
16.9904
  0
LINE
  8
0
 10
60.3647
 20
16.9904
 11
60.5456
 21
16.9618
  0
LINE
  8
0
 10
60.5456
 20
16.9618
 11
60.7226
 21
16.9144
  0
LINE
  8
0
 10
60.7226
 20
16.9144
 11
60.8936
 21
16.8487
  0
LINE
  8
0
 10
60.8936
 20
16.8487
 11
61.0568
 21
16.7655
  0
LINE
  8
0
 10
61.0568
 20
16.7655
 11
61.2104
 21
16.6658
  0
LINE
  8
0
 10
61.2104
 20
16.6658
 11
61.3528
 21
16.5505
  0
LINE
  8
0
 10
61.3528
 20
16.5505
 11
61.4823
 21
16.421
  0
LINE
  8
0
 10
61.4823
 20
16.421
 11
61.5976
 21
16.2786
  0
LINE
  8
0
 10
61.5976
 20
16.2786
 11
61.6973
 21
16.125
  0
LINE
  8
0
 10
61.6973
 20
16.125
 11
61.7805
 21
15.9618
  0
LINE
  8
0
 10
61.7805
 20
15.9618
 11
61.8461
 21
15.7908
  0
LINE
  8
0
 10
61.8461
 20
15.7908
 11
61.8936
 21
15.6138
  0
LINE
  8
0
 10
61.8936
 20
15.6138
 11
61.9222
 21
15.4329
  0
LINE
  8
0
 10
61.9222
 20
15.4329
 11
61.9318
 21
15.25
  0
LINE
  8
0
 10
61.9318
 20
15.25
 11
61.9222
 21
15.0671
  0
LINE
  8
0
 10
61.9222
 20
15.0671
 11
61.8936
 21
14.8862
  0
LINE
  8
0
 10
61.8936
 20
14.8862
 11
61.8461
 21
14.7092
  0
LINE
  8
0
 10
61.8461
 20
14.7092
 11
61.7805
 21
14.5382
  0
LINE
  8
0
 10
61.7805
 20
14.5382
 11
61.6973
 21
14.375
  0
LINE
  8
0
 10
61.6973
 20
14.375
 11
61.5976
 21
14.2214
  0
LINE
  8
0
 10
61.5976
 20
14.2214
 11
61.4823
 21
14.079
  0
LINE
  8
0
 10
61.4823
 20
14.079
 11
61.3528
 21
13.9495
  0
LINE
  8
0
 10
61.3528
 20
13.9495
 11
61.2104
 21
13.8342
  0
LINE
  8
0
 10
61.2104
 20
13.8342
 11
61.0568
 21
13.7345
  0
LINE
  8
0
 10
61.0568
 20
13.7345
 11
60.8936
 21
13.6513
  0
LINE
  8
0
 10
60.8936
 20
13.6513
 11
60.7226
 21
13.5857
  0
LINE
  8
0
 10
60.7226
 20
13.5857
 11
60.5456
 21
13.5383
  0
LINE
  8
0
 10
60.5456
 20
13.5383
 11
60.3647
 21
13.5096
  0
LINE
  8
0
 10
60.3647
 20
13.5096
 11
60.1818
 21
13.5
  0
LINE
  8
0
 10
60.1818
 20
13.5
 11
59.9989
 21
13.5096
  0
LINE
  8
0
 10
334.181
 20
13.5096
 11
334
 21
13.5383
  0
LINE
  8
0
 10
334
 20
13.5383
 11
333.823
 21
13.5857
  0
LINE
  8
0
 10
333.823
 20
13.5857
 11
333.652
 21
13.6513
  0
LINE
  8
0
 10
333.652
 20
13.6513
 11
333.489
 21
13.7345
  0
LINE
  8
0
 10
333.489
 20
13.7345
 11
333.335
 21
13.8342
  0
LINE
  8
0
 10
333.335
 20
13.8342
 11
333.193
 21
13.9495
  0
LINE
  8
0
 10
333.193
 20
13.9495
 11
333.063
 21
14.079
  0
LINE
  8
0
 10
333.063
 20
14.079
 11
332.948
 21
14.2214
  0
LINE
  8
0
 10
332.948
 20
14.2214
 11
332.848
 21
14.375
  0
LINE
  8
0
 10
332.848
 20
14.375
 11
332.765
 21
14.5382
  0
LINE
  8
0
 10
332.765
 20
14.5382
 11
332.699
 21
14.7092
  0
LINE
  8
0
 10
332.699
 20
14.7092
 11
332.652
 21
14.8862
  0
LINE
  8
0
 10
332.652
 20
14.8862
 11
332.623
 21
15.0671
  0
LINE
  8
0
 10
332.623
 20
15.0671
 11
332.614
 21
15.25
  0
LINE
  8
0
 10
332.614
 20
15.25
 11
332.623
 21
15.4329
  0
LINE
  8
0
 10
332.623
 20
15.4329
 11
332.652
 21
15.6138
  0
LINE
  8
0
 10
332.652
 20
15.6138
 11
332.699
 21
15.7908
  0
LINE
  8
0
 10
332.699
 20
15.7908
 11
332.765
 21
15.9618
  0
LINE
  8
0
 10
332.765
 20
15.9618
 11
332.848
 21
16.125
  0
LINE
  8
0
 10
332.848
 20
16.125
 11
332.948
 21
16.2786
  0
LINE
  8
0
 10
332.948
 20
16.2786
 11
333.063
 21
16.421
  0
LINE
  8
0
 10
333.063
 20
16.421
 11
333.193
 21
16.5505
  0
LINE
  8
0
 10
333.193
 20
16.5505
 11
333.335
 21
16.6658
  0
LINE
  8
0
 10
333.335
 20
16.6658
 11
333.489
 21
16.7655
  0
LINE
  8
0
 10
333.489
 20
16.7655
 11
333.652
 21
16.8487
  0
LINE
  8
0
 10
333.652
 20
16.8487
 11
333.823
 21
16.9144
  0
LINE
  8
0
 10
333.823
 20
16.9144
 11
334
 21
16.9618
  0
LINE
  8
0
 10
334
 20
16.9618
 11
334.181
 21
16.9904
  0
LINE
  8
0
 10
334.181
 20
16.9904
 11
334.364
 21
17
  0
LINE
  8
0
 10
334.364
 20
17
 11
334.547
 21
16.9904
  0
LINE
  8
0
 10
334.547
 20
16.9904
 11
334.727
 21
16.9618
  0
LINE
  8
0
 10
334.727
 20
16.9618
 11
334.904
 21
16.9144
  0
LINE
  8
0
 10
334.904
 20
16.9144
 11
335.075
 21
16.8487
  0
LINE
  8
0
 10
335.075
 20
16.8487
 11
335.239
 21
16.7655
  0
LINE
  8
0
 10
335.239
 20
16.7655
 11
335.392
 21
16.6658
  0
LINE
  8
0
 10
335.392
 20
16.6658
 11
335.535
 21
16.5505
  0
LINE
  8
0
 10
335.535
 20
16.5505
 11
335.664
 21
16.421
  0
LINE
  8
0
 10
335.664
 20
16.421
 11
335.779
 21
16.2786
  0
LINE
  8
0
 10
335.779
 20
16.2786
 11
335.879
 21
16.125
  0
LINE
  8
0
 10
335.879
 20
16.125
 11
335.962
 21
15.9618
  0
LINE
  8
0
 10
335.962
 20
15.9618
 11
336.028
 21
15.7908
  0
LINE
  8
0
 10
336.028
 20
15.7908
 11
336.075
 21
15.6138
  0
LINE
  8
0
 10
336.075
 20
15.6138
 11
336.104
 21
15.4329
  0
LINE
  8
0
 10
336.104
 20
15.4329
 11
336.114
 21
15.25
  0
LINE
  8
0
 10
336.114
 20
15.25
 11
336.104
 21
15.0671
  0
LINE
  8
0
 10
336.104
 20
15.0671
 11
336.075
 21
14.8862
  0
LINE
  8
0
 10
336.075
 20
14.8862
 11
336.028
 21
14.7092
  0
LINE
  8
0
 10
336.028
 20
14.7092
 11
335.962
 21
14.5382
  0
LINE
  8
0
 10
335.962
 20
14.5382
 11
335.879
 21
14.375
  0
LINE
  8
0
 10
335.879
 20
14.375
 11
335.779
 21
14.2214
  0
LINE
  8
0
 10
335.779
 20
14.2214
 11
335.664
 21
14.079
  0
LINE
  8
0
 10
335.664
 20
14.079
 11
335.535
 21
13.9495
  0
LINE
  8
0
 10
335.535
 20
13.9495
 11
335.392
 21
13.8342
  0
LINE
  8
0
 10
335.392
 20
13.8342
 11
335.239
 21
13.7345
  0
LINE
  8
0
 10
335.239
 20
13.7345
 11
335.075
 21
13.6513
  0
LINE
  8
0
 10
335.075
 20
13.6513
 11
334.904
 21
13.5857
  0
LINE
  8
0
 10
334.904
 20
13.5857
 11
334.727
 21
13.5383
  0
LINE
  8
0
 10
334.727
 20
13.5383
 11
334.547
 21
13.5096
  0
LINE
  8
0
 10
334.547
 20
13.5096
 11
334.364
 21
13.5
  0
LINE
  8
0
 10
334.364
 20
13.5
 11
334.181
 21
13.5096
  0
LINE
  8
0
 10
228.726
 20
13.5096
 11
228.545
 21
13.5383
  0
LINE
  8
0
 10
228.545
 20
13.5383
 11
228.368
 21
13.5857
  0
LINE
  8
0
 10
228.368
 20
13.5857
 11
228.197
 21
13.6513
  0
LINE
  8
0
 10
228.197
 20
13.6513
 11
228.034
 21
13.7345
  0
LINE
  8
0
 10
228.034
 20
13.7345
 11
227.88
 21
13.8342
  0
LINE
  8
0
 10
227.88
 20
13.8342
 11
227.738
 21
13.9495
  0
LINE
  8
0
 10
227.738
 20
13.9495
 11
227.609
 21
14.079
  0
LINE
  8
0
 10
227.609
 20
14.079
 11
227.493
 21
14.2214
  0
LINE
  8
0
 10
227.493
 20
14.2214
 11
227.394
 21
14.375
  0
LINE
  8
0
 10
227.394
 20
14.375
 11
227.31
 21
14.5382
  0
LINE
  8
0
 10
227.31
 20
14.5382
 11
227.245
 21
14.7092
  0
LINE
  8
0
 10
227.245
 20
14.7092
 11
227.197
 21
14.8862
  0
LINE
  8
0
 10
227.197
 20
14.8862
 11
227.169
 21
15.0671
  0
LINE
  8
0
 10
227.169
 20
15.0671
 11
227.159
 21
15.25
  0
LINE
  8
0
 10
227.159
 20
15.25
 11
227.169
 21
15.4329
  0
LINE
  8
0
 10
227.169
 20
15.4329
 11
227.197
 21
15.6138
  0
LINE
  8
0
 10
227.197
 20
15.6138
 11
227.245
 21
15.7908
  0
LINE
  8
0
 10
227.245
 20
15.7908
 11
227.31
 21
15.9618
  0
LINE
  8
0
 10
227.31
 20
15.9618
 11
227.394
 21
16.125
  0
LINE
  8
0
 10
227.394
 20
16.125
 11
227.493
 21
16.2786
  0
LINE
  8
0
 10
227.493
 20
16.2786
 11
227.609
 21
16.421
  0
LINE
  8
0
 10
227.609
 20
16.421
 11
227.738
 21
16.5505
  0
LINE
  8
0
 10
227.738
 20
16.5505
 11
227.88
 21
16.6658
  0
LINE
  8
0
 10
227.88
 20
16.6658
 11
228.034
 21
16.7655
  0
LINE
  8
0
 10
228.034
 20
16.7655
 11
228.197
 21
16.8487
  0
LINE
  8
0
 10
228.197
 20
16.8487
 11
228.368
 21
16.9144
  0
LINE
  8
0
 10
228.368
 20
16.9144
 11
228.545
 21
16.9618
  0
LINE
  8
0
 10
228.545
 20
16.9618
 11
228.726
 21
16.9904
  0
LINE
  8
0
 10
228.726
 20
16.9904
 11
228.909
 21
17
  0
LINE
  8
0
 10
228.909
 20
17
 11
229.092
 21
16.9904
  0
LINE
  8
0
 10
229.092
 20
16.9904
 11
229.273
 21
16.9618
  0
LINE
  8
0
 10
229.273
 20
16.9618
 11
229.45
 21
16.9144
  0
LINE
  8
0
 10
229.45
 20
16.9144
 11
229.621
 21
16.8487
  0
LINE
  8
0
 10
229.621
 20
16.8487
 11
229.784
 21
16.7655
  0
LINE
  8
0
 10
229.784
 20
16.7655
 11
229.938
 21
16.6658
  0
LINE
  8
0
 10
229.938
 20
16.6658
 11
230.08
 21
16.5505
  0
LINE
  8
0
 10
230.08
 20
16.5505
 11
230.21
 21
16.421
  0
LINE
  8
0
 10
230.21
 20
16.421
 11
230.325
 21
16.2786
  0
LINE
  8
0
 10
230.325
 20
16.2786
 11
230.425
 21
16.125
  0
LINE
  8
0
 10
230.425
 20
16.125
 11
230.508
 21
15.9618
  0
LINE
  8
0
 10
230.508
 20
15.9618
 11
230.573
 21
15.7908
  0
LINE
  8
0
 10
230.573
 20
15.7908
 11
230.621
 21
15.6138
  0
LINE
  8
0
 10
230.621
 20
15.6138
 11
230.649
 21
15.4329
  0
LINE
  8
0
 10
230.649
 20
15.4329
 11
230.659
 21
15.25
  0
LINE
  8
0
 10
230.659
 20
15.25
 11
230.649
 21
15.0671
  0
LINE
  8
0
 10
230.649
 20
15.0671
 11
230.621
 21
14.8862
  0
LINE
  8
0
 10
230.621
 20
14.8862
 11
230.573
 21
14.7092
  0
LINE
  8
0
 10
230.573
 20
14.7092
 11
230.508
 21
14.5382
  0
LINE
  8
0
 10
230.508
 20
14.5382
 11
230.425
 21
14.375
  0
LINE
  8
0
 10
230.425
 20
14.375
 11
230.325
 21
14.2214
  0
LINE
  8
0
 10
230.325
 20
14.2214
 11
230.21
 21
14.079
  0
LINE
  8
0
 10
230.21
 20
14.079
 11
230.08
 21
13.9495
  0
LINE
  8
0
 10
230.08
 20
13.9495
 11
229.938
 21
13.8342
  0
LINE
  8
0
 10
229.938
 20
13.8342
 11
229.784
 21
13.7345
  0
LINE
  8
0
 10
229.784
 20
13.7345
 11
229.621
 21
13.6513
  0
LINE
  8
0
 10
229.621
 20
13.6513
 11
229.45
 21
13.5857
  0
LINE
  8
0
 10
229.45
 20
13.5857
 11
229.273
 21
13.5383
  0
LINE
  8
0
 10
229.273
 20
13.5383
 11
229.092
 21
13.5096
  0
LINE
  8
0
 10
229.092
 20
13.5096
 11
228.909
 21
13.5
  0
LINE
  8
0
 10
228.909
 20
13.5
 11
228.726
 21
13.5096
  0
LINE
  8
0
 10
144.363
 20
13.5096
 11
144.182
 21
13.5383
  0
LINE
  8
0
 10
144.182
 20
13.5383
 11
144.005
 21
13.5857
  0
LINE
  8
0
 10
144.005
 20
13.5857
 11
143.834
 21
13.6513
  0
LINE
  8
0
 10
143.834
 20
13.6513
 11
143.67
 21
13.7345
  0
LINE
  8
0
 10
143.67
 20
13.7345
 11
143.517
 21
13.8342
  0
LINE
  8
0
 10
143.517
 20
13.8342
 11
143.374
 21
13.9495
  0
LINE
  8
0
 10
143.374
 20
13.9495
 11
143.245
 21
14.079
  0
LINE
  8
0
 10
143.245
 20
14.079
 11
143.13
 21
14.2214
  0
LINE
  8
0
 10
143.13
 20
14.2214
 11
143.03
 21
14.375
  0
LINE
  8
0
 10
143.03
 20
14.375
 11
142.947
 21
14.5382
  0
LINE
  8
0
 10
142.947
 20
14.5382
 11
142.881
 21
14.7092
  0
LINE
  8
0
 10
142.881
 20
14.7092
 11
142.834
 21
14.8862
  0
LINE
  8
0
 10
142.834
 20
14.8862
 11
142.805
 21
15.0671
  0
LINE
  8
0
 10
142.805
 20
15.0671
 11
142.795
 21
15.25
  0
LINE
  8
0
 10
142.795
 20
15.25
 11
142.805
 21
15.4329
  0
LINE
  8
0
 10
142.805
 20
15.4329
 11
142.834
 21
15.6138
  0
LINE
  8
0
 10
142.834
 20
15.6138
 11
142.881
 21
15.7908
  0
LINE
  8
0
 10
142.881
 20
15.7908
 11
142.947
 21
15.9618
  0
LINE
  8
0
 10
142.947
 20
15.9618
 11
143.03
 21
16.125
  0
LINE
  8
0
 10
143.03
 20
16.125
 11
143.13
 21
16.2786
  0
LINE
  8
0
 10
143.13
 20
16.2786
 11
143.245
 21
16.421
  0
LINE
  8
0
 10
143.245
 20
16.421
 11
143.374
 21
16.5505
  0
LINE
  8
0
 10
143.374
 20
16.5505
 11
143.517
 21
16.6658
  0
LINE
  8
0
 10
143.517
 20
16.6658
 11
143.67
 21
16.7655
  0
LINE
  8
0
 10
143.67
 20
16.7655
 11
143.834
 21
16.8487
  0
LINE
  8
0
 10
143.834
 20
16.8487
 11
144.005
 21
16.9144
  0
LINE
  8
0
 10
144.005
 20
16.9144
 11
144.182
 21
16.9618
  0
LINE
  8
0
 10
144.182
 20
16.9618
 11
144.363
 21
16.9904
  0
LINE
  8
0
 10
144.363
 20
16.9904
 11
144.545
 21
17
  0
LINE
  8
0
 10
144.545
 20
17
 11
144.728
 21
16.9904
  0
LINE
  8
0
 10
144.728
 20
16.9904
 11
144.909
 21
16.9618
  0
LINE
  8
0
 10
144.909
 20
16.9618
 11
145.086
 21
16.9144
  0
LINE
  8
0
 10
145.086
 20
16.9144
 11
145.257
 21
16.8487
  0
LINE
  8
0
 10
145.257
 20
16.8487
 11
145.42
 21
16.7655
  0
LINE
  8
0
 10
145.42
 20
16.7655
 11
145.574
 21
16.6658
  0
LINE
  8
0
 10
145.574
 20
16.6658
 11
145.716
 21
16.5505
  0
LINE
  8
0
 10
145.716
 20
16.5505
 11
145.846
 21
16.421
  0
LINE
  8
0
 10
145.846
 20
16.421
 11
145.961
 21
16.2786
  0
LINE
  8
0
 10
145.961
 20
16.2786
 11
146.061
 21
16.125
  0
LINE
  8
0
 10
146.061
 20
16.125
 11
146.144
 21
15.9618
  0
LINE
  8
0
 10
146.144
 20
15.9618
 11
146.21
 21
15.7908
  0
LINE
  8
0
 10
146.21
 20
15.7908
 11
146.257
 21
15.6138
  0
LINE
  8
0
 10
146.257
 20
15.6138
 11
146.286
 21
15.4329
  0
LINE
  8
0
 10
146.286
 20
15.4329
 11
146.295
 21
15.25
  0
LINE
  8
0
 10
146.295
 20
15.25
 11
146.286
 21
15.0671
  0
LINE
  8
0
 10
146.286
 20
15.0671
 11
146.257
 21
14.8862
  0
LINE
  8
0
 10
146.257
 20
14.8862
 11
146.21
 21
14.7092
  0
LINE
  8
0
 10
146.21
 20
14.7092
 11
146.144
 21
14.5382
  0
LINE
  8
0
 10
146.144
 20
14.5382
 11
146.061
 21
14.375
  0
LINE
  8
0
 10
146.061
 20
14.375
 11
145.961
 21
14.2214
  0
LINE
  8
0
 10
145.961
 20
14.2214
 11
145.846
 21
14.079
  0
LINE
  8
0
 10
145.846
 20
14.079
 11
145.716
 21
13.9495
  0
LINE
  8
0
 10
145.716
 20
13.9495
 11
145.574
 21
13.8342
  0
LINE
  8
0
 10
145.574
 20
13.8342
 11
145.42
 21
13.7345
  0
LINE
  8
0
 10
145.42
 20
13.7345
 11
145.257
 21
13.6513
  0
LINE
  8
0
 10
145.257
 20
13.6513
 11
145.086
 21
13.5857
  0
LINE
  8
0
 10
145.086
 20
13.5857
 11
144.909
 21
13.5383
  0
LINE
  8
0
 10
144.909
 20
13.5383
 11
144.728
 21
13.5096
  0
LINE
  8
0
 10
144.728
 20
13.5096
 11
144.545
 21
13.5
  0
LINE
  8
0
 10
144.545
 20
13.5
 11
144.363
 21
13.5096
  0
LINE
  8
0
 10
376.363
 20
13.5096
 11
376.182
 21
13.5383
  0
LINE
  8
0
 10
376.182
 20
13.5383
 11
376.005
 21
13.5857
  0
LINE
  8
0
 10
376.005
 20
13.5857
 11
375.834
 21
13.6513
  0
LINE
  8
0
 10
375.834
 20
13.6513
 11
375.67
 21
13.7345
  0
LINE
  8
0
 10
375.67
 20
13.7345
 11
375.517
 21
13.8342
  0
LINE
  8
0
 10
375.517
 20
13.8342
 11
375.374
 21
13.9495
  0
LINE
  8
0
 10
375.374
 20
13.9495
 11
375.245
 21
14.079
  0
LINE
  8
0
 10
375.245
 20
14.079
 11
375.13
 21
14.2214
  0
LINE
  8
0
 10
375.13
 20
14.2214
 11
375.03
 21
14.375
  0
LINE
  8
0
 10
375.03
 20
14.375
 11
374.947
 21
14.5382
  0
LINE
  8
0
 10
374.947
 20
14.5382
 11
374.881
 21
14.7092
  0
LINE
  8
0
 10
374.881
 20
14.7092
 11
374.834
 21
14.8862
  0
LINE
  8
0
 10
374.834
 20
14.8862
 11
374.805
 21
15.0671
  0
LINE
  8
0
 10
374.805
 20
15.0671
 11
374.795
 21
15.25
  0
LINE
  8
0
 10
374.795
 20
15.25
 11
374.805
 21
15.4329
  0
LINE
  8
0
 10
374.805
 20
15.4329
 11
374.834
 21
15.6138
  0
LINE
  8
0
 10
374.834
 20
15.6138
 11
374.881
 21
15.7908
  0
LINE
  8
0
 10
374.881
 20
15.7908
 11
374.947
 21
15.9618
  0
LINE
  8
0
 10
374.947
 20
15.9618
 11
375.03
 21
16.125
  0
LINE
  8
0
 10
375.03
 20
16.125
 11
375.13
 21
16.2786
  0
LINE
  8
0
 10
375.13
 20
16.2786
 11
375.245
 21
16.421
  0
LINE
  8
0
 10
375.245
 20
16.421
 11
375.374
 21
16.5505
  0
LINE
  8
0
 10
375.374
 20
16.5505
 11
375.517
 21
16.6658
  0
LINE
  8
0
 10
375.517
 20
16.6658
 11
375.67
 21
16.7655
  0
LINE
  8
0
 10
375.67
 20
16.7655
 11
375.834
 21
16.8487
  0
LINE
  8
0
 10
375.834
 20
16.8487
 11
376.005
 21
16.9144
  0
LINE
  8
0
 10
376.005
 20
16.9144
 11
376.182
 21
16.9618
  0
LINE
  8
0
 10
376.182
 20
16.9618
 11
376.363
 21
16.9904
  0
LINE
  8
0
 10
376.363
 20
16.9904
 11
376.545
 21
17
  0
LINE
  8
0
 10
376.545
 20
17
 11
376.728
 21
16.9904
  0
LINE
  8
0
 10
376.728
 20
16.9904
 11
376.909
 21
16.9618
  0
LINE
  8
0
 10
376.909
 20
16.9618
 11
377.086
 21
16.9144
  0
LINE
  8
0
 10
377.086
 20
16.9144
 11
377.257
 21
16.8487
  0
LINE
  8
0
 10
377.257
 20
16.8487
 11
377.42
 21
16.7655
  0
LINE
  8
0
 10
377.42
 20
16.7655
 11
377.574
 21
16.6658
  0
LINE
  8
0
 10
377.574
 20
16.6658
 11
377.716
 21
16.5505
  0
LINE
  8
0
 10
377.716
 20
16.5505
 11
377.846
 21
16.421
  0
LINE
  8
0
 10
377.846
 20
16.421
 11
377.961
 21
16.2786
  0
LINE
  8
0
 10
377.961
 20
16.2786
 11
378.061
 21
16.125
  0
LINE
  8
0
 10
378.061
 20
16.125
 11
378.144
 21
15.9618
  0
LINE
  8
0
 10
378.144
 20
15.9618
 11
378.21
 21
15.7908
  0
LINE
  8
0
 10
378.21
 20
15.7908
 11
378.257
 21
15.6138
  0
LINE
  8
0
 10
378.257
 20
15.6138
 11
378.286
 21
15.4329
  0
LINE
  8
0
 10
378.286
 20
15.4329
 11
378.295
 21
15.25
  0
LINE
  8
0
 10
378.295
 20
15.25
 11
378.286
 21
15.0671
  0
LINE
  8
0
 10
378.286
 20
15.0671
 11
378.257
 21
14.8862
  0
LINE
  8
0
 10
378.257
 20
14.8862
 11
378.21
 21
14.7092
  0
LINE
  8
0
 10
378.21
 20
14.7092
 11
378.144
 21
14.5382
  0
LINE
  8
0
 10
378.144
 20
14.5382
 11
378.061
 21
14.375
  0
LINE
  8
0
 10
378.061
 20
14.375
 11
377.961
 21
14.2214
  0
LINE
  8
0
 10
377.961
 20
14.2214
 11
377.846
 21
14.079
  0
LINE
  8
0
 10
377.846
 20
14.079
 11
377.716
 21
13.9495
  0
LINE
  8
0
 10
377.716
 20
13.9495
 11
377.574
 21
13.8342
  0
LINE
  8
0
 10
377.574
 20
13.8342
 11
377.42
 21
13.7345
  0
LINE
  8
0
 10
377.42
 20
13.7345
 11
377.257
 21
13.6513
  0
LINE
  8
0
 10
377.257
 20
13.6513
 11
377.086
 21
13.5857
  0
LINE
  8
0
 10
377.086
 20
13.5857
 11
376.909
 21
13.5383
  0
LINE
  8
0
 10
376.909
 20
13.5383
 11
376.728
 21
13.5096
  0
LINE
  8
0
 10
376.728
 20
13.5096
 11
376.545
 21
13.5
  0
LINE
  8
0
 10
376.545
 20
13.5
 11
376.363
 21
13.5096
  0
LINE
  8
0
 10
165.453
 20
13.5096
 11
165.273
 21
13.5383
  0
LINE
  8
0
 10
165.273
 20
13.5383
 11
165.096
 21
13.5857
  0
LINE
  8
0
 10
165.096
 20
13.5857
 11
164.925
 21
13.6513
  0
LINE
  8
0
 10
164.925
 20
13.6513
 11
164.761
 21
13.7345
  0
LINE
  8
0
 10
164.761
 20
13.7345
 11
164.608
 21
13.8342
  0
LINE
  8
0
 10
164.608
 20
13.8342
 11
164.465
 21
13.9495
  0
LINE
  8
0
 10
164.465
 20
13.9495
 11
164.336
 21
14.079
  0
LINE
  8
0
 10
164.336
 20
14.079
 11
164.221
 21
14.2214
  0
LINE
  8
0
 10
164.221
 20
14.2214
 11
164.121
 21
14.375
  0
LINE
  8
0
 10
164.121
 20
14.375
 11
164.038
 21
14.5382
  0
LINE
  8
0
 10
164.038
 20
14.5382
 11
163.972
 21
14.7092
  0
LINE
  8
0
 10
163.972
 20
14.7092
 11
163.925
 21
14.8862
  0
LINE
  8
0
 10
163.925
 20
14.8862
 11
163.896
 21
15.0671
  0
LINE
  8
0
 10
163.896
 20
15.0671
 11
163.886
 21
15.25
  0
LINE
  8
0
 10
163.886
 20
15.25
 11
163.896
 21
15.4329
  0
LINE
  8
0
 10
163.896
 20
15.4329
 11
163.925
 21
15.6138
  0
LINE
  8
0
 10
163.925
 20
15.6138
 11
163.972
 21
15.7908
  0
LINE
  8
0
 10
163.972
 20
15.7908
 11
164.038
 21
15.9618
  0
LINE
  8
0
 10
164.038
 20
15.9618
 11
164.121
 21
16.125
  0
LINE
  8
0
 10
164.121
 20
16.125
 11
164.221
 21
16.2786
  0
LINE
  8
0
 10
164.221
 20
16.2786
 11
164.336
 21
16.421
  0
LINE
  8
0
 10
164.336
 20
16.421
 11
164.465
 21
16.5505
  0
LINE
  8
0
 10
164.465
 20
16.5505
 11
164.608
 21
16.6658
  0
LINE
  8
0
 10
164.608
 20
16.6658
 11
164.761
 21
16.7655
  0
LINE
  8
0
 10
164.761
 20
16.7655
 11
164.925
 21
16.8487
  0
LINE
  8
0
 10
164.925
 20
16.8487
 11
165.096
 21
16.9144
  0
LINE
  8
0
 10
165.096
 20
16.9144
 11
165.273
 21
16.9618
  0
LINE
  8
0
 10
165.273
 20
16.9618
 11
165.453
 21
16.9904
  0
LINE
  8
0
 10
165.453
 20
16.9904
 11
165.636
 21
17
  0
LINE
  8
0
 10
165.636
 20
17
 11
165.819
 21
16.9904
  0
LINE
  8
0
 10
165.819
 20
16.9904
 11
166
 21
16.9618
  0
LINE
  8
0
 10
166
 20
16.9618
 11
166.177
 21
16.9144
  0
LINE
  8
0
 10
166.177
 20
16.9144
 11
166.348
 21
16.8487
  0
LINE
  8
0
 10
166.348
 20
16.8487
 11
166.511
 21
16.7655
  0
LINE
  8
0
 10
166.511
 20
16.7655
 11
166.665
 21
16.6658
  0
LINE
  8
0
 10
166.665
 20
16.6658
 11
166.807
 21
16.5505
  0
LINE
  8
0
 10
166.807
 20
16.5505
 11
166.937
 21
16.421
  0
LINE
  8
0
 10
166.937
 20
16.421
 11
167.052
 21
16.2786
  0
LINE
  8
0
 10
167.052
 20
16.2786
 11
167.152
 21
16.125
  0
LINE
  8
0
 10
167.152
 20
16.125
 11
167.235
 21
15.9618
  0
LINE
  8
0
 10
167.235
 20
15.9618
 11
167.301
 21
15.7908
  0
LINE
  8
0
 10
167.301
 20
15.7908
 11
167.348
 21
15.6138
  0
LINE
  8
0
 10
167.348
 20
15.6138
 11
167.377
 21
15.4329
  0
LINE
  8
0
 10
167.377
 20
15.4329
 11
167.386
 21
15.25
  0
LINE
  8
0
 10
167.386
 20
15.25
 11
167.377
 21
15.0671
  0
LINE
  8
0
 10
167.377
 20
15.0671
 11
167.348
 21
14.8862
  0
LINE
  8
0
 10
167.348
 20
14.8862
 11
167.301
 21
14.7092
  0
LINE
  8
0
 10
167.301
 20
14.7092
 11
167.235
 21
14.5382
  0
LINE
  8
0
 10
167.235
 20
14.5382
 11
167.152
 21
14.375
  0
LINE
  8
0
 10
167.152
 20
14.375
 11
167.052
 21
14.2214
  0
LINE
  8
0
 10
167.052
 20
14.2214
 11
166.937
 21
14.079
  0
LINE
  8
0
 10
166.937
 20
14.079
 11
166.807
 21
13.9495
  0
LINE
  8
0
 10
166.807
 20
13.9495
 11
166.665
 21
13.8342
  0
LINE
  8
0
 10
166.665
 20
13.8342
 11
166.511
 21
13.7345
  0
LINE
  8
0
 10
166.511
 20
13.7345
 11
166.348
 21
13.6513
  0
LINE
  8
0
 10
166.348
 20
13.6513
 11
166.177
 21
13.5857
  0
LINE
  8
0
 10
166.177
 20
13.5857
 11
166
 21
13.5383
  0
LINE
  8
0
 10
166
 20
13.5383
 11
165.819
 21
13.5096
  0
LINE
  8
0
 10
165.819
 20
13.5096
 11
165.636
 21
13.5
  0
LINE
  8
0
 10
165.636
 20
13.5
 11
165.453
 21
13.5096
  0
LINE
  8
0
 10
270.908
 20
13.5096
 11
270.727
 21
13.5383
  0
LINE
  8
0
 10
270.727
 20
13.5383
 11
270.55
 21
13.5857
  0
LINE
  8
0
 10
270.55
 20
13.5857
 11
270.379
 21
13.6513
  0
LINE
  8
0
 10
270.379
 20
13.6513
 11
270.216
 21
13.7345
  0
LINE
  8
0
 10
270.216
 20
13.7345
 11
270.062
 21
13.8342
  0
LINE
  8
0
 10
270.062
 20
13.8342
 11
269.92
 21
13.9495
  0
LINE
  8
0
 10
269.92
 20
13.9495
 11
269.79
 21
14.079
  0
LINE
  8
0
 10
269.79
 20
14.079
 11
269.675
 21
14.2214
  0
LINE
  8
0
 10
269.675
 20
14.2214
 11
269.575
 21
14.375
  0
LINE
  8
0
 10
269.575
 20
14.375
 11
269.492
 21
14.5382
  0
LINE
  8
0
 10
269.492
 20
14.5382
 11
269.427
 21
14.7092
  0
LINE
  8
0
 10
269.427
 20
14.7092
 11
269.379
 21
14.8862
  0
LINE
  8
0
 10
269.379
 20
14.8862
 11
269.35
 21
15.0671
  0
LINE
  8
0
 10
269.35
 20
15.0671
 11
269.341
 21
15.25
  0
LINE
  8
0
 10
269.341
 20
15.25
 11
269.35
 21
15.4329
  0
LINE
  8
0
 10
269.35
 20
15.4329
 11
269.379
 21
15.6138
  0
LINE
  8
0
 10
269.379
 20
15.6138
 11
269.427
 21
15.7908
  0
LINE
  8
0
 10
269.427
 20
15.7908
 11
269.492
 21
15.9618
  0
LINE
  8
0
 10
269.492
 20
15.9618
 11
269.575
 21
16.125
  0
LINE
  8
0
 10
269.575
 20
16.125
 11
269.675
 21
16.2786
  0
LINE
  8
0
 10
269.675
 20
16.2786
 11
269.79
 21
16.421
  0
LINE
  8
0
 10
269.79
 20
16.421
 11
269.92
 21
16.5505
  0
LINE
  8
0
 10
269.92
 20
16.5505
 11
270.062
 21
16.6658
  0
LINE
  8
0
 10
270.062
 20
16.6658
 11
270.216
 21
16.7655
  0
LINE
  8
0
 10
270.216
 20
16.7655
 11
270.379
 21
16.8487
  0
LINE
  8
0
 10
270.379
 20
16.8487
 11
270.55
 21
16.9144
  0
LINE
  8
0
 10
270.55
 20
16.9144
 11
270.727
 21
16.9618
  0
LINE
  8
0
 10
270.727
 20
16.9618
 11
270.908
 21
16.9904
  0
LINE
  8
0
 10
270.908
 20
16.9904
 11
271.091
 21
17
  0
LINE
  8
0
 10
271.091
 20
17
 11
271.274
 21
16.9904
  0
LINE
  8
0
 10
271.274
 20
16.9904
 11
271.455
 21
16.9618
  0
LINE
  8
0
 10
271.455
 20
16.9618
 11
271.632
 21
16.9144
  0
LINE
  8
0
 10
271.632
 20
16.9144
 11
271.803
 21
16.8487
  0
LINE
  8
0
 10
271.803
 20
16.8487
 11
271.966
 21
16.7655
  0
LINE
  8
0
 10
271.966
 20
16.7655
 11
272.12
 21
16.6658
  0
LINE
  8
0
 10
272.12
 20
16.6658
 11
272.262
 21
16.5505
  0
LINE
  8
0
 10
272.262
 20
16.5505
 11
272.391
 21
16.421
  0
LINE
  8
0
 10
272.391
 20
16.421
 11
272.507
 21
16.2786
  0
LINE
  8
0
 10
272.507
 20
16.2786
 11
272.606
 21
16.125
  0
LINE
  8
0
 10
272.606
 20
16.125
 11
272.69
 21
15.9618
  0
LINE
  8
0
 10
272.69
 20
15.9618
 11
272.755
 21
15.7908
  0
LINE
  8
0
 10
272.755
 20
15.7908
 11
272.803
 21
15.6138
  0
LINE
  8
0
 10
272.803
 20
15.6138
 11
272.831
 21
15.4329
  0
LINE
  8
0
 10
272.831
 20
15.4329
 11
272.841
 21
15.25
  0
LINE
  8
0
 10
272.841
 20
15.25
 11
272.831
 21
15.0671
  0
LINE
  8
0
 10
272.831
 20
15.0671
 11
272.803
 21
14.8862
  0
LINE
  8
0
 10
272.803
 20
14.8862
 11
272.755
 21
14.7092
  0
LINE
  8
0
 10
272.755
 20
14.7092
 11
272.69
 21
14.5382
  0
LINE
  8
0
 10
272.69
 20
14.5382
 11
272.606
 21
14.375
  0
LINE
  8
0
 10
272.606
 20
14.375
 11
272.507
 21
14.2214
  0
LINE
  8
0
 10
272.507
 20
14.2214
 11
272.391
 21
14.079
  0
LINE
  8
0
 10
272.391
 20
14.079
 11
272.262
 21
13.9495
  0
LINE
  8
0
 10
272.262
 20
13.9495
 11
272.12
 21
13.8342
  0
LINE
  8
0
 10
272.12
 20
13.8342
 11
271.966
 21
13.7345
  0
LINE
  8
0
 10
271.966
 20
13.7345
 11
271.803
 21
13.6513
  0
LINE
  8
0
 10
271.803
 20
13.6513
 11
271.632
 21
13.5857
  0
LINE
  8
0
 10
271.632
 20
13.5857
 11
271.455
 21
13.5383
  0
LINE
  8
0
 10
271.455
 20
13.5383
 11
271.274
 21
13.5096
  0
LINE
  8
0
 10
271.274
 20
13.5096
 11
271.091
 21
13.5
  0
LINE
  8
0
 10
271.091
 20
13.5
 11
270.908
 21
13.5096
  0
LINE
  8
0
 10
291.999
 20
13.5096
 11
291.818
 21
13.5383
  0
LINE
  8
0
 10
291.818
 20
13.5383
 11
291.641
 21
13.5857
  0
LINE
  8
0
 10
291.641
 20
13.5857
 11
291.47
 21
13.6513
  0
LINE
  8
0
 10
291.47
 20
13.6513
 11
291.307
 21
13.7345
  0
LINE
  8
0
 10
291.307
 20
13.7345
 11
291.153
 21
13.8342
  0
LINE
  8
0
 10
291.153
 20
13.8342
 11
291.011
 21
13.9495
  0
LINE
  8
0
 10
291.011
 20
13.9495
 11
290.881
 21
14.079
  0
LINE
  8
0
 10
290.881
 20
14.079
 11
290.766
 21
14.2214
  0
LINE
  8
0
 10
290.766
 20
14.2214
 11
290.666
 21
14.375
  0
LINE
  8
0
 10
290.666
 20
14.375
 11
290.583
 21
14.5382
  0
LINE
  8
0
 10
290.583
 20
14.5382
 11
290.517
 21
14.7092
  0
LINE
  8
0
 10
290.517
 20
14.7092
 11
290.47
 21
14.8862
  0
LINE
  8
0
 10
290.47
 20
14.8862
 11
290.441
 21
15.0671
  0
LINE
  8
0
 10
290.441
 20
15.0671
 11
290.432
 21
15.25
  0
LINE
  8
0
 10
290.432
 20
15.25
 11
290.441
 21
15.4329
  0
LINE
  8
0
 10
290.441
 20
15.4329
 11
290.47
 21
15.6138
  0
LINE
  8
0
 10
290.47
 20
15.6138
 11
290.517
 21
15.7908
  0
LINE
  8
0
 10
290.517
 20
15.7908
 11
290.583
 21
15.9618
  0
LINE
  8
0
 10
290.583
 20
15.9618
 11
290.666
 21
16.125
  0
LINE
  8
0
 10
290.666
 20
16.125
 11
290.766
 21
16.2786
  0
LINE
  8
0
 10
290.766
 20
16.2786
 11
290.881
 21
16.421
  0
LINE
  8
0
 10
290.881
 20
16.421
 11
291.011
 21
16.5505
  0
LINE
  8
0
 10
291.011
 20
16.5505
 11
291.153
 21
16.6658
  0
LINE
  8
0
 10
291.153
 20
16.6658
 11
291.307
 21
16.7655
  0
LINE
  8
0
 10
291.307
 20
16.7655
 11
291.47
 21
16.8487
  0
LINE
  8
0
 10
291.47
 20
16.8487
 11
291.641
 21
16.9144
  0
LINE
  8
0
 10
291.641
 20
16.9144
 11
291.818
 21
16.9618
  0
LINE
  8
0
 10
291.818
 20
16.9618
 11
291.999
 21
16.9904
  0
LINE
  8
0
 10
291.999
 20
16.9904
 11
292.182
 21
17
  0
LINE
  8
0
 10
292.182
 20
17
 11
292.365
 21
16.9904
  0
LINE
  8
0
 10
292.365
 20
16.9904
 11
292.546
 21
16.9618
  0
LINE
  8
0
 10
292.546
 20
16.9618
 11
292.723
 21
16.9144
  0
LINE
  8
0
 10
292.723
 20
16.9144
 11
292.894
 21
16.8487
  0
LINE
  8
0
 10
292.894
 20
16.8487
 11
293.057
 21
16.7655
  0
LINE
  8
0
 10
293.057
 20
16.7655
 11
293.21
 21
16.6658
  0
LINE
  8
0
 10
293.21
 20
16.6658
 11
293.353
 21
16.5505
  0
LINE
  8
0
 10
293.353
 20
16.5505
 11
293.482
 21
16.421
  0
LINE
  8
0
 10
293.482
 20
16.421
 11
293.598
 21
16.2786
  0
LINE
  8
0
 10
293.598
 20
16.2786
 11
293.697
 21
16.125
  0
LINE
  8
0
 10
293.697
 20
16.125
 11
293.781
 21
15.9618
  0
LINE
  8
0
 10
293.781
 20
15.9618
 11
293.846
 21
15.7908
  0
LINE
  8
0
 10
293.846
 20
15.7908
 11
293.894
 21
15.6138
  0
LINE
  8
0
 10
293.894
 20
15.6138
 11
293.922
 21
15.4329
  0
LINE
  8
0
 10
293.922
 20
15.4329
 11
293.932
 21
15.25
  0
LINE
  8
0
 10
293.932
 20
15.25
 11
293.922
 21
15.0671
  0
LINE
  8
0
 10
293.922
 20
15.0671
 11
293.894
 21
14.8862
  0
LINE
  8
0
 10
293.894
 20
14.8862
 11
293.846
 21
14.7092
  0
LINE
  8
0
 10
293.846
 20
14.7092
 11
293.781
 21
14.5382
  0
LINE
  8
0
 10
293.781
 20
14.5382
 11
293.697
 21
14.375
  0
LINE
  8
0
 10
293.697
 20
14.375
 11
293.598
 21
14.2214
  0
LINE
  8
0
 10
293.598
 20
14.2214
 11
293.482
 21
14.079
  0
LINE
  8
0
 10
293.482
 20
14.079
 11
293.353
 21
13.9495
  0
LINE
  8
0
 10
293.353
 20
13.9495
 11
293.21
 21
13.8342
  0
LINE
  8
0
 10
293.21
 20
13.8342
 11
293.057
 21
13.7345
  0
LINE
  8
0
 10
293.057
 20
13.7345
 11
292.894
 21
13.6513
  0
LINE
  8
0
 10
292.894
 20
13.6513
 11
292.723
 21
13.5857
  0
LINE
  8
0
 10
292.723
 20
13.5857
 11
292.546
 21
13.5383
  0
LINE
  8
0
 10
292.546
 20
13.5383
 11
292.365
 21
13.5096
  0
LINE
  8
0
 10
292.365
 20
13.5096
 11
292.182
 21
13.5
  0
LINE
  8
0
 10
292.182
 20
13.5
 11
291.999
 21
13.5096
  0
LINE
  8
0
 10
439.635
 20
13.5096
 11
439.454
 21
13.5383
  0
LINE
  8
0
 10
439.454
 20
13.5383
 11
439.277
 21
13.5857
  0
LINE
  8
0
 10
439.277
 20
13.5857
 11
439.106
 21
13.6513
  0
LINE
  8
0
 10
439.106
 20
13.6513
 11
438.943
 21
13.7345
  0
LINE
  8
0
 10
438.943
 20
13.7345
 11
438.79
 21
13.8342
  0
LINE
  8
0
 10
438.79
 20
13.8342
 11
438.647
 21
13.9495
  0
LINE
  8
0
 10
438.647
 20
13.9495
 11
438.518
 21
14.079
  0
LINE
  8
0
 10
438.518
 20
14.079
 11
438.402
 21
14.2214
  0
LINE
  8
0
 10
438.402
 20
14.2214
 11
438.303
 21
14.375
  0
LINE
  8
0
 10
438.303
 20
14.375
 11
438.219
 21
14.5382
  0
LINE
  8
0
 10
438.219
 20
14.5382
 11
438.154
 21
14.7092
  0
LINE
  8
0
 10
438.154
 20
14.7092
 11
438.106
 21
14.8862
  0
LINE
  8
0
 10
438.106
 20
14.8862
 11
438.078
 21
15.0671
  0
LINE
  8
0
 10
438.078
 20
15.0671
 11
438.068
 21
15.25
  0
LINE
  8
0
 10
438.068
 20
15.25
 11
438.078
 21
15.4329
  0
LINE
  8
0
 10
438.078
 20
15.4329
 11
438.106
 21
15.6138
  0
LINE
  8
0
 10
438.106
 20
15.6138
 11
438.154
 21
15.7908
  0
LINE
  8
0
 10
438.154
 20
15.7908
 11
438.219
 21
15.9618
  0
LINE
  8
0
 10
438.219
 20
15.9618
 11
438.303
 21
16.125
  0
LINE
  8
0
 10
438.303
 20
16.125
 11
438.402
 21
16.2786
  0
LINE
  8
0
 10
438.402
 20
16.2786
 11
438.518
 21
16.421
  0
LINE
  8
0
 10
438.518
 20
16.421
 11
438.647
 21
16.5505
  0
LINE
  8
0
 10
438.647
 20
16.5505
 11
438.79
 21
16.6658
  0
LINE
  8
0
 10
438.79
 20
16.6658
 11
438.943
 21
16.7655
  0
LINE
  8
0
 10
438.943
 20
16.7655
 11
439.106
 21
16.8487
  0
LINE
  8
0
 10
439.106
 20
16.8487
 11
439.277
 21
16.9144
  0
LINE
  8
0
 10
439.277
 20
16.9144
 11
439.454
 21
16.9618
  0
LINE
  8
0
 10
439.454
 20
16.9618
 11
439.635
 21
16.9904
  0
LINE
  8
0
 10
439.635
 20
16.9904
 11
439.818
 21
17
  0
LINE
  8
0
 10
439.818
 20
17
 11
440.001
 21
16.9904
  0
LINE
  8
0
 10
440.001
 20
16.9904
 11
440.182
 21
16.9618
  0
LINE
  8
0
 10
440.182
 20
16.9618
 11
440.359
 21
16.9144
  0
LINE
  8
0
 10
440.359
 20
16.9144
 11
440.53
 21
16.8487
  0
LINE
  8
0
 10
440.53
 20
16.8487
 11
440.693
 21
16.7655
  0
LINE
  8
0
 10
440.693
 20
16.7655
 11
440.847
 21
16.6658
  0
LINE
  8
0
 10
440.847
 20
16.6658
 11
440.989
 21
16.5505
  0
LINE
  8
0
 10
440.989
 20
16.5505
 11
441.119
 21
16.421
  0
LINE
  8
0
 10
441.119
 20
16.421
 11
441.234
 21
16.2786
  0
LINE
  8
0
 10
441.234
 20
16.2786
 11
441.334
 21
16.125
  0
LINE
  8
0
 10
441.334
 20
16.125
 11
441.417
 21
15.9618
  0
LINE
  8
0
 10
441.417
 20
15.9618
 11
441.483
 21
15.7908
  0
LINE
  8
0
 10
441.483
 20
15.7908
 11
441.53
 21
15.6138
  0
LINE
  8
0
 10
441.53
 20
15.6138
 11
441.559
 21
15.4329
  0
LINE
  8
0
 10
441.559
 20
15.4329
 11
441.568
 21
15.25
  0
LINE
  8
0
 10
441.568
 20
15.25
 11
441.559
 21
15.0671
  0
LINE
  8
0
 10
441.559
 20
15.0671
 11
441.53
 21
14.8862
  0
LINE
  8
0
 10
441.53
 20
14.8862
 11
441.483
 21
14.7092
  0
LINE
  8
0
 10
441.483
 20
14.7092
 11
441.417
 21
14.5382
  0
LINE
  8
0
 10
441.417
 20
14.5382
 11
441.334
 21
14.375
  0
LINE
  8
0
 10
441.334
 20
14.375
 11
441.234
 21
14.2214
  0
LINE
  8
0
 10
441.234
 20
14.2214
 11
441.119
 21
14.079
  0
LINE
  8
0
 10
441.119
 20
14.079
 11
440.989
 21
13.9495
  0
LINE
  8
0
 10
440.989
 20
13.9495
 11
440.847
 21
13.8342
  0
LINE
  8
0
 10
440.847
 20
13.8342
 11
440.693
 21
13.7345
  0
LINE
  8
0
 10
440.693
 20
13.7345
 11
440.53
 21
13.6513
  0
LINE
  8
0
 10
440.53
 20
13.6513
 11
440.359
 21
13.5857
  0
LINE
  8
0
 10
440.359
 20
13.5857
 11
440.182
 21
13.5383
  0
LINE
  8
0
 10
440.182
 20
13.5383
 11
440.001
 21
13.5096
  0
LINE
  8
0
 10
440.001
 20
13.5096
 11
439.818
 21
13.5
  0
LINE
  8
0
 10
439.818
 20
13.5
 11
439.635
 21
13.5096
  0
LINE
  8
0
 10
313.09
 20
13.5096
 11
312.909
 21
13.5383
  0
LINE
  8
0
 10
312.909
 20
13.5383
 11
312.732
 21
13.5857
  0
LINE
  8
0
 10
312.732
 20
13.5857
 11
312.561
 21
13.6513
  0
LINE
  8
0
 10
312.561
 20
13.6513
 11
312.398
 21
13.7345
  0
LINE
  8
0
 10
312.398
 20
13.7345
 11
312.244
 21
13.8342
  0
LINE
  8
0
 10
312.244
 20
13.8342
 11
312.102
 21
13.9495
  0
LINE
  8
0
 10
312.102
 20
13.9495
 11
311.972
 21
14.079
  0
LINE
  8
0
 10
311.972
 20
14.079
 11
311.857
 21
14.2214
  0
LINE
  8
0
 10
311.857
 20
14.2214
 11
311.757
 21
14.375
  0
LINE
  8
0
 10
311.757
 20
14.375
 11
311.674
 21
14.5382
  0
LINE
  8
0
 10
311.674
 20
14.5382
 11
311.608
 21
14.7092
  0
LINE
  8
0
 10
311.608
 20
14.7092
 11
311.561
 21
14.8862
  0
LINE
  8
0
 10
311.561
 20
14.8862
 11
311.532
 21
15.0671
  0
LINE
  8
0
 10
311.532
 20
15.0671
 11
311.523
 21
15.25
  0
LINE
  8
0
 10
311.523
 20
15.25
 11
311.532
 21
15.4329
  0
LINE
  8
0
 10
311.532
 20
15.4329
 11
311.561
 21
15.6138
  0
LINE
  8
0
 10
311.561
 20
15.6138
 11
311.608
 21
15.7908
  0
LINE
  8
0
 10
311.608
 20
15.7908
 11
311.674
 21
15.9618
  0
LINE
  8
0
 10
311.674
 20
15.9618
 11
311.757
 21
16.125
  0
LINE
  8
0
 10
311.757
 20
16.125
 11
311.857
 21
16.2786
  0
LINE
  8
0
 10
311.857
 20
16.2786
 11
311.972
 21
16.421
  0
LINE
  8
0
 10
311.972
 20
16.421
 11
312.102
 21
16.5505
  0
LINE
  8
0
 10
312.102
 20
16.5505
 11
312.244
 21
16.6658
  0
LINE
  8
0
 10
312.244
 20
16.6658
 11
312.398
 21
16.7655
  0
LINE
  8
0
 10
312.398
 20
16.7655
 11
312.561
 21
16.8487
  0
LINE
  8
0
 10
312.561
 20
16.8487
 11
312.732
 21
16.9144
  0
LINE
  8
0
 10
312.732
 20
16.9144
 11
312.909
 21
16.9618
  0
LINE
  8
0
 10
312.909
 20
16.9618
 11
313.09
 21
16.9904
  0
LINE
  8
0
 10
313.09
 20
16.9904
 11
313.273
 21
17
  0
LINE
  8
0
 10
313.273
 20
17
 11
313.456
 21
16.9904
  0
LINE
  8
0
 10
313.456
 20
16.9904
 11
313.637
 21
16.9618
  0
LINE
  8
0
 10
313.637
 20
16.9618
 11
313.813
 21
16.9144
  0
LINE
  8
0
 10
313.813
 20
16.9144
 11
313.984
 21
16.8487
  0
LINE
  8
0
 10
313.984
 20
16.8487
 11
314.148
 21
16.7655
  0
LINE
  8
0
 10
314.148
 20
16.7655
 11
314.301
 21
16.6658
  0
LINE
  8
0
 10
314.301
 20
16.6658
 11
314.444
 21
16.5505
  0
LINE
  8
0
 10
314.444
 20
16.5505
 11
314.573
 21
16.421
  0
LINE
  8
0
 10
314.573
 20
16.421
 11
314.688
 21
16.2786
  0
LINE
  8
0
 10
314.688
 20
16.2786
 11
314.788
 21
16.125
  0
LINE
  8
0
 10
314.788
 20
16.125
 11
314.871
 21
15.9618
  0
LINE
  8
0
 10
314.871
 20
15.9618
 11
314.937
 21
15.7908
  0
LINE
  8
0
 10
314.937
 20
15.7908
 11
314.984
 21
15.6138
  0
LINE
  8
0
 10
314.984
 20
15.6138
 11
315.013
 21
15.4329
  0
LINE
  8
0
 10
315.013
 20
15.4329
 11
315.023
 21
15.25
  0
LINE
  8
0
 10
315.023
 20
15.25
 11
315.013
 21
15.0671
  0
LINE
  8
0
 10
315.013
 20
15.0671
 11
314.984
 21
14.8862
  0
LINE
  8
0
 10
314.984
 20
14.8862
 11
314.937
 21
14.7092
  0
LINE
  8
0
 10
314.937
 20
14.7092
 11
314.871
 21
14.5382
  0
LINE
  8
0
 10
314.871
 20
14.5382
 11
314.788
 21
14.375
  0
LINE
  8
0
 10
314.788
 20
14.375
 11
314.688
 21
14.2214
  0
LINE
  8
0
 10
314.688
 20
14.2214
 11
314.573
 21
14.079
  0
LINE
  8
0
 10
314.573
 20
14.079
 11
314.444
 21
13.9495
  0
LINE
  8
0
 10
314.444
 20
13.9495
 11
314.301
 21
13.8342
  0
LINE
  8
0
 10
314.301
 20
13.8342
 11
314.148
 21
13.7345
  0
LINE
  8
0
 10
314.148
 20
13.7345
 11
313.984
 21
13.6513
  0
LINE
  8
0
 10
313.984
 20
13.6513
 11
313.813
 21
13.5857
  0
LINE
  8
0
 10
313.813
 20
13.5857
 11
313.637
 21
13.5383
  0
LINE
  8
0
 10
313.637
 20
13.5383
 11
313.456
 21
13.5096
  0
LINE
  8
0
 10
313.456
 20
13.5096
 11
313.273
 21
13.5
  0
LINE
  8
0
 10
313.273
 20
13.5
 11
313.09
 21
13.5096
  0
LINE
  8
0
 10
418.544
 20
13.5096
 11
418.363
 21
13.5383
  0
LINE
  8
0
 10
418.363
 20
13.5383
 11
418.186
 21
13.5857
  0
LINE
  8
0
 10
418.186
 20
13.5857
 11
418.015
 21
13.6513
  0
LINE
  8
0
 10
418.015
 20
13.6513
 11
417.852
 21
13.7345
  0
LINE
  8
0
 10
417.852
 20
13.7345
 11
417.699
 21
13.8342
  0
LINE
  8
0
 10
417.699
 20
13.8342
 11
417.556
 21
13.9495
  0
LINE
  8
0
 10
417.556
 20
13.9495
 11
417.427
 21
14.079
  0
LINE
  8
0
 10
417.427
 20
14.079
 11
417.311
 21
14.2214
  0
LINE
  8
0
 10
417.311
 20
14.2214
 11
417.212
 21
14.375
  0
LINE
  8
0
 10
417.212
 20
14.375
 11
417.129
 21
14.5382
  0
LINE
  8
0
 10
417.129
 20
14.5382
 11
417.063
 21
14.7092
  0
LINE
  8
0
 10
417.063
 20
14.7092
 11
417.016
 21
14.8862
  0
LINE
  8
0
 10
417.016
 20
14.8862
 11
416.987
 21
15.0671
  0
LINE
  8
0
 10
416.987
 20
15.0671
 11
416.977
 21
15.25
  0
LINE
  8
0
 10
416.977
 20
15.25
 11
416.987
 21
15.4329
  0
LINE
  8
0
 10
416.987
 20
15.4329
 11
417.016
 21
15.6138
  0
LINE
  8
0
 10
417.016
 20
15.6138
 11
417.063
 21
15.7908
  0
LINE
  8
0
 10
417.063
 20
15.7908
 11
417.129
 21
15.9618
  0
LINE
  8
0
 10
417.129
 20
15.9618
 11
417.212
 21
16.125
  0
LINE
  8
0
 10
417.212
 20
16.125
 11
417.311
 21
16.2786
  0
LINE
  8
0
 10
417.311
 20
16.2786
 11
417.427
 21
16.421
  0
LINE
  8
0
 10
417.427
 20
16.421
 11
417.556
 21
16.5505
  0
LINE
  8
0
 10
417.556
 20
16.5505
 11
417.699
 21
16.6658
  0
LINE
  8
0
 10
417.699
 20
16.6658
 11
417.852
 21
16.7655
  0
LINE
  8
0
 10
417.852
 20
16.7655
 11
418.015
 21
16.8487
  0
LINE
  8
0
 10
418.015
 20
16.8487
 11
418.186
 21
16.9144
  0
LINE
  8
0
 10
418.186
 20
16.9144
 11
418.363
 21
16.9618
  0
LINE
  8
0
 10
418.363
 20
16.9618
 11
418.544
 21
16.9904
  0
LINE
  8
0
 10
418.544
 20
16.9904
 11
418.727
 21
17
  0
LINE
  8
0
 10
418.727
 20
17
 11
418.91
 21
16.9904
  0
LINE
  8
0
 10
418.91
 20
16.9904
 11
419.091
 21
16.9618
  0
LINE
  8
0
 10
419.091
 20
16.9618
 11
419.268
 21
16.9144
  0
LINE
  8
0
 10
419.268
 20
16.9144
 11
419.439
 21
16.8487
  0
LINE
  8
0
 10
419.439
 20
16.8487
 11
419.602
 21
16.7655
  0
LINE
  8
0
 10
419.602
 20
16.7655
 11
419.756
 21
16.6658
  0
LINE
  8
0
 10
419.756
 20
16.6658
 11
419.898
 21
16.5505
  0
LINE
  8
0
 10
419.898
 20
16.5505
 11
420.028
 21
16.421
  0
LINE
  8
0
 10
420.028
 20
16.421
 11
420.143
 21
16.2786
  0
LINE
  8
0
 10
420.143
 20
16.2786
 11
420.243
 21
16.125
  0
LINE
  8
0
 10
420.243
 20
16.125
 11
420.326
 21
15.9618
  0
LINE
  8
0
 10
420.326
 20
15.9618
 11
420.392
 21
15.7908
  0
LINE
  8
0
 10
420.392
 20
15.7908
 11
420.439
 21
15.6138
  0
LINE
  8
0
 10
420.439
 20
15.6138
 11
420.468
 21
15.4329
  0
LINE
  8
0
 10
420.468
 20
15.4329
 11
420.477
 21
15.25
  0
LINE
  8
0
 10
420.477
 20
15.25
 11
420.468
 21
15.0671
  0
LINE
  8
0
 10
420.468
 20
15.0671
 11
420.439
 21
14.8862
  0
LINE
  8
0
 10
420.439
 20
14.8862
 11
420.392
 21
14.7092
  0
LINE
  8
0
 10
420.392
 20
14.7092
 11
420.326
 21
14.5382
  0
LINE
  8
0
 10
420.326
 20
14.5382
 11
420.243
 21
14.375
  0
LINE
  8
0
 10
420.243
 20
14.375
 11
420.143
 21
14.2214
  0
LINE
  8
0
 10
420.143
 20
14.2214
 11
420.028
 21
14.079
  0
LINE
  8
0
 10
420.028
 20
14.079
 11
419.898
 21
13.9495
  0
LINE
  8
0
 10
419.898
 20
13.9495
 11
419.756
 21
13.8342
  0
LINE
  8
0
 10
419.756
 20
13.8342
 11
419.602
 21
13.7345
  0
LINE
  8
0
 10
419.602
 20
13.7345
 11
419.439
 21
13.6513
  0
LINE
  8
0
 10
419.439
 20
13.6513
 11
419.268
 21
13.5857
  0
LINE
  8
0
 10
419.268
 20
13.5857
 11
419.091
 21
13.5383
  0
LINE
  8
0
 10
419.091
 20
13.5383
 11
418.91
 21
13.5096
  0
LINE
  8
0
 10
418.91
 20
13.5096
 11
418.727
 21
13.5
  0
LINE
  8
0
 10
418.727
 20
13.5
 11
418.544
 21
13.5096
  0
ENDSEC
  0
SECTION
  2
OBJECTS
  0
DICTIONARY
  0
ENDSEC
  0
EOF
