<?xml version="1.0" standalone="no"?>
<!DOCTYPE svg PUBLIC "-//W3C//DTD SVG 1.1//EN" "http://www.w3.org/Graphics/SVG/1.1/DTD/svg11.dtd">
<svg width="500mm" height="60mm" viewBox="0 -60 500 60" xmlns="http://www.w3.org/2000/svg" version="1.1">
<title>OpenSCAD Model</title>
<path d="
M 27,-30 L 27,-0 L 241,-0 L 241,-30 L 259,-30 L 259,-0
 L 473,-0 L 473,-30 L 491,-30 L 491,-0 L 500,-0 L 500,-60
 L 0,-60 L 0,-0 L 9,-0 L 9,-30 z
M 59.9989,-43.0096 L 59.818,-43.0382 L 59.641,-43.0856 L 59.47,-43.1513 L 59.3068,-43.2345 L 59.1532,-43.3342
 L 59.0108,-43.4495 L 58.8813,-43.579 L 58.766,-43.7214 L 58.6663,-43.875 L 58.5831,-44.0382 L 58.5175,-44.2092
 L 58.4701,-44.3862 L 58.4414,-44.5671 L 58.4318,-44.75 L 58.4414,-44.9329 L 58.4701,-45.1138 L 58.5175,-45.2908
 L 58.5831,-45.4618 L 58.6663,-45.625 L 58.766,-45.7786 L 58.8813,-45.921 L 59.0108,-46.0505 L 59.1532,-46.1658
 L 59.3068,-46.2655 L 59.47,-46.3487 L 59.641,-46.4143 L 59.818,-46.4617 L 59.9989,-46.4904 L 60.1818,-46.5
 L 60.3647,-46.4904 L 60.5456,-46.4617 L 60.7226,-46.4143 L 60.8936,-46.3487 L 61.0568,-46.2655 L 61.2104,-46.1658
 L 61.3528,-46.0505 L 61.4823,-45.921 L 61.5976,-45.7786 L 61.6973,-45.625 L 61.7805,-45.4618 L 61.8461,-45.2908
 L 61.8936,-45.1138 L 61.9222,-44.9329 L 61.9318,-44.75 L 61.9222,-44.5671 L 61.8936,-44.3862 L 61.8461,-44.2092
 L 61.7805,-44.0382 L 61.6973,-43.875 L 61.5976,-43.7214 L 61.4823,-43.579 L 61.3528,-43.4495 L 61.2104,-43.3342
 L 61.0568,-43.2345 L 60.8936,-43.1513 L 60.7226,-43.0856 L 60.5456,-43.0382 L 60.3647,-43.0096 L 60.1818,-43
 z
M 38.908,-43.0096 L 38.7271,-43.0382 L 38.5501,-43.0856 L 38.3791,-43.1513 L 38.2159,-43.2345 L 38.0623,-43.3342
 L 37.9199,-43.4495 L 37.7904,-43.579 L 37.6751,-43.7214 L 37.5754,-43.875 L 37.4922,-44.0382 L 37.4266,-44.2092
 L 37.3792,-44.3862 L 37.3505,-44.5671 L 37.3409,-44.75 L 37.3505,-44.9329 L 37.3792,-45.1138 L 37.4266,-45.2908
 L 37.4922,-45.4618 L 37.5754,-45.625 L 37.6751,-45.7786 L 37.7904,-45.921 L 37.9199,-46.0505 L 38.0623,-46.1658
 L 38.2159,-46.2655 L 38.3791,-46.3487 L 38.5501,-46.4143 L 38.7271,-46.4617 L 38.908,-46.4904 L 39.0909,-46.5
 L 39.2738,-46.4904 L 39.4547,-46.4617 L 39.6317,-46.4143 L 39.8027,-46.3487 L 39.9659,-46.2655 L 40.1195,-46.1658
 L 40.2619,-46.0505 L 40.3914,-45.921 L 40.5067,-45.7786 L 40.6064,-45.625 L 40.6896,-45.4618 L 40.7552,-45.2908
 L 40.8026,-45.1138 L 40.8313,-44.9329 L 40.8409,-44.75 L 40.8313,-44.5671 L 40.8026,-44.3862 L 40.7552,-44.2092
 L 40.6896,-44.0382 L 40.6064,-43.875 L 40.5067,-43.7214 L 40.3914,-43.579 L 40.2619,-43.4495 L 40.1195,-43.3342
 L 39.9659,-43.2345 L 39.8027,-43.1513 L 39.6317,-43.0856 L 39.4547,-43.0382 L 39.2738,-43.0096 L 39.0909,-43
 z
M 228.726,-43.0096 L 228.545,-43.0382 L 228.368,-43.0856 L 228.197,-43.1513 L 228.034,-43.2345 L 227.88,-43.3342
 L 227.738,-43.4495 L 227.609,-43.579 L 227.493,-43.7214 L 227.394,-43.875 L 227.31,-44.0382 L 227.245,-44.2092
 L 227.197,-44.3862 L 227.169,-44.5671 L 227.159,-44.75 L 227.169,-44.9329 L 227.197,-45.1138 L 227.245,-45.2908
 L 227.31,-45.4618 L 227.394,-45.625 L 227.493,-45.7786 L 227.609,-45.921 L 227.738,-46.0505 L 227.88,-46.1658
 L 228.034,-46.2655 L 228.197,-46.3487 L 228.368,-46.4143 L 228.545,-46.4617 L 228.726,-46.4904 L 228.909,-46.5
 L 229.092,-46.4904 L 229.273,-46.4617 L 229.45,-46.4143 L 229.621,-46.3487 L 229.784,-46.2655 L 229.938,-46.1658
 L 230.08,-46.0505 L 230.21,-45.921 L 230.325,-45.7786 L 230.425,-45.625 L 230.508,-45.4618 L 230.573,-45.2908
 L 230.621,-45.1138 L 230.649,-44.9329 L 230.659,-44.75 L 230.649,-44.5671 L 230.621,-44.3862 L 230.573,-44.2092
 L 230.508,-44.0382 L 230.425,-43.875 L 230.325,-43.7214 L 230.21,-43.579 L 230.08,-43.4495 L 229.938,-43.3342
 L 229.784,-43.2345 L 229.621,-43.1513 L 229.45,-43.0856 L 229.273,-43.0382 L 229.092,-43.0096 L 228.909,-43
 z
M 81.0898,-43.0096 L 80.9089,-43.0382 L 80.7319,-43.0856 L 80.5609,-43.1513 L 80.3977,-43.2345 L 80.2441,-43.3342
 L 80.1017,-43.4495 L 79.9722,-43.579 L 79.8569,-43.7214 L 79.7572,-43.875 L 79.674,-44.0382 L 79.6084,-44.2092
 L 79.561,-44.3862 L 79.5323,-44.5671 L 79.5227,-44.75 L 79.5323,-44.9329 L 79.561,-45.1138 L 79.6084,-45.2908
 L 79.674,-45.4618 L 79.7572,-45.625 L 79.8569,-45.7786 L 79.9722,-45.921 L 80.1017,-46.0505 L 80.2441,-46.1658
 L 80.3977,-46.2655 L 80.5609,-46.3487 L 80.7319,-46.4143 L 80.9089,-46.4617 L 81.0898,-46.4904 L 81.2727,-46.5
 L 81.4556,-46.4904 L 81.6366,-46.4617 L 81.8135,-46.4143 L 81.9845,-46.3487 L 82.1477,-46.2655 L 82.3013,-46.1658
 L 82.4437,-46.0505 L 82.5732,-45.921 L 82.6885,-45.7786 L 82.7883,-45.625 L 82.8714,-45.4618 L 82.9371,-45.2908
 L 82.9845,-45.1138 L 83.0131,-44.9329 L 83.0227,-44.75 L 83.0131,-44.5671 L 82.9845,-44.3862 L 82.9371,-44.2092
 L 82.8714,-44.0382 L 82.7883,-43.875 L 82.6885,-43.7214 L 82.5732,-43.579 L 82.4437,-43.4495 L 82.3013,-43.3342
 L 82.1477,-43.2345 L 81.9845,-43.1513 L 81.8135,-43.0856 L 81.6366,-43.0382 L 81.4556,-43.0096 L 81.2727,-43
 z
M 207.635,-43.0096 L 207.454,-43.0382 L 207.277,-43.0856 L 207.106,-43.1513 L 206.943,-43.2345 L 206.79,-43.3342
 L 206.647,-43.4495 L 206.518,-43.579 L 206.402,-43.7214 L 206.303,-43.875 L 206.219,-44.0382 L 206.154,-44.2092
 L 206.106,-44.3862 L 206.078,-44.5671 L 206.068,-44.75 L 206.078,-44.9329 L 206.106,-45.1138 L 206.154,-45.2908
 L 206.219,-45.4618 L 206.303,-45.625 L 206.402,-45.7786 L 206.518,-45.921 L 206.647,-46.0505 L 206.79,-46.1658
 L 206.943,-46.2655 L 207.106,-46.3487 L 207.277,-46.4143 L 207.454,-46.4617 L 207.635,-46.4904 L 207.818,-46.5
 L 208.001,-46.4904 L 208.182,-46.4617 L 208.359,-46.4143 L 208.53,-46.3487 L 208.693,-46.2655 L 208.847,-46.1658
 L 208.989,-46.0505 L 209.119,-45.921 L 209.234,-45.7786 L 209.334,-45.625 L 209.417,-45.4618 L 209.483,-45.2908
 L 209.53,-45.1138 L 209.559,-44.9329 L 209.568,-44.75 L 209.559,-44.5671 L 209.53,-44.3862 L 209.483,-44.2092
 L 209.417,-44.0382 L 209.334,-43.875 L 209.234,-43.7214 L 209.119,-43.579 L 208.989,-43.4495 L 208.847,-43.3342
 L 208.693,-43.2345 L 208.53,-43.1513 L 208.359,-43.0856 L 208.182,-43.0382 L 208.001,-43.0096 L 207.818,-43
 z
M 102.181,-43.0096 L 102,-43.0382 L 101.823,-43.0856 L 101.652,-43.1513 L 101.489,-43.2345 L 101.335,-43.3342
 L 101.193,-43.4495 L 101.063,-43.579 L 100.948,-43.7214 L 100.848,-43.875 L 100.765,-44.0382 L 100.699,-44.2092
 L 100.652,-44.3862 L 100.623,-44.5671 L 100.614,-44.75 L 100.623,-44.9329 L 100.652,-45.1138 L 100.699,-45.2908
 L 100.765,-45.4618 L 100.848,-45.625 L 100.948,-45.7786 L 101.063,-45.921 L 101.193,-46.0505 L 101.335,-46.1658
 L 101.489,-46.2655 L 101.652,-46.3487 L 101.823,-46.4143 L 102,-46.4617 L 102.181,-46.4904 L 102.364,-46.5
 L 102.547,-46.4904 L 102.727,-46.4617 L 102.904,-46.4143 L 103.075,-46.3487 L 103.239,-46.2655 L 103.392,-46.1658
 L 103.535,-46.0505 L 103.664,-45.921 L 103.779,-45.7786 L 103.879,-45.625 L 103.962,-45.4618 L 104.028,-45.2908
 L 104.075,-45.1138 L 104.104,-44.9329 L 104.114,-44.75 L 104.104,-44.5671 L 104.075,-44.3862 L 104.028,-44.2092
 L 103.962,-44.0382 L 103.879,-43.875 L 103.779,-43.7214 L 103.664,-43.579 L 103.535,-43.4495 L 103.392,-43.3342
 L 103.239,-43.2345 L 103.075,-43.1513 L 102.904,-43.0856 L 102.727,-43.0382 L 102.547,-43.0096 L 102.364,-43
 z
M 186.544,-43.0096 L 186.363,-43.0382 L 186.186,-43.0856 L 186.015,-43.1513 L 185.852,-43.2345 L 185.699,-43.3342
 L 185.556,-43.4495 L 185.427,-43.579 L 185.311,-43.7214 L 185.212,-43.875 L 185.129,-44.0382 L 185.063,-44.2092
 L 185.016,-44.3862 L 184.987,-44.5671 L 184.977,-44.75 L 184.987,-44.9329 L 185.016,-45.1138 L 185.063,-45.2908
 L 185.129,-45.4618 L 185.212,-45.625 L 185.311,-45.7786 L 185.427,-45.921 L 185.556,-46.0505 L 185.699,-46.1658
 L 185.852,-46.2655 L 186.015,-46.3487 L 186.186,-46.4143 L 186.363,-46.4617 L 186.544,-46.4904 L 186.727,-46.5
 L 186.91,-46.4904 L 187.091,-46.4617 L 187.268,-46.4143 L 187.439,-46.3487 L 187.602,-46.2655 L 187.756,-46.1658
 L 187.898,-46.0505 L 188.028,-45.921 L 188.143,-45.7786 L 188.243,-45.625 L 188.326,-45.4618 L 188.392,-45.2908
 L 188.439,-45.1138 L 188.468,-44.9329 L 188.477,-44.75 L 188.468,-44.5671 L 188.439,-44.3862 L 188.392,-44.2092
 L 188.326,-44.0382 L 188.243,-43.875 L 188.143,-43.7214 L 188.028,-43.579 L 187.898,-43.4495 L 187.756,-43.3342
 L 187.602,-43.2345 L 187.439,-43.1513 L 187.268,-43.0856 L 187.091,-43.0382 L 186.91,-43.0096 L 186.727,-43
 z
M 123.272,-43.0096 L 123.091,-43.0382 L 122.914,-43.0856 L 122.743,-43.1513 L 122.58,-43.2345 L 122.426,-43.3342
 L 122.284,-43.4495 L 122.154,-43.579 L 122.039,-43.7214 L 121.939,-43.875 L 121.856,-44.0382 L 121.79,-44.2092
 L 121.743,-44.3862 L 121.714,-44.5671 L 121.705,-44.75 L 121.714,-44.9329 L 121.743,-45.1138 L 121.79,-45.2908
 L 121.856,-45.4618 L 121.939,-45.625 L 122.039,-45.7786 L 122.154,-45.921 L 122.284,-46.0505 L 122.426,-46.1658
 L 122.58,-46.2655 L 122.743,-46.3487 L 122.914,-46.4143 L 123.091,-46.4617 L 123.272,-46.4904 L 123.455,-46.5
 L 123.637,-46.4904 L 123.818,-46.4617 L 123.995,-46.4143 L 124.166,-46.3487 L 124.33,-46.2655 L 124.483,-46.1658
 L 124.626,-46.0505 L 124.755,-45.921 L 124.87,-45.7786 L 124.97,-45.625 L 125.053,-45.4618 L 125.119,-45.2908
 L 125.166,-45.1138 L 125.195,-44.9329 L 125.205,-44.75 L 125.195,-44.5671 L 125.166,-44.3862 L 125.119,-44.2092
 L 125.053,-44.0382 L 124.97,-43.875 L 124.87,-43.7214 L 124.755,-43.579 L 124.626,-43.4495 L 124.483,-43.3342
 L 124.33,-43.2345 L 124.166,-43.1513 L 123.995,-43.0856 L 123.818,-43.0382 L 123.637,-43.0096 L 123.455,-43
 z
M 165.453,-43.0096 L 165.273,-43.0382 L 165.096,-43.0856 L 164.925,-43.1513 L 164.761,-43.2345 L 164.608,-43.3342
 L 164.465,-43.4495 L 164.336,-43.579 L 164.221,-43.7214 L 164.121,-43.875 L 164.038,-44.0382 L 163.972,-44.2092
 L 163.925,-44.3862 L 163.896,-44.5671 L 163.886,-44.75 L 163.896,-44.9329 L 163.925,-45.1138 L 163.972,-45.2908
 L 164.038,-45.4618 L 164.121,-45.625 L 164.221,-45.7786 L 164.336,-45.921 L 164.465,-46.0505 L 164.608,-46.1658
 L 164.761,-46.2655 L 164.925,-46.3487 L 165.096,-46.4143 L 165.273,-46.4617 L 165.453,-46.4904 L 165.636,-46.5
 L 165.819,-46.4904 L 166,-46.4617 L 166.177,-46.4143 L 166.348,-46.3487 L 166.511,-46.2655 L 166.665,-46.1658
 L 166.807,-46.0505 L 166.937,-45.921 L 167.052,-45.7786 L 167.152,-45.625 L 167.235,-45.4618 L 167.301,-45.2908
 L 167.348,-45.1138 L 167.377,-44.9329 L 167.386,-44.75 L 167.377,-44.5671 L 167.348,-44.3862 L 167.301,-44.2092
 L 167.235,-44.0382 L 167.152,-43.875 L 167.052,-43.7214 L 166.937,-43.579 L 166.807,-43.4495 L 166.665,-43.3342
 L 166.511,-43.2345 L 166.348,-43.1513 L 166.177,-43.0856 L 166,-43.0382 L 165.819,-43.0096 L 165.636,-43
 z
M 144.363,-43.0096 L 144.182,-43.0382 L 144.005,-43.0856 L 143.834,-43.1513 L 143.67,-43.2345 L 143.517,-43.3342
 L 143.374,-43.4495 L 143.245,-43.579 L 143.13,-43.7214 L 143.03,-43.875 L 142.947,-44.0382 L 142.881,-44.2092
 L 142.834,-44.3862 L 142.805,-44.5671 L 142.795,-44.75 L 142.805,-44.9329 L 142.834,-45.1138 L 142.881,-45.2908
 L 142.947,-45.4618 L 143.03,-45.625 L 143.13,-45.7786 L 143.245,-45.921 L 143.374,-46.0505 L 143.517,-46.1658
 L 143.67,-46.2655 L 143.834,-46.3487 L 144.005,-46.4143 L 144.182,-46.4617 L 144.363,-46.4904 L 144.545,-46.5
 L 144.728,-46.4904 L 144.909,-46.4617 L 145.086,-46.4143 L 145.257,-46.3487 L 145.42,-46.2655 L 145.574,-46.1658
 L 145.716,-46.0505 L 145.846,-45.921 L 145.961,-45.7786 L 146.061,-45.625 L 146.144,-45.4618 L 146.21,-45.2908
 L 146.257,-45.1138 L 146.286,-44.9329 L 146.295,-44.75 L 146.286,-44.5671 L 146.257,-44.3862 L 146.21,-44.2092
 L 146.144,-44.0382 L 146.061,-43.875 L 145.961,-43.7214 L 145.846,-43.579 L 145.716,-43.4495 L 145.574,-43.3342
 L 145.42,-43.2345 L 145.257,-43.1513 L 145.086,-43.0856 L 144.909,-43.0382 L 144.728,-43.0096 L 144.545,-43
 z
M 291.999,-43.0096 L 291.818,-43.0382 L 291.641,-43.0856 L 291.47,-43.1513 L 291.307,-43.2345 L 291.153,-43.3342
 L 291.011,-43.4495 L 290.881,-43.579 L 290.766,-43.7214 L 290.666,-43.875 L 290.583,-44.0382 L 290.517,-44.2092
 L 290.47,-44.3862 L 290.441,-44.5671 L 290.432,-44.75 L 290.441,-44.9329 L 290.47,-45.1138 L 290.517,-45.2908
 L 290.583,-45.4618 L 290.666,-45.625 L 290.766,-45.7786 L 290.881,-45.921 L 291.011,-46.0505 L 291.153,-46.1658
 L 291.307,-46.2655 L 291.47,-46.3487 L 291.641,-46.4143 L 291.818,-46.4617 L 291.999,-46.4904 L 292.182,-46.5
 L 292.365,-46.4904 L 292.546,-46.4617 L 292.723,-46.4143 L 292.894,-46.3487 L 293.057,-46.2655 L 293.21,-46.1658
 L 293.353,-46.0505 L 293.482,-45.921 L 293.598,-45.7786 L 293.697,-45.625 L 293.781,-45.4618 L 293.846,-45.2908
 L 293.894,-45.1138 L 293.922,-44.9329 L 293.932,-44.75 L 293.922,-44.5671 L 293.894,-44.3862 L 293.846,-44.2092
 L 293.781,-44.0382 L 293.697,-43.875 L 293.598,-43.7214 L 293.482,-43.579 L 293.353,-43.4495 L 293.21,-43.3342
 L 293.057,-43.2345 L 292.894,-43.1513 L 292.723,-43.0856 L 292.546,-43.0382 L 292.365,-43.0096 L 292.182,-43
 z
M 460.726,-43.0096 L 460.545,-43.0382 L 460.368,-43.0856 L 460.197,-43.1513 L 460.034,-43.2345 L 459.88,-43.3342
 L 459.738,-43.4495 L 459.609,-43.579 L 459.493,-43.7214 L 459.394,-43.875 L 459.31,-44.0382 L 459.245,-44.2092
 L 459.197,-44.3862 L 459.169,-44.5671 L 459.159,-44.75 L 459.169,-44.9329 L 459.197,-45.1138 L 459.245,-45.2908
 L 459.31,-45.4618 L 459.394,-45.625 L 459.493,-45.7786 L 459.609,-45.921 L 459.738,-46.0505 L 459.88,-46.1658
 L 460.034,-46.2655 L 460.197,-46.3487 L 460.368,-46.4143 L 460.545,-46.4617 L 460.726,-46.4904 L 460.909,-46.5
 L 461.092,-46.4904 L 461.273,-46.4617 L 461.45,-46.4143 L 461.621,-46.3487 L 461.784,-46.2655 L 461.938,-46.1658
 L 462.08,-46.0505 L 462.21,-45.921 L 462.325,-45.7786 L 462.425,-45.625 L 462.508,-45.4618 L 462.573,-45.2908
 L 462.621,-45.1138 L 462.649,-44.9329 L 462.659,-44.75 L 462.649,-44.5671 L 462.621,-44.3862 L 462.573,-44.2092
 L 462.508,-44.0382 L 462.425,-43.875 L 462.325,-43.7214 L 462.21,-43.579 L 462.08,-43.4495 L 461.938,-43.3342
 L 461.784,-43.2345 L 461.621,-43.1513 L 461.45,-43.0856 L 461.273,-43.0382 L 461.092,-43.0096 L 460.909,-43
 z
M 313.09,-43.0096 L 312.909,-43.0382 L 312.732,-43.0856 L 312.561,-43.1513 L 312.398,-43.2345 L 312.244,-43.3342
 L 312.102,-43.4495 L 311.972,-43.579 L 311.857,-43.7214 L 311.757,-43.875 L 311.674,-44.0382 L 311.608,-44.2092
 L 311.561,-44.3862 L 311.532,-44.5671 L 311.523,-44.75 L 311.532,-44.9329 L 311.561,-45.1138 L 311.608,-45.2908
 L 311.674,-45.4618 L 311.757,-45.625 L 311.857,-45.7786 L 311.972,-45.921 L 312.102,-46.0505 L 312.244,-46.1658
 L 312.398,-46.2655 L 312.561,-46.3487 L 312.732,-46.4143 L 312.909,-46.4617 L 313.09,-46.4904 L 313.273,-46.5
 L 313.456,-46.4904 L 313.637,-46.4617 L 313.813,-46.4143 L 313.984,-46.3487 L 314.148,-46.2655 L 314.301,-46.1658
 L 314.444,-46.0505 L 314.573,-45.921 L 314.688,-45.7786 L 314.788,-45.625 L 314.871,-45.4618 L 314.937,-45.2908
 L 314.984,-45.1138 L 315.013,-44.9329 L 315.023,-44.75 L 315.013,-44.5671 L 314.984,-44.3862 L 314.937,-44.2092
 L 314.871,-44.0382 L 314.788,-43.875 L 314.688,-43.7214 L 314.573,-43.579 L 314.444,-43.4495 L 314.301,-43.3342
 L 314.148,-43.2345 L 313.984,-43.1513 L 313.813,-43.0856 L 313.637,-43.0382 L 313.456,-43.0096 L 313.273,-43
 z
M 439.635,-43.0096 L 439.454,-43.0382 L 439.277,-43.0856 L 439.106,-43.1513 L 438.943,-43.2345 L 438.79,-43.3342
 L 438.647,-43.4495 L 438.518,-43.579 L 438.402,-43.7214 L 438.303,-43.875 L 438.219,-44.0382 L 438.154,-44.2092
 L 438.106,-44.3862 L 438.078,-44.5671 L 438.068,-44.75 L 438.078,-44.9329 L 438.106,-45.1138 L 438.154,-45.2908
 L 438.219,-45.4618 L 438.303,-45.625 L 438.402,-45.7786 L 438.518,-45.921 L 438.647,-46.0505 L 438.79,-46.1658
 L 438.943,-46.2655 L 439.106,-46.3487 L 439.277,-46.4143 L 439.454,-46.4617 L 439.635,-46.4904 L 439.818,-46.5
 L 440.001,-46.4904 L 440.182,-46.4617 L 440.359,-46.4143 L 440.53,-46.3487 L 440.693,-46.2655 L 440.847,-46.1658
 L 440.989,-46.0505 L 441.119,-45.921 L 441.234,-45.7786 L 441.334,-45.625 L 441.417,-45.4618 L 441.483,-45.2908
 L 441.53,-45.1138 L 441.559,-44.9329 L 441.568,-44.75 L 441.559,-44.5671 L 441.53,-44.3862 L 441.483,-44.2092
 L 441.417,-44.0382 L 441.334,-43.875 L 441.234,-43.7214 L 441.119,-43.579 L 440.989,-43.4495 L 440.847,-43.3342
 L 440.693,-43.2345 L 440.53,-43.1513 L 440.359,-43.0856 L 440.182,-43.0382 L 440.001,-43.0096 L 439.818,-43
 z
M 334.181,-43.0096 L 334,-43.0382 L 333.823,-43.0856 L 333.652,-43.1513 L 333.489,-43.2345 L 333.335,-43.3342
 L 333.193,-43.4495 L 333.063,-43.579 L 332.948,-43.7214 L 332.848,-43.875 L 332.765,-44.0382 L 332.699,-44.2092
 L 332.652,-44.3862 L 332.623,-44.5671 L 332.614,-44.75 L 332.623,-44.9329 L 332.652,-45.1138 L 332.699,-45.2908
 L 332.765,-45.4618 L 332.848,-45.625 L 332.948,-45.7786 L 333.063,-45.921 L 333.193,-46.0505 L 333.335,-46.1658
 L 333.489,-46.2655 L 333.652,-46.3487 L 333.823,-46.4143 L 334,-46.4617 L 334.181,-46.4904 L 334.364,-46.5
 L 334.547,-46.4904 L 334.727,-46.4617 L 334.904,-46.4143 L 335.075,-46.3487 L 335.239,-46.2655 L 335.392,-46.1658
 L 335.535,-46.0505 L 335.664,-45.921 L 335.779,-45.7786 L 335.879,-45.625 L 335.962,-45.4618 L 336.028,-45.2908
 L 336.075,-45.1138 L 336.104,-44.9329 L 336.114,-44.75 L 336.104,-44.5671 L 336.075,-44.3862 L 336.028,-44.2092
 L 335.962,-44.0382 L 335.879,-43.875 L 335.779,-43.7214 L 335.664,-43.579 L 335.535,-43.4495 L 335.392,-43.3342
 L 335.239,-43.2345 L 335.075,-43.1513 L 334.904,-43.0856 L 334.727,-43.0382 L 334.547,-43.0096 L 334.364,-43
 z
M 418.544,-43.0096 L 418.363,-43.0382 L 418.186,-43.0856 L 418.015,-43.1513 L 417.852,-43.2345 L 417.699,-43.3342
 L 417.556,-43.4495 L 417.427,-43.579 L 417.311,-43.7214 L 417.212,-43.875 L 417.129,-44.0382 L 417.063,-44.2092
 L 417.016,-44.3862 L 416.987,-44.5671 L 416.977,-44.75 L 416.987,-44.9329 L 417.016,-45.1138 L 417.063,-45.2908
 L 417.129,-45.4618 L 417.212,-45.625 L 417.311,-45.7786 L 417.427,-45.921 L 417.556,-46.0505 L 417.699,-46.1658
 L 417.852,-46.2655 L 418.015,-46.3487 L 418.186,-46.4143 L 418.363,-46.4617 L 418.544,-46.4904 L 418.727,-46.5
 L 418.91,-46.4904 L 419.091,-46.4617 L 419.268,-46.4143 L 419.439,-46.3487 L 419.602,-46.2655 L 419.756,-46.1658
 L 419.898,-46.0505 L 420.028,-45.921 L 420.143,-45.7786 L 420.243,-45.625 L 420.326,-45.4618 L 420.392,-45.2908
 L 420.439,-45.1138 L 420.468,-44.9329 L 420.477,-44.75 L 420.468,-44.5671 L 420.439,-44.3862 L 420.392,-44.2092
 L 420.326,-44.0382 L 420.243,-43.875 L 420.143,-43.7214 L 420.028,-43.579 L 419.898,-43.4495 L 419.756,-43.3342
 L 419.602,-43.2345 L 419.439,-43.1513 L 419.268,-43.0856 L 419.091,-43.0382 L 418.91,-43.0096 L 418.727,-43
 z
M 355.272,-43.0096 L 355.091,-43.0382 L 354.914,-43.0856 L 354.743,-43.1513 L 354.58,-43.2345 L 354.426,-43.3342
 L 354.284,-43.4495 L 354.154,-43.579 L 354.039,-43.7214 L 353.939,-43.875 L 353.856,-44.0382 L 353.79,-44.2092
 L 353.743,-44.3862 L 353.714,-44.5671 L 353.705,-44.75 L 353.714,-44.9329 L 353.743,-45.1138 L 353.79,-45.2908
 L 353.856,-45.4618 L 353.939,-45.625 L 354.039,-45.7786 L 354.154,-45.921 L 354.284,-46.0505 L 354.426,-46.1658
 L 354.58,-46.2655 L 354.743,-46.3487 L 354.914,-46.4143 L 355.091,-46.4617 L 355.272,-46.4904 L 355.455,-46.5
 L 355.637,-46.4904 L 355.818,-46.4617 L 355.995,-46.4143 L 356.166,-46.3487 L 356.33,-46.2655 L 356.483,-46.1658
 L 356.626,-46.0505 L 356.755,-45.921 L 356.87,-45.7786 L 356.97,-45.625 L 357.053,-45.4618 L 357.119,-45.2908
 L 357.166,-45.1138 L 357.195,-44.9329 L 357.205,-44.75 L 357.195,-44.5671 L 357.166,-44.3862 L 357.119,-44.2092
 L 357.053,-44.0382 L 356.97,-43.875 L 356.87,-43.7214 L 356.755,-43.579 L 356.626,-43.4495 L 356.483,-43.3342
 L 356.33,-43.2345 L 356.166,-43.1513 L 355.995,-43.0856 L 355.818,-43.0382 L 355.637,-43.0096 L 355.455,-43
 z
M 397.453,-43.0096 L 397.273,-43.0382 L 397.096,-43.0856 L 396.925,-43.1513 L 396.761,-43.2345 L 396.608,-43.3342
 L 396.465,-43.4495 L 396.336,-43.579 L 396.221,-43.7214 L 396.121,-43.875 L 396.038,-44.0382 L 395.972,-44.2092
 L 395.925,-44.3862 L 395.896,-44.5671 L 395.886,-44.75 L 395.896,-44.9329 L 395.925,-45.1138 L 395.972,-45.2908
 L 396.038,-45.4618 L 396.121,-45.625 L 396.221,-45.7786 L 396.336,-45.921 L 396.465,-46.0505 L 396.608,-46.1658
 L 396.761,-46.2655 L 396.925,-46.3487 L 397.096,-46.4143 L 397.273,-46.4617 L 397.453,-46.4904 L 397.636,-46.5
 L 397.819,-46.4904 L 398,-46.4617 L 398.177,-46.4143 L 398.348,-46.3487 L 398.511,-46.2655 L 398.665,-46.1658
 L 398.807,-46.0505 L 398.937,-45.921 L 399.052,-45.7786 L 399.152,-45.625 L 399.235,-45.4618 L 399.301,-45.2908
 L 399.348,-45.1138 L 399.377,-44.9329 L 399.386,-44.75 L 399.377,-44.5671 L 399.348,-44.3862 L 399.301,-44.2092
 L 399.235,-44.0382 L 399.152,-43.875 L 399.052,-43.7214 L 398.937,-43.579 L 398.807,-43.4495 L 398.665,-43.3342
 L 398.511,-43.2345 L 398.348,-43.1513 L 398.177,-43.0856 L 398,-43.0382 L 397.819,-43.0096 L 397.636,-43
 z
M 376.363,-43.0096 L 376.182,-43.0382 L 376.005,-43.0856 L 375.834,-43.1513 L 375.67,-43.2345 L 375.517,-43.3342
 L 375.374,-43.4495 L 375.245,-43.579 L 375.13,-43.7214 L 375.03,-43.875 L 374.947,-44.0382 L 374.881,-44.2092
 L 374.834,-44.3862 L 374.805,-44.5671 L 374.795,-44.75 L 374.805,-44.9329 L 374.834,-45.1138 L 374.881,-45.2908
 L 374.947,-45.4618 L 375.03,-45.625 L 375.13,-45.7786 L 375.245,-45.921 L 375.374,-46.0505 L 375.517,-46.1658
 L 375.67,-46.2655 L 375.834,-46.3487 L 376.005,-46.4143 L 376.182,-46.4617 L 376.363,-46.4904 L 376.545,-46.5
 L 376.728,-46.4904 L 376.909,-46.4617 L 377.086,-46.4143 L 377.257,-46.3487 L 377.42,-46.2655 L 377.574,-46.1658
 L 377.716,-46.0505 L 377.846,-45.921 L 377.961,-45.7786 L 378.061,-45.625 L 378.144,-45.4618 L 378.21,-45.2908
 L 378.257,-45.1138 L 378.286,-44.9329 L 378.295,-44.75 L 378.286,-44.5671 L 378.257,-44.3862 L 378.21,-44.2092
 L 378.144,-44.0382 L 378.061,-43.875 L 377.961,-43.7214 L 377.846,-43.579 L 377.716,-43.4495 L 377.574,-43.3342
 L 377.42,-43.2345 L 377.257,-43.1513 L 377.086,-43.0856 L 376.909,-43.0382 L 376.728,-43.0096 L 376.545,-43
 z
M 270.908,-43.0096 L 270.727,-43.0382 L 270.55,-43.0856 L 270.379,-43.1513 L 270.216,-43.2345 L 270.062,-43.3342
 L 269.92,-43.4495 L 269.79,-43.579 L 269.675,-43.7214 L 269.575,-43.875 L 269.492,-44.0382 L 269.427,-44.2092
 L 269.379,-44.3862 L 269.35,-44.5671 L 269.341,-44.75 L 269.35,-44.9329 L 269.379,-45.1138 L 269.427,-45.2908
 L 269.492,-45.4618 L 269.575,-45.625 L 269.675,-45.7786 L 269.79,-45.921 L 269.92,-46.0505 L 270.062,-46.1658
 L 270.216,-46.2655 L 270.379,-46.3487 L 270.55,-46.4143 L 270.727,-46.4617 L 270.908,-46.4904 L 271.091,-46.5
 L 271.274,-46.4904 L 271.455,-46.4617 L 271.632,-46.4143 L 271.803,-46.3487 L 271.966,-46.2655 L 272.12,-46.1658
 L 272.262,-46.0505 L 272.391,-45.921 L 272.507,-45.7786 L 272.606,-45.625 L 272.69,-45.4618 L 272.755,-45.2908
 L 272.803,-45.1138 L 272.831,-44.9329 L 272.841,-44.75 L 272.831,-44.5671 L 272.803,-44.3862 L 272.755,-44.2092
 L 272.69,-44.0382 L 272.606,-43.875 L 272.507,-43.7214 L 272.391,-43.579 L 272.262,-43.4495 L 272.12,-43.3342
 L 271.966,-43.2345 L 271.803,-43.1513 L 271.632,-43.0856 L 271.455,-43.0382 L 271.274,-43.0096 L 271.091,-43
 z
M 288.932,-23.25 L 288.932,-36.75 L 295.432,-36.75 L 295.432,-23.25 z
M 35.8409,-23.25 L 35.8409,-36.75 L 42.3409,-36.75 L 42.3409,-23.25 z
M 225.659,-23.25 L 225.659,-36.75 L 232.159,-36.75 L 232.159,-23.25 z
M 183.477,-23.25 L 183.477,-36.75 L 189.977,-36.75 L 189.977,-23.25 z
M 162.386,-23.25 L 162.386,-36.75 L 168.886,-36.75 L 168.886,-23.25 z
M 141.295,-23.25 L 141.295,-36.75 L 147.795,-36.75 L 147.795,-23.25 z
M 120.205,-23.25 L 120.205,-36.75 L 126.705,-36.75 L 126.705,-23.25 z
M 99.1136,-23.25 L 99.1136,-36.75 L 105.614,-36.75 L 105.614,-23.25 z
M 78.0227,-23.25 L 78.0227,-36.75 L 84.5227,-36.75 L 84.5227,-23.25 z
M 56.9318,-23.25 L 56.9318,-36.75 L 63.4318,-36.75 L 63.4318,-23.25 z
M 331.114,-23.25 L 331.114,-36.75 L 337.614,-36.75 L 337.614,-23.25 z
M 352.205,-23.25 L 352.205,-36.75 L 358.705,-36.75 L 358.705,-23.25 z
M 373.295,-23.25 L 373.295,-36.75 L 379.795,-36.75 L 379.795,-23.25 z
M 394.386,-23.25 L 394.386,-36.75 L 400.886,-36.75 L 400.886,-23.25 z
M 415.477,-23.25 L 415.477,-36.75 L 421.977,-36.75 L 421.977,-23.25 z
M 436.568,-23.25 L 436.568,-36.75 L 443.068,-36.75 L 443.068,-23.25 z
M 457.659,-23.25 L 457.659,-36.75 L 464.159,-36.75 L 464.159,-23.25 z
M 204.568,-23.25 L 204.568,-36.75 L 211.068,-36.75 L 211.068,-23.25 z
M 267.841,-23.25 L 267.841,-36.75 L 274.341,-36.75 L 274.341,-23.25 z
M 310.023,-23.25 L 310.023,-36.75 L 316.523,-36.75 L 316.523,-23.25 z
M 165.453,-13.5096 L 165.273,-13.5383 L 165.096,-13.5857 L 164.925,-13.6513 L 164.761,-13.7345 L 164.608,-13.8342
 L 164.465,-13.9495 L 164.336,-14.079 L 164.221,-14.2214 L 164.121,-14.375 L 164.038,-14.5382 L 163.972,-14.7092
 L 163.925,-14.8862 L 163.896,-15.0671 L 163.886,-15.25 L 163.896,-15.4329 L 163.925,-15.6138 L 163.972,-15.7908
 L 164.038,-15.9618 L 164.121,-16.125 L 164.221,-16.2786 L 164.336,-16.421 L 164.465,-16.5505 L 164.608,-16.6658
 L 164.761,-16.7655 L 164.925,-16.8487 L 165.096,-16.9144 L 165.273,-16.9618 L 165.453,-16.9904 L 165.636,-17
 L 165.819,-16.9904 L 166,-16.9618 L 166.177,-16.9144 L 166.348,-16.8487 L 166.511,-16.7655 L 166.665,-16.6658
 L 166.807,-16.5505 L 166.937,-16.421 L 167.052,-16.2786 L 167.152,-16.125 L 167.235,-15.9618 L 167.301,-15.7908
 L 167.348,-15.6138 L 167.377,-15.4329 L 167.386,-15.25 L 167.377,-15.0671 L 167.348,-14.8862 L 167.301,-14.7092
 L 167.235,-14.5382 L 167.152,-14.375 L 167.052,-14.2214 L 166.937,-14.079 L 166.807,-13.9495 L 166.665,-13.8342
 L 166.511,-13.7345 L 166.348,-13.6513 L 166.177,-13.5857 L 166,-13.5383 L 165.819,-13.5096 L 165.636,-13.5
 z
M 376.363,-13.5096 L 376.182,-13.5383 L 376.005,-13.5857 L 375.834,-13.6513 L 375.67,-13.7345 L 375.517,-13.8342
 L 375.374,-13.9495 L 375.245,-14.079 L 375.13,-14.2214 L 375.03,-14.375 L 374.947,-14.5382 L 374.881,-14.7092
 L 374.834,-14.8862 L 374.805,-15.0671 L 374.795,-15.25 L 374.805,-15.4329 L 374.834,-15.6138 L 374.881,-15.7908
 L 374.947,-15.9618 L 375.03,-16.125 L 375.13,-16.2786 L 375.245,-16.421 L 375.374,-16.5505 L 375.517,-16.6658
 L 375.67,-16.7655 L 375.834,-16.8487 L 376.005,-16.9144 L 376.182,-16.9618 L 376.363,-16.9904 L 376.545,-17
 L 376.728,-16.9904 L 376.909,-16.9618 L 377.086,-16.9144 L 377.257,-16.8487 L 377.42,-16.7655 L 377.574,-16.6658
 L 377.716,-16.5505 L 377.846,-16.421 L 377.961,-16.2786 L 378.061,-16.125 L 378.144,-15.9618 L 378.21,-15.7908
 L 378.257,-15.6138 L 378.286,-15.4329 L 378.295,-15.25 L 378.286,-15.0671 L 378.257,-14.8862 L 378.21,-14.7092
 L 378.144,-14.5382 L 378.061,-14.375 L 377.961,-14.2214 L 377.846,-14.079 L 377.716,-13.9495 L 377.574,-13.8342
 L 377.42,-13.7345 L 377.257,-13.6513 L 377.086,-13.5857 L 376.909,-13.5383 L 376.728,-13.5096 L 376.545,-13.5
 z
M 355.272,-13.5096 L 355.091,-13.5383 L 354.914,-13.5857 L 354.743,-13.6513 L 354.58,-13.7345 L 354.426,-13.8342
 L 354.284,-13.9495 L 354.154,-14.079 L 354.039,-14.2214 L 353.939,-14.375 L 353.856,-14.5382 L 353.79,-14.7092
 L 353.743,-14.8862 L 353.714,-15.0671 L 353.705,-15.25 L 353.714,-15.4329 L 353.743,-15.6138 L 353.79,-15.7908
 L 353.856,-15.9618 L 353.939,-16.125 L 354.039,-16.2786 L 354.154,-16.421 L 354.284,-16.5505 L 354.426,-16.6658
 L 354.58,-16.7655 L 354.743,-16.8487 L 354.914,-16.9144 L 355.091,-16.9618 L 355.272,-16.9904 L 355.455,-17
 L 355.637,-16.9904 L 355.818,-16.9618 L 355.995,-16.9144 L 356.166,-16.8487 L 356.33,-16.7655 L 356.483,-16.6658
 L 356.626,-16.5505 L 356.755,-16.421 L 356.87,-16.2786 L 356.97,-16.125 L 357.053,-15.9618 L 357.119,-15.7908
 L 357.166,-15.6138 L 357.195,-15.4329 L 357.205,-15.25 L 357.195,-15.0671 L 357.166,-14.8862 L 357.119,-14.7092
 L 357.053,-14.5382 L 356.97,-14.375 L 356.87,-14.2214 L 356.755,-14.079 L 356.626,-13.9495 L 356.483,-13.8342
 L 356.33,-13.7345 L 356.166,-13.6513 L 355.995,-13.5857 L 355.818,-13.5383 L 355.637,-13.5096 L 355.455,-13.5
 z
M 334.181,-13.5096 L 334,-13.5383 L 333.823,-13.5857 L 333.652,-13.6513 L 333.489,-13.7345 L 333.335,-13.8342
 L 333.193,-13.9495 L 333.063,-14.079 L 332.948,-14.2214 L 332.848,-14.375 L 332.765,-14.5382 L 332.699,-14.7092
 L 332.652,-14.8862 L 332.623,-15.0671 L 332.614,-15.25 L 332.623,-15.4329 L 332.652,-15.6138 L 332.699,-15.7908
 L 332.765,-15.9618 L 332.848,-16.125 L 332.948,-16.2786 L 333.063,-16.421 L 333.193,-16.5505 L 333.335,-16.6658
 L 333.489,-16.7655 L 333.652,-16.8487 L 333.823,-16.9144 L 334,-16.9618 L 334.181,-16.9904 L 334.364,-17
 L 334.547,-16.9904 L 334.727,-16.9618 L 334.904,-16.9144 L 335.075,-16.8487 L 335.239,-16.7655 L 335.392,-16.6658
 L 335.535,-16.5505 L 335.664,-16.421 L 335.779,-16.2786 L 335.879,-16.125 L 335.962,-15.9618 L 336.028,-15.7908
 L 336.075,-15.6138 L 336.104,-15.4329 L 336.114,-15.25 L 336.104,-15.0671 L 336.075,-14.8862 L 336.028,-14.7092
 L 335.962,-14.5382 L 335.879,-14.375 L 335.779,-14.2214 L 335.664,-14.079 L 335.535,-13.9495 L 335.392,-13.8342
 L 335.239,-13.7345 L 335.075,-13.6513 L 334.904,-13.5857 L 334.727,-13.5383 L 334.547,-13.5096 L 334.364,-13.5
 z
M 228.726,-13.5096 L 228.545,-13.5383 L 228.368,-13.5857 L 228.197,-13.6513 L 228.034,-13.7345 L 227.88,-13.8342
 L 227.738,-13.9495 L 227.609,-14.079 L 227.493,-14.2214 L 227.394,-14.375 L 227.31,-14.5382 L 227.245,-14.7092
 L 227.197,-14.8862 L 227.169,-15.0671 L 227.159,-15.25 L 227.169,-15.4329 L 227.197,-15.6138 L 227.245,-15.7908
 L 227.31,-15.9618 L 227.394,-16.125 L 227.493,-16.2786 L 227.609,-16.421 L 227.738,-16.5505 L 227.88,-16.6658
 L 228.034,-16.7655 L 228.197,-16.8487 L 228.368,-16.9144 L 228.545,-16.9618 L 228.726,-16.9904 L 228.909,-17
 L 229.092,-16.9904 L 229.273,-16.9618 L 229.45,-16.9144 L 229.621,-16.8487 L 229.784,-16.7655 L 229.938,-16.6658
 L 230.08,-16.5505 L 230.21,-16.421 L 230.325,-16.2786 L 230.425,-16.125 L 230.508,-15.9618 L 230.573,-15.7908
 L 230.621,-15.6138 L 230.649,-15.4329 L 230.659,-15.25 L 230.649,-15.0671 L 230.621,-14.8862 L 230.573,-14.7092
 L 230.508,-14.5382 L 230.425,-14.375 L 230.325,-14.2214 L 230.21,-14.079 L 230.08,-13.9495 L 229.938,-13.8342
 L 229.784,-13.7345 L 229.621,-13.6513 L 229.45,-13.5857 L 229.273,-13.5383 L 229.092,-13.5096 L 228.909,-13.5
 z
M 38.908,-13.5096 L 38.7271,-13.5383 L 38.5501,-13.5857 L 38.3791,-13.6513 L 38.2159,-13.7345 L 38.0623,-13.8342
 L 37.9199,-13.9495 L 37.7904,-14.079 L 37.6751,-14.2214 L 37.5754,-14.375 L 37.4922,-14.5382 L 37.4266,-14.7092
 L 37.3792,-14.8862 L 37.3505,-15.0671 L 37.3409,-15.25 L 37.3505,-15.4329 L 37.3792,-15.6138 L 37.4266,-15.7908
 L 37.4922,-15.9618 L 37.5754,-16.125 L 37.6751,-16.2786 L 37.7904,-16.421 L 37.9199,-16.5505 L 38.0623,-16.6658
 L 38.2159,-16.7655 L 38.3791,-16.8487 L 38.5501,-16.9144 L 38.7271,-16.9618 L 38.908,-16.9904 L 39.0909,-17
 L 39.2738,-16.9904 L 39.4547,-16.9618 L 39.6317,-16.9144 L 39.8027,-16.8487 L 39.9659,-16.7655 L 40.1195,-16.6658
 L 40.2619,-16.5505 L 40.3914,-16.421 L 40.5067,-16.2786 L 40.6064,-16.125 L 40.6896,-15.9618 L 40.7552,-15.7908
 L 40.8026,-15.6138 L 40.8313,-15.4329 L 40.8409,-15.25 L 40.8313,-15.0671 L 40.8026,-14.8862 L 40.7552,-14.7092
 L 40.6896,-14.5382 L 40.6064,-14.375 L 40.5067,-14.2214 L 40.3914,-14.079 L 40.2619,-13.9495 L 40.1195,-13.8342
 L 39.9659,-13.7345 L 39.8027,-13.6513 L 39.6317,-13.5857 L 39.4547,-13.5383 L 39.2738,-13.5096 L 39.0909,-13.5
 z
M 207.635,-13.5096 L 207.454,-13.5383 L 207.277,-13.5857 L 207.106,-13.6513 L 206.943,-13.7345 L 206.79,-13.8342
 L 206.647,-13.9495 L 206.518,-14.079 L 206.402,-14.2214 L 206.303,-14.375 L 206.219,-14.5382 L 206.154,-14.7092
 L 206.106,-14.8862 L 206.078,-15.0671 L 206.068,-15.25 L 206.078,-15.4329 L 206.106,-15.6138 L 206.154,-15.7908
 L 206.219,-15.9618 L 206.303,-16.125 L 206.402,-16.2786 L 206.518,-16.421 L 206.647,-16.5505 L 206.79,-16.6658
 L 206.943,-16.7655 L 207.106,-16.8487 L 207.277,-16.9144 L 207.454,-16.9618 L 207.635,-16.9904 L 207.818,-17
 L 208.001,-16.9904 L 208.182,-16.9618 L 208.359,-16.9144 L 208.53,-16.8487 L 208.693,-16.7655 L 208.847,-16.6658
 L 208.989,-16.5505 L 209.119,-16.421 L 209.234,-16.2786 L 209.334,-16.125 L 209.417,-15.9618 L 209.483,-15.7908
 L 209.53,-15.6138 L 209.559,-15.4329 L 209.568,-15.25 L 209.559,-15.0671 L 209.53,-14.8862 L 209.483,-14.7092
 L 209.417,-14.5382 L 209.334,-14.375 L 209.234,-14.2214 L 209.119,-14.079 L 208.989,-13.9495 L 208.847,-13.8342
 L 208.693,-13.7345 L 208.53,-13.6513 L 208.359,-13.5857 L 208.182,-13.5383 L 208.001,-13.5096 L 207.818,-13.5
 z
M 59.9989,-13.5096 L 59.818,-13.5383 L 59.641,-13.5857 L 59.47,-13.6513 L 59.3068,-13.7345 L 59.1532,-13.8342
 L 59.0108,-13.9495 L 58.8813,-14.079 L 58.766,-14.2214 L 58.6663,-14.375 L 58.5831,-14.5382 L 58.5175,-14.7092
 L 58.4701,-14.8862 L 58.4414,-15.0671 L 58.4318,-15.25 L 58.4414,-15.4329 L 58.4701,-15.6138 L 58.5175,-15.7908
 L 58.5831,-15.9618 L 58.6663,-16.125 L 58.766,-16.2786 L 58.8813,-16.421 L 59.0108,-16.5505 L 59.1532,-16.6658
 L 59.3068,-16.7655 L 59.47,-16.8487 L 59.641,-16.9144 L 59.818,-16.9618 L 59.9989,-16.9904 L 60.1818,-17
 L 60.3647,-16.9904 L 60.5456,-16.9618 L 60.7226,-16.9144 L 60.8936,-16.8487 L 61.0568,-16.7655 L 61.2104,-16.6658
 L 61.3528,-16.5505 L 61.4823,-16.421 L 61.5976,-16.2786 L 61.6973,-16.125 L 61.7805,-15.9618 L 61.8461,-15.7908
 L 61.8936,-15.6138 L 61.9222,-15.4329 L 61.9318,-15.25 L 61.9222,-15.0671 L 61.8936,-14.8862 L 61.8461,-14.7092
 L 61.7805,-14.5382 L 61.6973,-14.375 L 61.5976,-14.2214 L 61.4823,-14.079 L 61.3528,-13.9495 L 61.2104,-13.8342
 L 61.0568,-13.7345 L 60.8936,-13.6513 L 60.7226,-13.5857 L 60.5456,-13.5383 L 60.3647,-13.5096 L 60.1818,-13.5
 z
M 186.544,-13.5096 L 186.363,-13.5383 L 186.186,-13.5857 L 186.015,-13.6513 L 185.852,-13.7345 L 185.699,-13.8342
 L 185.556,-13.9495 L 185.427,-14.079 L 185.311,-14.2214 L 185.212,-14.375 L 185.129,-14.5382 L 185.063,-14.7092
 L 185.016,-14.8862 L 184.987,-15.0671 L 184.977,-15.25 L 184.987,-15.4329 L 185.016,-15.6138 L 185.063,-15.7908
 L 185.129,-15.9618 L 185.212,-16.125 L 185.311,-16.2786 L 185.427,-16.421 L 185.556,-16.5505 L 185.699,-16.6658
 L 185.852,-16.7655 L 186.015,-16.8487 L 186.186,-16.9144 L 186.363,-16.9618 L 186.544,-16.9904 L 186.727,-17
 L 186.91,-16.9904 L 187.091,-16.9618 L 187.268,-16.9144 L 187.439,-16.8487 L 187.602,-16.7655 L 187.756,-16.6658
 L 187.898,-16.5505 L 188.028,-16.421 L 188.143,-16.2786 L 188.243,-16.125 L 188.326,-15.9618 L 188.392,-15.7908
 L 188.439,-15.6138 L 188.468,-15.4329 L 188.477,-15.25 L 188.468,-15.0671 L 188.439,-14.8862 L 188.392,-14.7092
 L 188.326,-14.5382 L 188.243,-14.375 L 188.143,-14.2214 L 188.028,-14.079 L 187.898,-13.9495 L 187.756,-13.8342
 L 187.602,-13.7345 L 187.439,-13.6513 L 187.268,-13.5857 L 187.091,-13.5383 L 186.91,-13.5096 L 186.727,-13.5
 z
M 81.0898,-13.5096 L 80.9089,-13.5383 L 80.7319,-13.5857 L 80.5609,-13.6513 L 80.3977,-13.7345 L 80.2441,-13.8342
 L 80.1017,-13.9495 L 79.9722,-14.079 L 79.8569,-14.2214 L 79.7572,-14.375 L 79.674,-14.5382 L 79.6084,-14.7092
 L 79.561,-14.8862 L 79.5323,-15.0671 L 79.5227,-15.25 L 79.5323,-15.4329 L 79.561,-15.6138 L 79.6084,-15.7908
 L 79.674,-15.9618 L 79.7572,-16.125 L 79.8569,-16.2786 L 79.9722,-16.421 L 80.1017,-16.5505 L 80.2441,-16.6658
 L 80.3977,-16.7655 L 80.5609,-16.8487 L 80.7319,-16.9144 L 80.9089,-16.9618 L 81.0898,-16.9904 L 81.2727,-17
 L 81.4556,-16.9904 L 81.6366,-16.9618 L 81.8135,-16.9144 L 81.9845,-16.8487 L 82.1477,-16.7655 L 82.3013,-16.6658
 L 82.4437,-16.5505 L 82.5732,-16.421 L 82.6885,-16.2786 L 82.7883,-16.125 L 82.8714,-15.9618 L 82.9371,-15.7908
 L 82.9845,-15.6138 L 83.0131,-15.4329 L 83.0227,-15.25 L 83.0131,-15.0671 L 82.9845,-14.8862 L 82.9371,-14.7092
 L 82.8714,-14.5382 L 82.7883,-14.375 L 82.6885,-14.2214 L 82.5732,-14.079 L 82.4437,-13.9495 L 82.3013,-13.8342
 L 82.1477,-13.7345 L 81.9845,-13.6513 L 81.8135,-13.5857 L 81.6366,-13.5383 L 81.4556,-13.5096 L 81.2727,-13.5
 z
M 397.453,-13.5096 L 397.273,-13.5383 L 397.096,-13.5857 L 396.925,-13.6513 L 396.761,-13.7345 L 396.608,-13.8342
 L 396.465,-13.9495 L 396.336,-14.079 L 396.221,-14.2214 L 396.121,-14.375 L 396.038,-14.5382 L 395.972,-14.7092
 L 395.925,-14.8862 L 395.896,-15.0671 L 395.886,-15.25 L 395.896,-15.4329 L 395.925,-15.6138 L 395.972,-15.7908
 L 396.038,-15.9618 L 396.121,-16.125 L 396.221,-16.2786 L 396.336,-16.421 L 396.465,-16.5505 L 396.608,-16.6658
 L 396.761,-16.7655 L 396.925,-16.8487 L 397.096,-16.9144 L 397.273,-16.9618 L 397.453,-16.9904 L 397.636,-17
 L 397.819,-16.9904 L 398,-16.9618 L 398.177,-16.9144 L 398.348,-16.8487 L 398.511,-16.7655 L 398.665,-16.6658
 L 398.807,-16.5505 L 398.937,-16.421 L 399.052,-16.2786 L 399.152,-16.125 L 399.235,-15.9618 L 399.301,-15.7908
 L 399.348,-15.6138 L 399.377,-15.4329 L 399.386,-15.25 L 399.377,-15.0671 L 399.348,-14.8862 L 399.301,-14.7092
 L 399.235,-14.5382 L 399.152,-14.375 L 399.052,-14.2214 L 398.937,-14.079 L 398.807,-13.9495 L 398.665,-13.8342
 L 398.511,-13.7345 L 398.348,-13.6513 L 398.177,-13.5857 L 398,-13.5383 L 397.819,-13.5096 L 397.636,-13.5
 z
M 102.181,-13.5096 L 102,-13.5383 L 101.823,-13.5857 L 101.652,-13.6513 L 101.489,-13.7345 L 101.335,-13.8342
 L 101.193,-13.9495 L 101.063,-14.079 L 100.948,-14.2214 L 100.848,-14.375 L 100.765,-14.5382 L 100.699,-14.7092
 L 100.652,-14.8862 L 100.623,-15.0671 L 100.614,-15.25 L 100.623,-15.4329 L 100.652,-15.6138 L 100.699,-15.7908
 L 100.765,-15.9618 L 100.848,-16.125 L 100.948,-16.2786 L 101.063,-16.421 L 101.193,-16.5505 L 101.335,-16.6658
 L 101.489,-16.7655 L 101.652,-16.8487 L 101.823,-16.9144 L 102,-16.9618 L 102.181,-16.9904 L 102.364,-17
 L 102.547,-16.9904 L 102.727,-16.9618 L 102.904,-16.9144 L 103.075,-16.8487 L 103.239,-16.7655 L 103.392,-16.6658
 L 103.535,-16.5505 L 103.664,-16.421 L 103.779,-16.2786 L 103.879,-16.125 L 103.962,-15.9618 L 104.028,-15.7908
 L 104.075,-15.6138 L 104.104,-15.4329 L 104.114,-15.25 L 104.104,-15.0671 L 104.075,-14.8862 L 104.028,-14.7092
 L 103.962,-14.5382 L 103.879,-14.375 L 103.779,-14.2214 L 103.664,-14.079 L 103.535,-13.9495 L 103.392,-13.8342
 L 103.239,-13.7345 L 103.075,-13.6513 L 102.904,-13.5857 L 102.727,-13.5383 L 102.547,-13.5096 L 102.364,-13.5
 z
M 144.363,-13.5096 L 144.182,-13.5383 L 144.005,-13.5857 L 143.834,-13.6513 L 143.67,-13.7345 L 143.517,-13.8342
 L 143.374,-13.9495 L 143.245,-14.079 L 143.13,-14.2214 L 143.03,-14.375 L 142.947,-14.5382 L 142.881,-14.7092
 L 142.834,-14.8862 L 142.805,-15.0671 L 142.795,-15.25 L 142.805,-15.4329 L 142.834,-15.6138 L 142.881,-15.7908
 L 142.947,-15.9618 L 143.03,-16.125 L 143.13,-16.2786 L 143.245,-16.421 L 143.374,-16.5505 L 143.517,-16.6658
 L 143.67,-16.7655 L 143.834,-16.8487 L 144.005,-16.9144 L 144.182,-16.9618 L 144.363,-16.9904 L 144.545,-17
 L 144.728,-16.9904 L 144.909,-16.9618 L 145.086,-16.9144 L 145.257,-16.8487 L 145.42,-16.7655 L 145.574,-16.6658
 L 145.716,-16.5505 L 145.846,-16.421 L 145.961,-16.2786 L 146.061,-16.125 L 146.144,-15.9618 L 146.21,-15.7908
 L 146.257,-15.6138 L 146.286,-15.4329 L 146.295,-15.25 L 146.286,-15.0671 L 146.257,-14.8862 L 146.21,-14.7092
 L 146.144,-14.5382 L 146.061,-14.375 L 145.961,-14.2214 L 145.846,-14.079 L 145.716,-13.9495 L 145.574,-13.8342
 L 145.42,-13.7345 L 145.257,-13.6513 L 145.086,-13.5857 L 144.909,-13.5383 L 144.728,-13.5096 L 144.545,-13.5
 z
M 123.272,-13.5096 L 123.091,-13.5383 L 122.914,-13.5857 L 122.743,-13.6513 L 122.58,-13.7345 L 122.426,-13.8342
 L 122.284,-13.9495 L 122.154,-14.079 L 122.039,-14.2214 L 121.939,-14.375 L 121.856,-14.5382 L 121.79,-14.7092
 L 121.743,-14.8862 L 121.714,-15.0671 L 121.705,-15.25 L 121.714,-15.4329 L 121.743,-15.6138 L 121.79,-15.7908
 L 121.856,-15.9618 L 121.939,-16.125 L 122.039,-16.2786 L 122.154,-16.421 L 122.284,-16.5505 L 122.426,-16.6658
 L 122.58,-16.7655 L 122.743,-16.8487 L 122.914,-16.9144 L 123.091,-16.9618 L 123.272,-16.9904 L 123.455,-17
 L 123.637,-16.9904 L 123.818,-16.9618 L 123.995,-16.9144 L 124.166,-16.8487 L 124.33,-16.7655 L 124.483,-16.6658
 L 124.626,-16.5505 L 124.755,-16.421 L 124.87,-16.2786 L 124.97,-16.125 L 125.053,-15.9618 L 125.119,-15.7908
 L 125.166,-15.6138 L 125.195,-15.4329 L 125.205,-15.25 L 125.195,-15.0671 L 125.166,-14.8862 L 125.119,-14.7092
 L 125.053,-14.5382 L 124.97,-14.375 L 124.87,-14.2214 L 124.755,-14.079 L 124.626,-13.9495 L 124.483,-13.8342
 L 124.33,-13.7345 L 124.166,-13.6513 L 123.995,-13.5857 L 123.818,-13.5383 L 123.637,-13.5096 L 123.455,-13.5
 z
M 460.726,-13.5096 L 460.545,-13.5383 L 460.368,-13.5857 L 460.197,-13.6513 L 460.034,-13.7345 L 459.88,-13.8342
 L 459.738,-13.9495 L 459.609,-14.079 L 459.493,-14.2214 L 459.394,-14.375 L 459.31,-14.5382 L 459.245,-14.7092
 L 459.197,-14.8862 L 459.169,-15.0671 L 459.159,-15.25 L 459.169,-15.4329 L 459.197,-15.6138 L 459.245,-15.7908
 L 459.31,-15.9618 L 459.394,-16.125 L 459.493,-16.2786 L 459.609,-16.421 L 459.738,-16.5505 L 459.88,-16.6658
 L 460.034,-16.7655 L 460.197,-16.8487 L 460.368,-16.9144 L 460.545,-16.9618 L 460.726,-16.9904 L 460.909,-17
 L 461.092,-16.9904 L 461.273,-16.9618 L 461.45,-16.9144 L 461.621,-16.8487 L 461.784,-16.7655 L 461.938,-16.6658
 L 462.08,-16.5505 L 462.21,-16.421 L 462.325,-16.2786 L 462.425,-16.125 L 462.508,-15.9618 L 462.573,-15.7908
 L 462.621,-15.6138 L 462.649,-15.4329 L 462.659,-15.25 L 462.649,-15.0671 L 462.621,-14.8862 L 462.573,-14.7092
 L 462.508,-14.5382 L 462.425,-14.375 L 462.325,-14.2214 L 462.21,-14.079 L 462.08,-13.9495 L 461.938,-13.8342
 L 461.784,-13.7345 L 461.621,-13.6513 L 461.45,-13.5857 L 461.273,-13.5383 L 461.092,-13.5096 L 460.909,-13.5
 z
M 270.908,-13.5096 L 270.727,-13.5383 L 270.55,-13.5857 L 270.379,-13.6513 L 270.216,-13.7345 L 270.062,-13.8342
 L 269.92,-13.9495 L 269.79,-14.079 L 269.675,-14.2214 L 269.575,-14.375 L 269.492,-14.5382 L 269.427,-14.7092
 L 269.379,-14.8862 L 269.35,-15.0671 L 269.341,-15.25 L 269.35,-15.4329 L 269.379,-15.6138 L 269.427,-15.7908
 L 269.492,-15.9618 L 269.575,-16.125 L 269.675,-16.2786 L 269.79,-16.421 L 269.92,-16.5505 L 270.062,-16.6658
 L 270.216,-16.7655 L 270.379,-16.8487 L 270.55,-16.9144 L 270.727,-16.9618 L 270.908,-16.9904 L 271.091,-17
 L 271.274,-16.9904 L 271.455,-16.9618 L 271.632,-16.9144 L 271.803,-16.8487 L 271.966,-16.7655 L 272.12,-16.6658
 L 272.262,-16.5505 L 272.391,-16.421 L 272.507,-16.2786 L 272.606,-16.125 L 272.69,-15.9618 L 272.755,-15.7908
 L 272.803,-15.6138 L 272.831,-15.4329 L 272.841,-15.25 L 272.831,-15.0671 L 272.803,-14.8862 L 272.755,-14.7092
 L 272.69,-14.5382 L 272.606,-14.375 L 272.507,-14.2214 L 272.391,-14.079 L 272.262,-13.9495 L 272.12,-13.8342
 L 271.966,-13.7345 L 271.803,-13.6513 L 271.632,-13.5857 L 271.455,-13.5383 L 271.274,-13.5096 L 271.091,-13.5
 z
M 439.635,-13.5096 L 439.454,-13.5383 L 439.277,-13.5857 L 439.106,-13.6513 L 438.943,-13.7345 L 438.79,-13.8342
 L 438.647,-13.9495 L 438.518,-14.079 L 438.402,-14.2214 L 438.303,-14.375 L 438.219,-14.5382 L 438.154,-14.7092
 L 438.106,-14.8862 L 438.078,-15.0671 L 438.068,-15.25 L 438.078,-15.4329 L 438.106,-15.6138 L 438.154,-15.7908
 L 438.219,-15.9618 L 438.303,-16.125 L 438.402,-16.2786 L 438.518,-16.421 L 438.647,-16.5505 L 438.79,-16.6658
 L 438.943,-16.7655 L 439.106,-16.8487 L 439.277,-16.9144 L 439.454,-16.9618 L 439.635,-16.9904 L 439.818,-17
 L 440.001,-16.9904 L 440.182,-16.9618 L 440.359,-16.9144 L 440.53,-16.8487 L 440.693,-16.7655 L 440.847,-16.6658
 L 440.989,-16.5505 L 441.119,-16.421 L 441.234,-16.2786 L 441.334,-16.125 L 441.417,-15.9618 L 441.483,-15.7908
 L 441.53,-15.6138 L 441.559,-15.4329 L 441.568,-15.25 L 441.559,-15.0671 L 441.53,-14.8862 L 441.483,-14.7092
 L 441.417,-14.5382 L 441.334,-14.375 L 441.234,-14.2214 L 441.119,-14.079 L 440.989,-13.9495 L 440.847,-13.8342
 L 440.693,-13.7345 L 440.53,-13.6513 L 440.359,-13.5857 L 440.182,-13.5383 L 440.001,-13.5096 L 439.818,-13.5
 z
M 291.999,-13.5096 L 291.818,-13.5383 L 291.641,-13.5857 L 291.47,-13.6513 L 291.307,-13.7345 L 291.153,-13.8342
 L 291.011,-13.9495 L 290.881,-14.079 L 290.766,-14.2214 L 290.666,-14.375 L 290.583,-14.5382 L 290.517,-14.7092
 L 290.47,-14.8862 L 290.441,-15.0671 L 290.432,-15.25 L 290.441,-15.4329 L 290.47,-15.6138 L 290.517,-15.7908
 L 290.583,-15.9618 L 290.666,-16.125 L 290.766,-16.2786 L 290.881,-16.421 L 291.011,-16.5505 L 291.153,-16.6658
 L 291.307,-16.7655 L 291.47,-16.8487 L 291.641,-16.9144 L 291.818,-16.9618 L 291.999,-16.9904 L 292.182,-17
 L 292.365,-16.9904 L 292.546,-16.9618 L 292.723,-16.9144 L 292.894,-16.8487 L 293.057,-16.7655 L 293.21,-16.6658
 L 293.353,-16.5505 L 293.482,-16.421 L 293.598,-16.2786 L 293.697,-16.125 L 293.781,-15.9618 L 293.846,-15.7908
 L 293.894,-15.6138 L 293.922,-15.4329 L 293.932,-15.25 L 293.922,-15.0671 L 293.894,-14.8862 L 293.846,-14.7092
 L 293.781,-14.5382 L 293.697,-14.375 L 293.598,-14.2214 L 293.482,-14.079 L 293.353,-13.9495 L 293.21,-13.8342
 L 293.057,-13.7345 L 292.894,-13.6513 L 292.723,-13.5857 L 292.546,-13.5383 L 292.365,-13.5096 L 292.182,-13.5
 z
M 418.544,-13.5096 L 418.363,-13.5383 L 418.186,-13.5857 L 418.015,-13.6513 L 417.852,-13.7345 L 417.699,-13.8342
 L 417.556,-13.9495 L 417.427,-14.079 L 417.311,-14.2214 L 417.212,-14.375 L 417.129,-14.5382 L 417.063,-14.7092
 L 417.016,-14.8862 L 416.987,-15.0671 L 416.977,-15.25 L 416.987,-15.4329 L 417.016,-15.6138 L 417.063,-15.7908
 L 417.129,-15.9618 L 417.212,-16.125 L 417.311,-16.2786 L 417.427,-16.421 L 417.556,-16.5505 L 417.699,-16.6658
 L 417.852,-16.7655 L 418.015,-16.8487 L 418.186,-16.9144 L 418.363,-16.9618 L 418.544,-16.9904 L 418.727,-17
 L 418.91,-16.9904 L 419.091,-16.9618 L 419.268,-16.9144 L 419.439,-16.8487 L 419.602,-16.7655 L 419.756,-16.6658
 L 419.898,-16.5505 L 420.028,-16.421 L 420.143,-16.2786 L 420.243,-16.125 L 420.326,-15.9618 L 420.392,-15.7908
 L 420.439,-15.6138 L 420.468,-15.4329 L 420.477,-15.25 L 420.468,-15.0671 L 420.439,-14.8862 L 420.392,-14.7092
 L 420.326,-14.5382 L 420.243,-14.375 L 420.143,-14.2214 L 420.028,-14.079 L 419.898,-13.9495 L 419.756,-13.8342
 L 419.602,-13.7345 L 419.439,-13.6513 L 419.268,-13.5857 L 419.091,-13.5383 L 418.91,-13.5096 L 418.727,-13.5
 z
M 313.09,-13.5096 L 312.909,-13.5383 L 312.732,-13.5857 L 312.561,-13.6513 L 312.398,-13.7345 L 312.244,-13.8342
 L 312.102,-13.9495 L 311.972,-14.079 L 311.857,-14.2214 L 311.757,-14.375 L 311.674,-14.5382 L 311.608,-14.7092
 L 311.561,-14.8862 L 311.532,-15.0671 L 311.523,-15.25 L 311.532,-15.4329 L 311.561,-15.6138 L 311.608,-15.7908
 L 311.674,-15.9618 L 311.757,-16.125 L 311.857,-16.2786 L 311.972,-16.421 L 312.102,-16.5505 L 312.244,-16.6658
 L 312.398,-16.7655 L 312.561,-16.8487 L 312.732,-16.9144 L 312.909,-16.9618 L 313.09,-16.9904 L 313.273,-17
 L 313.456,-16.9904 L 313.637,-16.9618 L 313.813,-16.9144 L 313.984,-16.8487 L 314.148,-16.7655 L 314.301,-16.6658
 L 314.444,-16.5505 L 314.573,-16.421 L 314.688,-16.2786 L 314.788,-16.125 L 314.871,-15.9618 L 314.937,-15.7908
 L 314.984,-15.6138 L 315.013,-15.4329 L 315.023,-15.25 L 315.013,-15.0671 L 314.984,-14.8862 L 314.937,-14.7092
 L 314.871,-14.5382 L 314.788,-14.375 L 314.688,-14.2214 L 314.573,-14.079 L 314.444,-13.9495 L 314.301,-13.8342
 L 314.148,-13.7345 L 313.984,-13.6513 L 313.813,-13.5857 L 313.637,-13.5383 L 313.456,-13.5096 L 313.273,-13.5
 z
" stroke="black" fill="lightgray" stroke-width="0.5"/>
</svg>
