  0
SECTION
  2
BLOCKS
  0
ENDSEC
  0
SECTION
  2
ENTITIES
  0
LINE
  8
0
 10
88.0333
 20
18.7121
 11
82.2191
 21
36.6063
  0
LINE
  8
0
 10
82.2191
 20
36.6063
 11
72.8115
 21
52.9007
  0
LINE
  8
0
 10
72.8115
 20
52.9007
 11
63.3778
 21
63.3778
  0
LINE
  8
0
 10
63.3778
 20
63.3778
 11
42.4264
 21
42.4264
  0
LINE
  8
0
 10
42.4264
 20
42.4264
 11
40.3051
 21
44.5477
  0
LINE
  8
0
 10
40.3051
 20
44.5477
 11
61.3677
 21
65.6103
  0
LINE
  8
0
 10
61.3677
 20
65.6103
 11
60.2217
 21
66.883
  0
LINE
  8
0
 10
60.2217
 20
66.883
 11
45
 21
77.9423
  0
LINE
  8
0
 10
45
 20
77.9423
 11
27.8115
 21
85.5951
  0
LINE
  8
0
 10
27.8115
 20
85.5951
 11
9.40755
 21
89.507
  0
LINE
  8
0
 10
9.40755
 20
89.507
 11
0
 21
89.507
  0
LINE
  8
0
 10
0
 20
89.507
 11
0
 21
0
  0
LINE
  8
0
 10
0
 20
0
 11
90
 21
0
  0
LINE
  8
0
 10
90
 20
0
 11
88.0333
 21
18.7121
  0
LINE
  8
0
 10
14.6655
 20
71.8175
 11
14.3347
 21
71.8699
  0
LINE
  8
0
 10
14.3347
 20
71.8699
 11
14.0111
 21
71.9566
  0
LINE
  8
0
 10
14.0111
 20
71.9566
 11
13.6984
 21
72.0766
  0
LINE
  8
0
 10
13.6984
 20
72.0766
 11
13.4
 21
72.2287
  0
LINE
  8
0
 10
13.4
 20
72.2287
 11
13.1191
 21
72.4111
  0
LINE
  8
0
 10
13.1191
 20
72.4111
 11
12.8588
 21
72.6219
  0
LINE
  8
0
 10
12.8588
 20
72.6219
 11
12.6219
 21
72.8588
  0
LINE
  8
0
 10
12.6219
 20
72.8588
 11
12.4111
 21
73.1191
  0
LINE
  8
0
 10
12.4111
 20
73.1191
 11
12.2287
 21
73.4
  0
LINE
  8
0
 10
12.2287
 20
73.4
 11
12.0766
 21
73.6984
  0
LINE
  8
0
 10
12.0766
 20
73.6984
 11
11.9566
 21
74.0111
  0
LINE
  8
0
 10
11.9566
 20
74.0111
 11
11.8699
 21
74.3347
  0
LINE
  8
0
 10
11.8699
 20
74.3347
 11
11.8175
 21
74.6655
  0
LINE
  8
0
 10
11.8175
 20
74.6655
 11
11.8
 21
75
  0
LINE
  8
0
 10
11.8
 20
75
 11
11.8175
 21
75.3345
  0
LINE
  8
0
 10
11.8175
 20
75.3345
 11
11.8699
 21
75.6653
  0
LINE
  8
0
 10
11.8699
 20
75.6653
 11
11.9566
 21
75.9888
  0
LINE
  8
0
 10
11.9566
 20
75.9888
 11
12.0766
 21
76.3015
  0
LINE
  8
0
 10
12.0766
 20
76.3015
 11
12.2287
 21
76.6
  0
LINE
  8
0
 10
12.2287
 20
76.6
 11
12.4111
 21
76.8809
  0
LINE
  8
0
 10
12.4111
 20
76.8809
 11
12.6219
 21
77.1412
  0
LINE
  8
0
 10
12.6219
 20
77.1412
 11
12.8588
 21
77.3781
  0
LINE
  8
0
 10
12.8588
 20
77.3781
 11
13.1191
 21
77.5889
  0
LINE
  8
0
 10
13.1191
 20
77.5889
 11
13.4
 21
77.7713
  0
LINE
  8
0
 10
13.4
 20
77.7713
 11
13.6984
 21
77.9233
  0
LINE
  8
0
 10
13.6984
 20
77.9233
 11
14.0111
 21
78.0434
  0
LINE
  8
0
 10
14.0111
 20
78.0434
 11
14.3347
 21
78.1301
  0
LINE
  8
0
 10
14.3347
 20
78.1301
 11
14.6655
 21
78.1825
  0
LINE
  8
0
 10
14.6655
 20
78.1825
 11
15
 21
78.2
  0
LINE
  8
0
 10
15
 20
78.2
 11
15.3345
 21
78.1825
  0
LINE
  8
0
 10
15.3345
 20
78.1825
 11
15.6653
 21
78.1301
  0
LINE
  8
0
 10
15.6653
 20
78.1301
 11
15.9888
 21
78.0434
  0
LINE
  8
0
 10
15.9888
 20
78.0434
 11
16.3015
 21
77.9233
  0
LINE
  8
0
 10
16.3015
 20
77.9233
 11
16.6
 21
77.7713
  0
LINE
  8
0
 10
16.6
 20
77.7713
 11
16.8809
 21
77.5889
  0
LINE
  8
0
 10
16.8809
 20
77.5889
 11
17.1412
 21
77.3781
  0
LINE
  8
0
 10
17.1412
 20
77.3781
 11
17.3781
 21
77.1412
  0
LINE
  8
0
 10
17.3781
 20
77.1412
 11
17.5889
 21
76.8809
  0
LINE
  8
0
 10
17.5889
 20
76.8809
 11
17.7713
 21
76.6
  0
LINE
  8
0
 10
17.7713
 20
76.6
 11
17.9233
 21
76.3015
  0
LINE
  8
0
 10
17.9233
 20
76.3015
 11
18.0434
 21
75.9888
  0
LINE
  8
0
 10
18.0434
 20
75.9888
 11
18.1301
 21
75.6653
  0
LINE
  8
0
 10
18.1301
 20
75.6653
 11
18.1825
 21
75.3345
  0
LINE
  8
0
 10
18.1825
 20
75.3345
 11
18.2
 21
75
  0
LINE
  8
0
 10
18.2
 20
75
 11
18.1825
 21
74.6655
  0
LINE
  8
0
 10
18.1825
 20
74.6655
 11
18.1301
 21
74.3347
  0
LINE
  8
0
 10
18.1301
 20
74.3347
 11
18.0434
 21
74.0111
  0
LINE
  8
0
 10
18.0434
 20
74.0111
 11
17.9233
 21
73.6984
  0
LINE
  8
0
 10
17.9233
 20
73.6984
 11
17.7713
 21
73.4
  0
LINE
  8
0
 10
17.7713
 20
73.4
 11
17.5889
 21
73.1191
  0
LINE
  8
0
 10
17.5889
 20
73.1191
 11
17.3781
 21
72.8588
  0
LINE
  8
0
 10
17.3781
 20
72.8588
 11
17.1412
 21
72.6219
  0
LINE
  8
0
 10
17.1412
 20
72.6219
 11
16.8809
 21
72.4111
  0
LINE
  8
0
 10
16.8809
 20
72.4111
 11
16.6
 21
72.2287
  0
LINE
  8
0
 10
16.6
 20
72.2287
 11
16.3015
 21
72.0766
  0
LINE
  8
0
 10
16.3015
 20
72.0766
 11
15.9888
 21
71.9566
  0
LINE
  8
0
 10
15.9888
 20
71.9566
 11
15.6653
 21
71.8699
  0
LINE
  8
0
 10
15.6653
 20
71.8699
 11
15.3345
 21
71.8175
  0
LINE
  8
0
 10
15.3345
 20
71.8175
 11
15
 21
71.8
  0
LINE
  8
0
 10
15
 20
71.8
 11
14.6655
 21
71.8175
  0
LINE
  8
0
 10
74.6655
 20
11.8175
 11
74.3347
 21
11.8699
  0
LINE
  8
0
 10
74.3347
 20
11.8699
 11
74.0111
 21
11.9566
  0
LINE
  8
0
 10
74.0111
 20
11.9566
 11
73.6984
 21
12.0766
  0
LINE
  8
0
 10
73.6984
 20
12.0766
 11
73.4
 21
12.2287
  0
LINE
  8
0
 10
73.4
 20
12.2287
 11
73.1191
 21
12.4111
  0
LINE
  8
0
 10
73.1191
 20
12.4111
 11
72.8588
 21
12.6219
  0
LINE
  8
0
 10
72.8588
 20
12.6219
 11
72.6219
 21
12.8588
  0
LINE
  8
0
 10
72.6219
 20
12.8588
 11
72.4111
 21
13.1191
  0
LINE
  8
0
 10
72.4111
 20
13.1191
 11
72.2287
 21
13.4
  0
LINE
  8
0
 10
72.2287
 20
13.4
 11
72.0766
 21
13.6984
  0
LINE
  8
0
 10
72.0766
 20
13.6984
 11
71.9566
 21
14.0111
  0
LINE
  8
0
 10
71.9566
 20
14.0111
 11
71.8699
 21
14.3347
  0
LINE
  8
0
 10
71.8699
 20
14.3347
 11
71.8175
 21
14.6655
  0
LINE
  8
0
 10
71.8175
 20
14.6655
 11
71.8
 21
15
  0
LINE
  8
0
 10
71.8
 20
15
 11
71.8175
 21
15.3345
  0
LINE
  8
0
 10
71.8175
 20
15.3345
 11
71.8699
 21
15.6653
  0
LINE
  8
0
 10
71.8699
 20
15.6653
 11
71.9566
 21
15.9888
  0
LINE
  8
0
 10
71.9566
 20
15.9888
 11
72.0766
 21
16.3015
  0
LINE
  8
0
 10
72.0766
 20
16.3015
 11
72.2287
 21
16.6
  0
LINE
  8
0
 10
72.2287
 20
16.6
 11
72.4111
 21
16.8809
  0
LINE
  8
0
 10
72.4111
 20
16.8809
 11
72.6219
 21
17.1412
  0
LINE
  8
0
 10
72.6219
 20
17.1412
 11
72.8588
 21
17.3781
  0
LINE
  8
0
 10
72.8588
 20
17.3781
 11
73.1191
 21
17.5889
  0
LINE
  8
0
 10
73.1191
 20
17.5889
 11
73.4
 21
17.7713
  0
LINE
  8
0
 10
73.4
 20
17.7713
 11
73.6984
 21
17.9233
  0
LINE
  8
0
 10
73.6984
 20
17.9233
 11
74.0111
 21
18.0434
  0
LINE
  8
0
 10
74.0111
 20
18.0434
 11
74.3347
 21
18.1301
  0
LINE
  8
0
 10
74.3347
 20
18.1301
 11
74.6655
 21
18.1825
  0
LINE
  8
0
 10
74.6655
 20
18.1825
 11
75
 21
18.2
  0
LINE
  8
0
 10
75
 20
18.2
 11
75.3345
 21
18.1825
  0
LINE
  8
0
 10
75.3345
 20
18.1825
 11
75.6653
 21
18.1301
  0
LINE
  8
0
 10
75.6653
 20
18.1301
 11
75.9888
 21
18.0434
  0
LINE
  8
0
 10
75.9888
 20
18.0434
 11
76.3015
 21
17.9233
  0
LINE
  8
0
 10
76.3015
 20
17.9233
 11
76.6
 21
17.7713
  0
LINE
  8
0
 10
76.6
 20
17.7713
 11
76.8809
 21
17.5889
  0
LINE
  8
0
 10
76.8809
 20
17.5889
 11
77.1412
 21
17.3781
  0
LINE
  8
0
 10
77.1412
 20
17.3781
 11
77.3781
 21
17.1412
  0
LINE
  8
0
 10
77.3781
 20
17.1412
 11
77.5889
 21
16.8809
  0
LINE
  8
0
 10
77.5889
 20
16.8809
 11
77.7713
 21
16.6
  0
LINE
  8
0
 10
77.7713
 20
16.6
 11
77.9233
 21
16.3015
  0
LINE
  8
0
 10
77.9233
 20
16.3015
 11
78.0434
 21
15.9888
  0
LINE
  8
0
 10
78.0434
 20
15.9888
 11
78.1301
 21
15.6653
  0
LINE
  8
0
 10
78.1301
 20
15.6653
 11
78.1825
 21
15.3345
  0
LINE
  8
0
 10
78.1825
 20
15.3345
 11
78.2
 21
15
  0
LINE
  8
0
 10
78.2
 20
15
 11
78.1825
 21
14.6655
  0
LINE
  8
0
 10
78.1825
 20
14.6655
 11
78.1301
 21
14.3347
  0
LINE
  8
0
 10
78.1301
 20
14.3347
 11
78.0434
 21
14.0111
  0
LINE
  8
0
 10
78.0434
 20
14.0111
 11
77.9233
 21
13.6984
  0
LINE
  8
0
 10
77.9233
 20
13.6984
 11
77.7713
 21
13.4
  0
LINE
  8
0
 10
77.7713
 20
13.4
 11
77.5889
 21
13.1191
  0
LINE
  8
0
 10
77.5889
 20
13.1191
 11
77.3781
 21
12.8588
  0
LINE
  8
0
 10
77.3781
 20
12.8588
 11
77.1412
 21
12.6219
  0
LINE
  8
0
 10
77.1412
 20
12.6219
 11
76.8809
 21
12.4111
  0
LINE
  8
0
 10
76.8809
 20
12.4111
 11
76.6
 21
12.2287
  0
LINE
  8
0
 10
76.6
 20
12.2287
 11
76.3015
 21
12.0766
  0
LINE
  8
0
 10
76.3015
 20
12.0766
 11
75.9888
 21
11.9566
  0
LINE
  8
0
 10
75.9888
 20
11.9566
 11
75.6653
 21
11.8699
  0
LINE
  8
0
 10
75.6653
 20
11.8699
 11
75.3345
 21
11.8175
  0
LINE
  8
0
 10
75.3345
 20
11.8175
 11
75
 21
11.8
  0
LINE
  8
0
 10
75
 20
11.8
 11
74.6655
 21
11.8175
  0
LINE
  8
0
 10
14.6655
 20
11.8175
 11
14.3347
 21
11.8699
  0
LINE
  8
0
 10
14.3347
 20
11.8699
 11
14.0111
 21
11.9566
  0
LINE
  8
0
 10
14.0111
 20
11.9566
 11
13.6984
 21
12.0766
  0
LINE
  8
0
 10
13.6984
 20
12.0766
 11
13.4
 21
12.2287
  0
LINE
  8
0
 10
13.4
 20
12.2287
 11
13.1191
 21
12.4111
  0
LINE
  8
0
 10
13.1191
 20
12.4111
 11
12.8588
 21
12.6219
  0
LINE
  8
0
 10
12.8588
 20
12.6219
 11
12.6219
 21
12.8588
  0
LINE
  8
0
 10
12.6219
 20
12.8588
 11
12.4111
 21
13.1191
  0
LINE
  8
0
 10
12.4111
 20
13.1191
 11
12.2287
 21
13.4
  0
LINE
  8
0
 10
12.2287
 20
13.4
 11
12.0766
 21
13.6984
  0
LINE
  8
0
 10
12.0766
 20
13.6984
 11
11.9566
 21
14.0111
  0
LINE
  8
0
 10
11.9566
 20
14.0111
 11
11.8699
 21
14.3347
  0
LINE
  8
0
 10
11.8699
 20
14.3347
 11
11.8175
 21
14.6655
  0
LINE
  8
0
 10
11.8175
 20
14.6655
 11
11.8
 21
15
  0
LINE
  8
0
 10
11.8
 20
15
 11
11.8175
 21
15.3345
  0
LINE
  8
0
 10
11.8175
 20
15.3345
 11
11.8699
 21
15.6653
  0
LINE
  8
0
 10
11.8699
 20
15.6653
 11
11.9566
 21
15.9888
  0
LINE
  8
0
 10
11.9566
 20
15.9888
 11
12.0766
 21
16.3015
  0
LINE
  8
0
 10
12.0766
 20
16.3015
 11
12.2287
 21
16.6
  0
LINE
  8
0
 10
12.2287
 20
16.6
 11
12.4111
 21
16.8809
  0
LINE
  8
0
 10
12.4111
 20
16.8809
 11
12.6219
 21
17.1412
  0
LINE
  8
0
 10
12.6219
 20
17.1412
 11
12.8588
 21
17.3781
  0
LINE
  8
0
 10
12.8588
 20
17.3781
 11
13.1191
 21
17.5889
  0
LINE
  8
0
 10
13.1191
 20
17.5889
 11
13.4
 21
17.7713
  0
LINE
  8
0
 10
13.4
 20
17.7713
 11
13.6984
 21
17.9233
  0
LINE
  8
0
 10
13.6984
 20
17.9233
 11
14.0111
 21
18.0434
  0
LINE
  8
0
 10
14.0111
 20
18.0434
 11
14.3347
 21
18.1301
  0
LINE
  8
0
 10
14.3347
 20
18.1301
 11
14.6655
 21
18.1825
  0
LINE
  8
0
 10
14.6655
 20
18.1825
 11
15
 21
18.2
  0
LINE
  8
0
 10
15
 20
18.2
 11
15.3345
 21
18.1825
  0
LINE
  8
0
 10
15.3345
 20
18.1825
 11
15.6653
 21
18.1301
  0
LINE
  8
0
 10
15.6653
 20
18.1301
 11
15.9888
 21
18.0434
  0
LINE
  8
0
 10
15.9888
 20
18.0434
 11
16.3015
 21
17.9233
  0
LINE
  8
0
 10
16.3015
 20
17.9233
 11
16.6
 21
17.7713
  0
LINE
  8
0
 10
16.6
 20
17.7713
 11
16.8809
 21
17.5889
  0
LINE
  8
0
 10
16.8809
 20
17.5889
 11
17.1412
 21
17.3781
  0
LINE
  8
0
 10
17.1412
 20
17.3781
 11
17.3781
 21
17.1412
  0
LINE
  8
0
 10
17.3781
 20
17.1412
 11
17.5889
 21
16.8809
  0
LINE
  8
0
 10
17.5889
 20
16.8809
 11
17.7713
 21
16.6
  0
LINE
  8
0
 10
17.7713
 20
16.6
 11
17.9233
 21
16.3015
  0
LINE
  8
0
 10
17.9233
 20
16.3015
 11
18.0434
 21
15.9888
  0
LINE
  8
0
 10
18.0434
 20
15.9888
 11
18.1301
 21
15.6653
  0
LINE
  8
0
 10
18.1301
 20
15.6653
 11
18.1825
 21
15.3345
  0
LINE
  8
0
 10
18.1825
 20
15.3345
 11
18.2
 21
15
  0
LINE
  8
0
 10
18.2
 20
15
 11
18.1825
 21
14.6655
  0
LINE
  8
0
 10
18.1825
 20
14.6655
 11
18.1301
 21
14.3347
  0
LINE
  8
0
 10
18.1301
 20
14.3347
 11
18.0434
 21
14.0111
  0
LINE
  8
0
 10
18.0434
 20
14.0111
 11
17.9233
 21
13.6984
  0
LINE
  8
0
 10
17.9233
 20
13.6984
 11
17.7713
 21
13.4
  0
LINE
  8
0
 10
17.7713
 20
13.4
 11
17.5889
 21
13.1191
  0
LINE
  8
0
 10
17.5889
 20
13.1191
 11
17.3781
 21
12.8588
  0
LINE
  8
0
 10
17.3781
 20
12.8588
 11
17.1412
 21
12.6219
  0
LINE
  8
0
 10
17.1412
 20
12.6219
 11
16.8809
 21
12.4111
  0
LINE
  8
0
 10
16.8809
 20
12.4111
 11
16.6
 21
12.2287
  0
LINE
  8
0
 10
16.6
 20
12.2287
 11
16.3015
 21
12.0766
  0
LINE
  8
0
 10
16.3015
 20
12.0766
 11
15.9888
 21
11.9566
  0
LINE
  8
0
 10
15.9888
 20
11.9566
 11
15.6653
 21
11.8699
  0
LINE
  8
0
 10
15.6653
 20
11.8699
 11
15.3345
 21
11.8175
  0
LINE
  8
0
 10
15.3345
 20
11.8175
 11
15
 21
11.8
  0
LINE
  8
0
 10
15
 20
11.8
 11
14.6655
 21
11.8175
  0
ENDSEC
  0
SECTION
  2
OBJECTS
  0
DICTIONARY
  0
ENDSEC
  0
EOF
