<?xml version="1.0" standalone="no"?>
<!DOCTYPE svg PUBLIC "-//W3C//DTD SVG 1.1//EN" "http://www.w3.org/Graphics/SVG/1.1/DTD/svg11.dtd">
<svg width="90mm" height="90mm" viewBox="0 -90 90 90" xmlns="http://www.w3.org/2000/svg" version="1.1">
<title>OpenSCAD Model</title>
<path d="
M 88.0333,-18.7121 L 82.2191,-36.6063 L 72.8115,-52.9007 L 63.3778,-63.3778 L 42.4264,-42.4264 L 40.3051,-44.5477
 L 61.3677,-65.6103 L 60.2217,-66.883 L 45,-77.9423 L 27.8115,-85.5951 L 9.40755,-89.507 L 0,-89.507
 L 0,-0 L 90,-0 z
M 14.6655,-71.8175 L 14.3347,-71.8699 L 14.0111,-71.9566 L 13.6984,-72.0766 L 13.4,-72.2287 L 13.1191,-72.4111
 L 12.8588,-72.6219 L 12.6219,-72.8588 L 12.4111,-73.1191 L 12.2287,-73.4 L 12.0766,-73.6984 L 11.9566,-74.0111
 L 11.8699,-74.3347 L 11.8175,-74.6655 L 11.8,-75 L 11.8175,-75.3345 L 11.8699,-75.6653 L 11.9566,-75.9888
 L 12.0766,-76.3015 L 12.2287,-76.6 L 12.4111,-76.8809 L 12.6219,-77.1412 L 12.8588,-77.3781 L 13.1191,-77.5889
 L 13.4,-77.7713 L 13.6984,-77.9233 L 14.0111,-78.0434 L 14.3347,-78.1301 L 14.6655,-78.1825 L 15,-78.2
 L 15.3345,-78.1825 L 15.6653,-78.1301 L 15.9888,-78.0434 L 16.3015,-77.9233 L 16.6,-77.7713 L 16.8809,-77.5889
 L 17.1412,-77.3781 L 17.3781,-77.1412 L 17.5889,-76.8809 L 17.7713,-76.6 L 17.9233,-76.3015 L 18.0434,-75.9888
 L 18.1301,-75.6653 L 18.1825,-75.3345 L 18.2,-75 L 18.1825,-74.6655 L 18.1301,-74.3347 L 18.0434,-74.0111
 L 17.9233,-73.6984 L 17.7713,-73.4 L 17.5889,-73.1191 L 17.3781,-72.8588 L 17.1412,-72.6219 L 16.8809,-72.4111
 L 16.6,-72.2287 L 16.3015,-72.0766 L 15.9888,-71.9566 L 15.6653,-71.8699 L 15.3345,-71.8175 L 15,-71.8
 z
M 74.6655,-11.8175 L 74.3347,-11.8699 L 74.0111,-11.9566 L 73.6984,-12.0766 L 73.4,-12.2287 L 73.1191,-12.4111
 L 72.8588,-12.6219 L 72.6219,-12.8588 L 72.4111,-13.1191 L 72.2287,-13.4 L 72.0766,-13.6984 L 71.9566,-14.0111
 L 71.8699,-14.3347 L 71.8175,-14.6655 L 71.8,-15 L 71.8175,-15.3345 L 71.8699,-15.6653 L 71.9566,-15.9888
 L 72.0766,-16.3015 L 72.2287,-16.6 L 72.4111,-16.8809 L 72.6219,-17.1412 L 72.8588,-17.3781 L 73.1191,-17.5889
 L 73.4,-17.7713 L 73.6984,-17.9233 L 74.0111,-18.0434 L 74.3347,-18.1301 L 74.6655,-18.1825 L 75,-18.2
 L 75.3345,-18.1825 L 75.6653,-18.1301 L 75.9888,-18.0434 L 76.3015,-17.9233 L 76.6,-17.7713 L 76.8809,-17.5889
 L 77.1412,-17.3781 L 77.3781,-17.1412 L 77.5889,-16.8809 L 77.7713,-16.6 L 77.9233,-16.3015 L 78.0434,-15.9888
 L 78.1301,-15.6653 L 78.1825,-15.3345 L 78.2,-15 L 78.1825,-14.6655 L 78.1301,-14.3347 L 78.0434,-14.0111
 L 77.9233,-13.6984 L 77.7713,-13.4 L 77.5889,-13.1191 L 77.3781,-12.8588 L 77.1412,-12.6219 L 76.8809,-12.4111
 L 76.6,-12.2287 L 76.3015,-12.0766 L 75.9888,-11.9566 L 75.6653,-11.8699 L 75.3345,-11.8175 L 75,-11.8
 z
M 14.6655,-11.8175 L 14.3347,-11.8699 L 14.0111,-11.9566 L 13.6984,-12.0766 L 13.4,-12.2287 L 13.1191,-12.4111
 L 12.8588,-12.6219 L 12.6219,-12.8588 L 12.4111,-13.1191 L 12.2287,-13.4 L 12.0766,-13.6984 L 11.9566,-14.0111
 L 11.8699,-14.3347 L 11.8175,-14.6655 L 11.8,-15 L 11.8175,-15.3345 L 11.8699,-15.6653 L 11.9566,-15.9888
 L 12.0766,-16.3015 L 12.2287,-16.6 L 12.4111,-16.8809 L 12.6219,-17.1412 L 12.8588,-17.3781 L 13.1191,-17.5889
 L 13.4,-17.7713 L 13.6984,-17.9233 L 14.0111,-18.0434 L 14.3347,-18.1301 L 14.6655,-18.1825 L 15,-18.2
 L 15.3345,-18.1825 L 15.6653,-18.1301 L 15.9888,-18.0434 L 16.3015,-17.9233 L 16.6,-17.7713 L 16.8809,-17.5889
 L 17.1412,-17.3781 L 17.3781,-17.1412 L 17.5889,-16.8809 L 17.7713,-16.6 L 17.9233,-16.3015 L 18.0434,-15.9888
 L 18.1301,-15.6653 L 18.1825,-15.3345 L 18.2,-15 L 18.1825,-14.6655 L 18.1301,-14.3347 L 18.0434,-14.0111
 L 17.9233,-13.6984 L 17.7713,-13.4 L 17.5889,-13.1191 L 17.3781,-12.8588 L 17.1412,-12.6219 L 16.8809,-12.4111
 L 16.6,-12.2287 L 16.3015,-12.0766 L 15.9888,-11.9566 L 15.6653,-11.8699 L 15.3345,-11.8175 L 15,-11.8
 z
" stroke="black" fill="lightgray" stroke-width="0.5"/>
</svg>
